SplineFontDB: 3.2
FontName: Porsoville-Regular
FullName: Porsoville Regular
FamilyName: Porsoville
Weight: Regular
Copyright: Copyright (c) 2012, Pablo Impallari (www.impallari.com|impallari@gmail.com),  Copyright (c) 2012, Rodrigo Fuenzalida (www.rfuenzalida.com|hello :rfuenzalida.com) Copyright (c) 2016--2019, Michael Sharpe (msharpe@ucsd.edu)\nCopyright (c) 2025, Juan J. Bracamonte L.
Version: 1.000
ItalicAngle: 0
UnderlinePosition: -50
UnderlineWidth: 50
Ascent: 775
Descent: 225
InvalidEm: 0
sfntRevision: 0x00010000
LayerCount: 2
Layer: 0 0 "Atr+AOEA-s" 1
Layer: 1 0 "Anterior" 0
XUID: [1021 18 461060207 5460214]
StyleMap: 0x0040
FSType: 0
OS2Version: 3
OS2_WeightWidthSlopeOnly: 0
OS2_UseTypoMetrics: 0
CreationTime: 1354221900
ModificationTime: 1763535731
PfmFamily: 17
TTFWeight: 400
TTFWidth: 5
LineGap: 0
VLineGap: 0
Panose: 2 0 0 0 0 0 0 0 0 0
OS2TypoAscent: 970
OS2TypoAOffset: 0
OS2TypoDescent: -270
OS2TypoDOffset: 0
OS2TypoLinegap: 0
OS2WinAscent: 970
OS2WinAOffset: 0
OS2WinDescent: 270
OS2WinDOffset: 0
HheadAscent: 970
HheadAOffset: 0
HheadDescent: -270
HheadDOffset: 0
OS2SubXSize: 700
OS2SubYSize: 650
OS2SubXOff: 0
OS2SubYOff: 140
OS2SupXSize: 700
OS2SupYSize: 650
OS2SupXOff: 0
OS2SupYOff: 477
OS2StrikeYSize: 50
OS2StrikeYPos: 250
OS2CapHeight: 770
OS2XHeight: 530
OS2Vendor: '    '
OS2CodePages: 00000093.00000000
OS2UnicodeRanges: a00000bf.5000005b.00000000.00000000
Lookup: 1 0 0 "'smcp' Lowercase to Small Capitals in Latin lookup 0" { "'smcp' Lowercase to Small Capitals in Latin lookup 0 subtable"  } ['smcp' ('DFLT' <'dflt' > 'latn' <'dflt' > ) ]
Lookup: 1 0 0 "'c2sc' Capitals to Small Capitals in Latin lookup 1" { "'c2sc' Capitals to Small Capitals in Latin lookup 1 subtable"  } ['c2sc' ('DFLT' <'dflt' > 'latn' <'dflt' > ) ]
Lookup: 4 0 1 "'liga' Standard Ligatures in Latin lookup 2" { "'liga' Standard Ligatures in Latin lookup 2 subtable"  } ['liga' ('latn' <'dflt' > ) ]

StartChar: .notdef
Encoding: 256 -1 0
Width: 682
GlyphClass: 1
Flags: MW
HStem: -235 55<217 465 217 565> 822 54<217 465 217 217>
VStem: 117 100<-180 -180 -180 822> 465 100<-180 822 822 822>
LayerCount: 2
Fore
SplineSet
117 876 m 1
 565 876 l 1
 565 -235 l 1
 117 -235 l 1
 117 876 l 1
217 -180 m 1
 465 -180 l 1
 465 822 l 1
 217 822 l 1
 217 -180 l 1
EndSplineSet
Validated: 1
EndChar

StartChar: exclam
Encoding: 258 33 2
Width: 278
GlyphClass: 2
Flags: MW
HStem: -9 118<122.5 155.5> 684 20G<122 156>
VStem: 80 119<34 66.5 34 66.5> 117 44<187 211>
LayerCount: 2
Fore
SplineSet
139 -9 m 0xe0
 106 -9 80 17 80 50 c 0
 80 83 106 109 139 109 c 0
 172 109 199 83 199 50 c 0
 199 18 172 -9 139 -9 c 0xe0
139 704 m 0
 173 704 198 678 198 644 c 2
 198 621 l 2
 198 615 197 606 197 598 c 0
 191 574 190 552 184 524 c 0
 163 421 161 317 161 187 c 1
 117 187 l 1xd0
 117 235 118 277 116 310 c 0
 116 410 102 485 87 569 c 0
 85 581 83 591 83 598 c 0
 81 607 81 614 81 621 c 0
 80 627 80 635 80 644 c 0
 80 678 105 704 139 704 c 0
EndSplineSet
Validated: 33
Substitution2: "'c2sc' Capitals to Small Capitals in Latin lookup 1 subtable" exclam.sc
Substitution2: "'smcp' Lowercase to Small Capitals in Latin lookup 0 subtable" exclam.sc
EndChar

StartChar: quotedbl
Encoding: 259 34 3
Width: 331
GlyphClass: 2
Flags: MW
HStem: 509 240<84.5 109.5 84.5 110 84 109.5 84.5 221 221.5 247 84.5 247>
VStem: 54 85<701.5 716.5 700.5 717.5> 191 85<701.5 717 691.5 717.5>
LayerCount: 2
Fore
SplineSet
97 749 m 0
 122 749 139 729 139 704 c 0
 139 697 138 686 135 671 c 0
 133 656 131 639 128 621 c 2
 119 564 l 2
 115 544 113 526 110 509 c 1
 84 509 l 1
 75 562 65 620 58 672 c 0
 55 687 54 698 54 705 c 0
 54 730 72 749 97 749 c 0
234 749 m 0
 260 749 276 730 276 704 c 0
 276 679 269 647 265 621 c 2
 256 564 l 2
 252 544 250 526 247 509 c 1
 221 509 l 1
 212 562 202 620 195 672 c 0
 192 687 191 698 191 705 c 0
 191 730 209 749 234 749 c 0
EndSplineSet
Validated: 1
Substitution2: "'c2sc' Capitals to Small Capitals in Latin lookup 1 subtable" quotedbl.sc
Substitution2: "'smcp' Lowercase to Small Capitals in Latin lookup 0 subtable" quotedbl.sc
EndChar

StartChar: numbersign
Encoding: 260 35 4
Width: 601
GlyphClass: 2
Flags: MW
HStem: 0 21G<127 181 127 127 320 374 320 320> 230 45<42 162 35 171 225 352 416 533> 429 45<70 192 63 200 255 382 445 559> 675 20G<232 286 286 286 422 476 476 476>
VStem: 127 54<0 0> 232 54<695 695> 320 54<0 0> 422 54<695 695>
LayerCount: 2
Fore
SplineSet
533 230 m 1
 407 230 l 1
 374 0 l 1
 320 0 l 1
 352 230 l 1
 216 230 l 1
 181 0 l 1
 127 0 l 1
 162 230 l 1
 35 230 l 1
 42 275 l 1
 171 275 l 1
 192 429 l 1
 63 429 l 1
 70 474 l 1
 200 474 l 1
 232 695 l 1
 286 695 l 1
 255 474 l 1
 391 474 l 1
 422 695 l 1
 476 695 l 1
 445 474 l 1
 566 474 l 1
 559 429 l 1
 437 429 l 1
 416 275 l 1
 540 275 l 1
 533 230 l 1
246 429 m 1
 225 275 l 1
 361 275 l 1
 382 429 l 1
 246 429 l 1
EndSplineSet
Validated: 1
Substitution2: "'c2sc' Capitals to Small Capitals in Latin lookup 1 subtable" numbersign.sc
Substitution2: "'smcp' Lowercase to Small Capitals in Latin lookup 0 subtable" numbersign.sc
EndChar

StartChar: dollar
Encoding: 261 36 5
Width: 582
GlyphClass: 2
Flags: MW
HStem: -9 19<273 273 303 303> 685 19<273 273>
VStem: 52 20<212 212> 81 85<541.5 559> 273 30<-153 -9 -153 -9 10 291 437 684 704 812> 435 98<143.5 185> 463 18<512 512>
LayerCount: 2
Fore
SplineSet
273 812 m 1xfc
 303 812 l 1
 303 703 l 1
 353 698 393 679 427 651 c 1
 455 691 l 1
 471 691 l 1
 481 512 l 1
 463 512 l 1xfa
 439 596 387 669 303 684 c 1
 303 420 l 1
 374 388 439 359 486 314 c 0
 516 282 533 252 533 196 c 0
 533 91 466 34 387 5 c 0
 362 -2 332 -7 303 -9 c 1
 303 -153 l 1
 273 -153 l 1
 273 -9 l 1
 203 -5 158 17 112 54 c 1
 82 10 l 1
 66 10 l 1
 52 212 l 1
 72 212 l 1
 90 115 165 20 273 10 c 1
 273 307 l 1
 214 333 160 358 123 398 c 0
 95 428 81 459 81 513 c 0
 81 605 135 665 202 690 c 0
 222 699 248 703 273 704 c 1
 273 812 l 1xfc
273 685 m 1
 193 677 166 618 166 558 c 0
 166 525 177 504 197 486 c 0
 218 465 244 451 273 437 c 1
 273 685 l 1
303 10 m 1
 387 18 435 82 435 154 c 0xfc
 435 216 397 241 354 267 c 0
 340 275 321 283 303 291 c 1
 303 10 l 1
EndSplineSet
Validated: 1
Substitution2: "'c2sc' Capitals to Small Capitals in Latin lookup 1 subtable" dollar.sc
Substitution2: "'smcp' Lowercase to Small Capitals in Latin lookup 0 subtable" dollar.sc
EndChar

StartChar: percent
Encoding: 262 37 6
Width: 605
GlyphClass: 2
Flags: MW
HStem: -9 23<416.5 433.5 416.5 442> 0 21G<32 83 32 32> 254 22<418 429.5> 419 22<172.5 188> 675 20G<531 574 574 574> 681 23<174 207>
VStem: 32 51<0 0> 74 51<550 569.5 535.5 590.5> 236 51<535.5 570.5 530.5 585.5> 319 51<122 141.5 107.5 164> 480 52<111 142.5 111 155.5> 531 43<695 695>
LayerCount: 2
Fore
SplineSet
83 0 m 1x7ad0
 32 0 l 1
 531 695 l 1
 574 695 l 1
 83 0 l 1x7ad0
181 704 m 0x35c0
 234 704 266 658 278 616 c 0
 284 599 287 581 287 560 c 0
 287 501 261 451 222 430 c 0
 208 423 195 419 181 419 c 0
 128 419 96 462 83 504 c 0x36c0
 77 522 74 540 74 560 c 0
 74 621 100 669 139 693 c 0
 153 700 167 704 181 704 c 0x35c0
181 441 m 0
 198 441 211 450 221 466 c 0
 231 482 236 513 236 558 c 0
 236 613 233 681 181 681 c 0
 144 681 136 650 129 617 c 0
 126 601 125 581 125 558 c 0x35c0
 125 513 130 482 140 466 c 0
 150 450 164 441 181 441 c 0
425 276 m 0
 479 276 509 230 524 189 c 0
 529 172 532 153 532 132 c 0
 532 90 519 57 500 32 c 0
 484 11 459 -9 425 -9 c 0xb0e0
 372 -9 342 36 327 76 c 0
 322 94 319 112 319 132 c 0
 319 196 344 242 385 265 c 0
 398 272 411 276 425 276 c 0
425 14 m 0
 442 14 456 22 466 38 c 0
 476 54 480 85 480 130 c 0
 480 181 478 228 449 247 c 0
 443 252 434 254 425 254 c 0
 390 254 380 222 374 190 c 0
 371 174 370 153 370 130 c 0
 370 85 375 54 385 38 c 0
 395 22 408 14 425 14 c 0
EndSplineSet
Validated: 1
Substitution2: "'c2sc' Capitals to Small Capitals in Latin lookup 1 subtable" percent.sc
Substitution2: "'smcp' Lowercase to Small Capitals in Latin lookup 0 subtable" percent.sc
EndChar

StartChar: ampersand
Encoding: 263 38 7
Width: 792
GlyphClass: 2
Flags: MW
HStem: -12 31<214 273.5> -9 46<662.5 665> 408 14<530 544.5> 686 18<327.5 361.5 327.5 363>
VStem: 32 110<139.5 171.5> 172 72<534.5 566.5> 407 73<553.5 591 553.5 601.5>
LayerCount: 2
Fore
SplineSet
407 574 m 0x3e
 407 629 398 686 328 686 c 0
 273 686 244 624 244 564 c 0
 244 505 287 450 313 413 c 1
 359 449 407 504 407 574 c 0x3e
246 350 m 1
 154 296 142 234 142 162 c 0
 142 97 172 19 256 19 c 0xbe
 330 19 384 81 424 116 c 1
 246 350 l 1
437 99 m 1
 387 45 321 -12 226 -12 c 0xbe
 140 -12 77 30 47 87 c 0
 37 107 32 128 32 151 c 0
 32 192 49 230 81 264 c 0
 113 299 164 335 235 370 c 1
 216 398 199 424 190 448 c 0
 182 472 172 498 172 525 c 0
 172 608 219 664 275 691 c 0
 294 699 316 704 339 704 c 0
 384 704 416 688 440 666 c 0
 464 644 480 612 480 570 c 0
 480 537 456 504 433 474 c 0
 410 444 376 430 325 396 c 1
 489 185 l 1
 522 228 592 311 592 363 c 0
 592 388 559 408 530 408 c 1
 530 422 l 1
 737 422 l 1
 737 407 l 1
 684 407 641 359 615 320 c 0
 586 277 537 209 501 168 c 1
 526 134 563 91 590 73 c 0
 618 56 649 37 676 37 c 0
 717 37 737 73 751 101 c 1
 761 95 l 1
 737 32 703 -9 627 -9 c 0x7e
 592 -9 568 -1 543 13 c 0
 507 34 469 67 437 99 c 1
EndSplineSet
Validated: 1
Substitution2: "'c2sc' Capitals to Small Capitals in Latin lookup 1 subtable" ampersand.sc
Substitution2: "'smcp' Lowercase to Small Capitals in Latin lookup 0 subtable" ampersand.sc
EndChar

StartChar: quotesingle
Encoding: 264 39 8
Width: 194
GlyphClass: 2
Flags: MW
HStem: 509 240<84.5 109.5 84.5 110 84 109.5>
VStem: 54 85<701.5 716.5 700.5 717.5>
LayerCount: 2
Fore
SplineSet
97 749 m 0
 122 749 139 729 139 704 c 0
 139 697 138 686 135 671 c 0
 133 656 131 639 128 621 c 2
 119 564 l 2
 115 544 113 526 110 509 c 1
 84 509 l 1
 75 562 65 620 58 672 c 0
 55 687 54 698 54 705 c 0
 54 730 72 749 97 749 c 0
EndSplineSet
Validated: 1
Substitution2: "'c2sc' Capitals to Small Capitals in Latin lookup 1 subtable" quotesingle.sc
Substitution2: "'smcp' Lowercase to Small Capitals in Latin lookup 0 subtable" quotesingle.sc
EndChar

StartChar: parenleft
Encoding: 265 40 9
Width: 299
GlyphClass: 2
Flags: MW
VStem: 42 91<250 327.5 231 333>
LayerCount: 2
Fore
SplineSet
282 725 m 1
 212 632 159 551 139 419 c 0
 135 386 133 348 133 307 c 0
 133 155 160 39 218 -54 c 0
 238 -87 261 -119 289 -150 c 1
 278 -160 l 1
 206 -90 142 -30 97 49 c 0
 54 125 42 208 42 292 c 0
 42 374 56 455 96 530 c 0
 137 607 204 662 274 732 c 1
 282 725 l 1
EndSplineSet
Validated: 1
Substitution2: "'c2sc' Capitals to Small Capitals in Latin lookup 1 subtable" parenleft.sc
Substitution2: "'smcp' Lowercase to Small Capitals in Latin lookup 0 subtable" parenleft.sc
EndChar

StartChar: parenright
Encoding: 266 41 10
Width: 299
GlyphClass: 2
Flags: MW
VStem: 198 91<244.5 322 239 341>
LayerCount: 2
Fore
SplineSet
49 -153 m 1
 119 -60 172 21 192 153 c 0
 196 186 198 224 198 265 c 0
 198 417 171 533 113 626 c 0
 93 659 70 691 42 722 c 1
 53 732 l 1
 125 662 189 602 234 523 c 0
 277 447 289 364 289 280 c 0
 289 198 275 117 235 42 c 0
 194 -35 127 -90 57 -160 c 1
 49 -153 l 1
EndSplineSet
Validated: 1
Substitution2: "'c2sc' Capitals to Small Capitals in Latin lookup 1 subtable" parenright.sc
Substitution2: "'smcp' Lowercase to Small Capitals in Latin lookup 0 subtable" parenright.sc
EndChar

StartChar: asterisk
Encoding: 267 42 11
Width: 465
GlyphClass: 2
Flags: MW
HStem: 393 83 394 70 541 86 548 79 684 20G<221.5 245>
VStem: 190 82<347.5 358.5 345.5 361.5>
LayerCount: 2
Fore
SplineSet
409 433 m 0x5c
 409 410 389 394 366 394 c 0x5c
 359 394 352 395 345 400 c 0
 338 405 329 414 320 428 c 0
 307 450 273 474 246 487 c 1
 246 452 251 426 258 401 c 0
 262 391 265 382 267 375 c 0
 271 368 272 361 272 356 c 0
 272 335 254 315 232 315 c 0
 208 315 190 336 190 359 c 0
 190 364 191 369 195 375 c 0
 198 381 200 391 204 401 c 0
 212 424 216 454 218 487 c 1
 194 473 176 461 164 449 c 0
 152 437 144 427 137 419 c 0
 132 411 126 404 121 399 c 0
 117 395 109 393 98 393 c 0
 74 393 57 411 57 434 c 0
 57 463 76 471 101 476 c 0
 139 484 171 490 205 510 c 1
 177 525 154 535 124 541 c 0
 105 545 92 542 80 551 c 0
 68 559 59 568 59 587 c 0
 59 610 78 627 101 627 c 0xac
 109 627 117 624 124 617 c 0
 142 601 158 583 178 563 c 0
 190 552 203 542 219 533 c 1
 219 570 214 602 204 626 c 0
 200 633 192 652 192 663 c 0
 192 686 210 704 233 704 c 0
 257 704 274 687 274 663 c 0
 274 650 268 636 263 626 c 0
 250 599 248 571 246 533 c 1
 268 546 284 558 296 570 c 0
 308 582 317 591 323 599 c 0
 335 615 340 627 365 627 c 0
 388 627 407 610 407 587 c 0
 407 557 396 554 370 548 c 0
 358 545 343 542 325 538 c 0
 306 533 285 524 261 510 c 1
 284 496 303 489 321 484 c 0
 350 478 381 477 399 464 c 0
 405 459 409 448 409 433 c 0x5c
EndSplineSet
Validated: 1
EndChar

StartChar: plus
Encoding: 268 43 12
Width: 496
GlyphClass: 2
Flags: MW
HStem: 283 45<37 225 37 225 272 459>
VStem: 225 47<94 283 94 283 328 516>
LayerCount: 2
Fore
SplineSet
225 94 m 1
 225 283 l 1
 37 283 l 1
 37 328 l 1
 225 328 l 1
 225 516 l 1
 272 516 l 1
 272 328 l 1
 459 328 l 1
 459 283 l 1
 272 283 l 1
 272 94 l 1
 225 94 l 1
EndSplineSet
Validated: 1
EndChar

StartChar: comma
Encoding: 269 44 13
Width: 246
GlyphClass: 2
Flags: MW
HStem: 0 109<103.5 112>
VStem: 134 52<-6 7>
LayerCount: 2
Fore
SplineSet
60 53 m 0
 60 87 86 109 121 109 c 0
 164 109 186 79 186 19 c 0
 186 -45 157 -79 122 -112 c 0
 107 -126 88 -142 65 -158 c 1
 44 -129 l 1
 76 -106 100 -84 114 -63 c 0
 128 -42 134 -19 134 7 c 1
 126 2 117 0 107 0 c 0
 78 0 60 25 60 53 c 0
EndSplineSet
Validated: 1
EndChar

StartChar: hyphen
Encoding: 270 45 14
Width: 417
GlyphClass: 2
Flags: MW
HStem: 204 75<70 348 70 348>
VStem: 70 278<204 279 204 279>
LayerCount: 2
Fore
SplineSet
70 204 m 1
 70 279 l 1
 348 279 l 1
 348 204 l 1
 70 204 l 1
EndSplineSet
Validated: 1
EndChar

StartChar: period
Encoding: 271 46 15
Width: 279
GlyphClass: 2
Flags: MW
HStem: -9 118<123 156>
VStem: 80 119<34.5 66>
LayerCount: 2
Fore
SplineSet
139 -9 m 0
 107 -9 80 19 80 50 c 0
 80 82 107 109 139 109 c 0
 173 109 199 84 199 50 c 0
 199 17 173 -9 139 -9 c 0
EndSplineSet
Validated: 1
EndChar

StartChar: slash
Encoding: 272 47 16
Width: 415
GlyphClass: 2
Flags: MW
HStem: 0 21G<26 79 26 26> 675 20G<345 389 389 389>
LayerCount: 2
Fore
SplineSet
79 0 m 1
 26 0 l 1
 345 695 l 1
 389 695 l 1
 79 0 l 1
EndSplineSet
Validated: 1
Substitution2: "'c2sc' Capitals to Small Capitals in Latin lookup 1 subtable" slash.sc
Substitution2: "'smcp' Lowercase to Small Capitals in Latin lookup 0 subtable" slash.sc
EndChar

StartChar: zero
Encoding: 273 48 17
Width: 560
GlyphClass: 2
Flags: MW
HStem: -9 18<215.5 344 215.5 366.5> 686 18<215 345>
VStem: 53 97<265.5 413.5 265.5 432> 410 97<265.5 413.5>
LayerCount: 2
Fore
SplineSet
280 704 m 0
 456 704 507 523 507 342 c 0
 507 165 453 -9 280 -9 c 0
 108 -9 53 166 53 342 c 0
 53 522 105 704 280 704 c 0
280 9 m 0
 408 9 410 192 410 339 c 0
 410 488 410 686 280 686 c 0
 150 686 150 488 150 339 c 0
 150 192 151 9 280 9 c 0
EndSplineSet
Validated: 1
Substitution2: "'onum' Oldstyle Figures lookup 13 subtable" zero.oldstyle
Substitution2: "'pnum' Proportional Numbers in Latin lookup 12 subtable" zero.prop
Substitution2: "'dnom' Denominators in Latin lookup 10 subtable" zero.denominator
Substitution2: "'sinf' Scientific Inferiors in Latin lookup 9 subtable" zero.inferior
Substitution2: "'sups' Superscript in Latin lookup 8 subtable" zero.superior
EndChar

StartChar: one
Encoding: 274 49 18
Width: 560
GlyphClass: 2
Flags: MW
HStem: 0 14<137 453 137 137> 639 14<132 147> 684 20G<339 339>
VStem: 251 88<120 126 126 558 558 558>
LayerCount: 2
Fore
SplineSet
132 653 m 1
 197 655 286 677 339 704 c 1
 339 126 l 2
 339 88 340 56 355 36 c 0
 369 18 419 16 453 14 c 1
 453 0 l 1
 137 0 l 1
 137 14 l 1
 187 17 241 23 247 68 c 0
 250 81 251 99 251 120 c 2
 251 558 l 2
 249 600 251 611 220 627 c 0
 206 634 162 639 132 639 c 1
 132 653 l 1
EndSplineSet
Validated: 1
Substitution2: "'onum' Oldstyle Figures lookup 13 subtable" one.oldstyle
Substitution2: "'pnum' Proportional Numbers in Latin lookup 12 subtable" one.prop
Substitution2: "'dnom' Denominators in Latin lookup 10 subtable" one.denominator
Substitution2: "'sinf' Scientific Inferiors in Latin lookup 9 subtable" one.inferior
Substitution2: "'sups' Superscript in Latin lookup 8 subtable" one.superior
EndChar

StartChar: two
Encoding: 275 50 19
Width: 560
GlyphClass: 2
Flags: MW
HStem: 0 88<165 359 359 383.5 165 467> 382 48<153 242> 686 19<246.5 320.5>
VStem: 55 88<505 547> 387 109<490.5 523.5 490.5 553.5>
LayerCount: 2
Fore
SplineSet
242 430 m 1
 236 400 209 382 172 382 c 0
 134 382 107 398 89 420 c 0
 68 443 55 474 55 517 c 0
 55 577 84 622 119 652 c 0
 156 682 214 705 279 705 c 0
 380 705 447 657 480 588 c 0
 490 564 496 538 496 509 c 0
 496 472 487 435 471 399 c 0
 432 318 360 251 291 191 c 0
 252 159 208 125 164 93 c 1
 165 88 l 1
 359 88 l 2
 408 88 437 106 452 141 c 0
 458 154 467 171 473 192 c 1
 501 192 l 1
 467 0 l 1
 47 0 l 1
 47 30 l 1
 116 91 172 144 217 191 c 0
 260 236 296 278 321 315 c 0
 362 375 387 426 387 511 c 0
 387 596 376 686 265 686 c 0
 182 686 143 609 143 536 c 0
 143 474 180 430 242 430 c 1
EndSplineSet
Validated: 1
Substitution2: "'onum' Oldstyle Figures lookup 13 subtable" two.oldstyle
Substitution2: "'pnum' Proportional Numbers in Latin lookup 12 subtable" two.prop
Substitution2: "'dnom' Denominators in Latin lookup 10 subtable" two.denominator
Substitution2: "'sinf' Scientific Inferiors in Latin lookup 9 subtable" two.inferior
Substitution2: "'sups' Superscript in Latin lookup 8 subtable" two.superior
EndChar

StartChar: three
Encoding: 276 51 20
Width: 560
GlyphClass: 2
Flags: MW
HStem: -9 18<228.5 301> 226 39<145 221> 334 56<212.5 230 211 234> 355 20<284 313.5 276 325> 481 34 686 18<239 302.5>
VStem: 48 96<139.5 161.5 104.5 176> 74 90<564.5 598.5> 374 108<521 555 521 581> 389 114<155 198.5 155 237>
LayerCount: 2
Fore
SplineSet
262 9 m 0xde40
 353 9 389 99 389 193 c 0
 389 281 366 355 284 355 c 1xde40
 269 347 245 334 223 334 c 0
 202 334 172 344 172 365 c 0
 172 383 201 390 221 390 c 0xee40
 239 390 260 380 276 375 c 1
 351 375 374 457 374 539 c 0
 374 623 338 686 267 686 c 0
 209 686 164 639 164 584 c 0
 164 545 191 515 229 515 c 1
 226 505 220 496 208 491 c 0
 195 484 181 481 166 481 c 0
 137 481 114 493 101 509 c 0
 85 523 74 548 74 577 c 0
 74 620 99 650 127 670 c 0
 161 692 211 704 267 704 c 0
 361 704 436 672 467 609 c 0
 477 589 482 567 482 543 c 0xdd80
 482 499 464 462 442 437 c 0
 420 409 386 386 347 376 c 1
 347 371 l 1
 414 353 467 311 491 251 c 0
 499 231 503 210 503 187 c 0
 503 123 473 78 435 47 c 0
 394 14 338 -9 264 -9 c 0
 170 -9 99 27 64 87 c 0
 53 107 48 128 48 151 c 0
 48 201 74 242 111 256 c 0
 124 262 138 265 152 265 c 0
 184 265 215 251 221 226 c 1
 174 226 144 186 144 137 c 0
 144 72 195 9 262 9 c 0xde40
EndSplineSet
Validated: 1
Substitution2: "'onum' Oldstyle Figures lookup 13 subtable" three.oldstyle
Substitution2: "'pnum' Proportional Numbers in Latin lookup 12 subtable" three.prop
Substitution2: "'dnom' Denominators in Latin lookup 10 subtable" three.denominator
Substitution2: "'sinf' Scientific Inferiors in Latin lookup 9 subtable" three.inferior
Substitution2: "'sups' Superscript in Latin lookup 8 subtable" three.superior
EndChar

StartChar: four
Encoding: 277 52 21
Width: 560
GlyphClass: 2
Flags: MW
HStem: 0 14<236 257.5 409 429 236 257.5> 167 35<56 289 56 289 32 289 378 493> 684 20G<350 378 378 378>
VStem: 289 89<130 136 136 167 100 167 100 202>
LayerCount: 2
Fore
SplineSet
32 207 m 1
 350 704 l 1
 378 704 l 1
 378 202 l 1
 379 202 494 202 493 202 c 1
 493 202 494 167 493 167 c 2
 378 167 l 1
 378 136 l 2
 378 64 389 14 429 14 c 1
 429 0 l 1
 236 0 l 1
 236 14 l 1
 279 14 289 47 289 130 c 2
 289 167 l 1
 32 167 l 1
 32 207 l 1
288 564 m 1
 211 445 133 321 56 202 c 1
 289 202 l 1
 288 564 l 1
EndSplineSet
Validated: 37
Substitution2: "'onum' Oldstyle Figures lookup 13 subtable" four.oldstyle
Substitution2: "'pnum' Proportional Numbers in Latin lookup 12 subtable" four.prop
Substitution2: "'dnom' Denominators in Latin lookup 10 subtable" four.denominator
Substitution2: "'sinf' Scientific Inferiors in Latin lookup 9 subtable" four.inferior
Substitution2: "'sups' Superscript in Latin lookup 8 subtable" four.superior
EndChar

StartChar: five
Encoding: 278 53 22
Width: 560
GlyphClass: 2
Flags: MW
HStem: -9 18<196.5 237.5> 421 25<265.5 317> 597 91<317.5 359.5> 684 20G<234 234 465 465>
VStem: 44 96 137 27 372 111<233.5 262 186 311.5>
LayerCount: 2
Fore
SplineSet
465 704 m 1xd6
 452 639 394 597 325 597 c 0
 290 597 236 609 236 609 c 1
 187 420 l 1
 182 401 l 1
 206 428 249 446 282 446 c 0
 373 446 442 397 469 330 c 0
 479 304 483 277 483 247 c 0
 483 125 411 49 324 11 c 0
 292 -3 256 -9 219 -9 c 0
 143 -9 86 19 56 65 c 0
 48 81 44 98 44 116 c 0
 44 146 59 167 87 167 c 0
 127 167 131 131 140 99 c 0xea
 149 59 171 9 222 9 c 0
 276 9 310 59 332 96 c 0
 359 137 372 199 372 268 c 0
 372 355 356 421 278 421 c 0
 218 421 182 381 164 331 c 0
 158 316 159 306 145 306 c 0
 131 306 137 312 137 324 c 0
 137 327 137 329 138 331 c 2
 234 704 l 1xd6
 264 693 295 688 340 688 c 0xe6
 396 688 436 693 460 705 c 1
 465 704 l 1xd6
EndSplineSet
Validated: 1
Substitution2: "'onum' Oldstyle Figures lookup 13 subtable" five.oldstyle
Substitution2: "'pnum' Proportional Numbers in Latin lookup 12 subtable" five.prop
Substitution2: "'dnom' Denominators in Latin lookup 10 subtable" five.denominator
Substitution2: "'sinf' Scientific Inferiors in Latin lookup 9 subtable" five.inferior
Substitution2: "'sups' Superscript in Latin lookup 8 subtable" five.superior
EndChar

StartChar: six
Encoding: 279 54 23
Width: 560
GlyphClass: 2
Flags: MW
HStem: -9 18<241 333 241 349.5> 439 20<271 340> 686 18<281.5 365 224.5 367.5>
VStem: 55 103<222 274 274 319 199.5 409.5> 406 103<173.5 279>
LayerCount: 2
Fore
SplineSet
487 607 m 0
 487 578 482 565 446 565 c 0
 388 565 420 686 315 686 c 0
 248 686 208 622 186 582 c 0
 158 532 160 452 160 375 c 1
 162 373 l 1
 194 419 237 459 305 459 c 0
 434 459 509 363 509 234 c 0
 509 95 419 -9 280 -9 c 0
 120 -9 55 140 55 304 c 0
 55 515 118 704 331 704 c 0
 399 704 487 655 487 607 c 0
406 230 m 0
 406 328 384 439 296 439 c 0
 223 439 187 379 158 319 c 1
 158 274 l 2
 158 125 199 9 283 9 c 0
 383 9 406 117 406 230 c 0
EndSplineSet
Validated: 33
Substitution2: "'onum' Oldstyle Figures lookup 13 subtable" six.oldstyle
Substitution2: "'pnum' Proportional Numbers in Latin lookup 12 subtable" six.prop
Substitution2: "'dnom' Denominators in Latin lookup 10 subtable" six.denominator
Substitution2: "'sinf' Scientific Inferiors in Latin lookup 9 subtable" six.inferior
Substitution2: "'sups' Superscript in Latin lookup 8 subtable" six.superior
EndChar

StartChar: seven
Encoding: 280 55 24
Width: 560
GlyphClass: 2
Flags: MW
HStem: -9 21G<175 195> 606 89<227.5 239 239 464>
VStem: 122 20<749 749> 156 82
LayerCount: 2
Fore
SplineSet
184 -9 m 0
 166 -9 156 10 156 28 c 0
 156 33 155 38 157 43 c 0
 157 49 160 57 163 67 c 0
 176 97 189 125 206 161 c 0
 219 184 233 214 252 247 c 0
 271 280 295 319 324 370 c 2
 464 606 l 1
 239 606 l 2
 216 606 196 605 182 603 c 0
 133 600 105 573 91 532 c 2
 77 496 l 1
 59 496 l 1
 122 749 l 1
 142 749 l 1
 140 742 140 730 141 721 c 0
 145 693 184 695 223 695 c 2
 518 695 l 1
 518 683 l 1
 472 579 429 483 389 382 c 2
 328 222 l 2
 305 159 271 68 238 16 c 0
 226 1 206 -9 184 -9 c 0
EndSplineSet
Validated: 33
Substitution2: "'onum' Oldstyle Figures lookup 13 subtable" seven.oldstyle
Substitution2: "'pnum' Proportional Numbers in Latin lookup 12 subtable" seven.prop
Substitution2: "'dnom' Denominators in Latin lookup 10 subtable" seven.denominator
Substitution2: "'sinf' Scientific Inferiors in Latin lookup 9 subtable" seven.inferior
Substitution2: "'sups' Superscript in Latin lookup 8 subtable" seven.superior
EndChar

StartChar: eight
Encoding: 281 56 25
Width: 560
GlyphClass: 2
Flags: MW
HStem: -9 18 686 18
VStem: 60 86<124 199.5> 85 77<518.5 552> 398 75<528.5 573> 417 82<130 188.5>
LayerCount: 2
Fore
SplineSet
281 9 m 0xe4
 373 9 417 90 417 162 c 0
 417 215 389 239 357 264 c 0
 343 275 325 288 304 299 c 2
 231 337 l 1
 174 305 146 247 146 165 c 0
 146 83 180 9 281 9 c 0xe4
337 397 m 1
 434 346 499 273 499 191 c 0
 499 69 401 -10 278 -9 c 0
 155 -8 60 51 60 162 c 0xe4
 60 237 111 299 212 348 c 1
 127 394 85 453 85 524 c 0
 85 580 110 625 142 653 c 0
 179 686 225 704 278 704 c 0
 375 704 473 644 473 544 c 0xd8
 473 513 464 485 445 459 c 0
 426 433 379 417 337 397 c 1
273 686 m 0
 188 685 162 623 162 559 c 0
 162 478 251 444 317 410 c 1
 358 437 398 480 398 540 c 0xd8
 398 606 377 687 273 686 c 0
EndSplineSet
Validated: 33
Substitution2: "'onum' Oldstyle Figures lookup 13 subtable" eight.oldstyle
Substitution2: "'pnum' Proportional Numbers in Latin lookup 12 subtable" eight.prop
Substitution2: "'dnom' Denominators in Latin lookup 10 subtable" eight.denominator
Substitution2: "'sinf' Scientific Inferiors in Latin lookup 9 subtable" eight.inferior
Substitution2: "'sups' Superscript in Latin lookup 8 subtable" eight.superior
EndChar

StartChar: nine
Encoding: 282 57 26
Width: 560
GlyphClass: 2
Flags: MW
HStem: -9 18<199 282.5 196.5 339.5> 236 20<224 293> 686 18<231 323>
VStem: 55 103<416 521.5 416 530.5> 406 103<376 421 421 473 285.5 495.5>
LayerCount: 2
Fore
SplineSet
77 88 m 0
 77 117 82 130 118 130 c 0
 176 130 144 9 249 9 c 0
 316 9 356 73 378 113 c 0
 406 163 404 243 404 320 c 1
 402 322 l 1
 370 276 327 236 259 236 c 0
 130 236 55 332 55 461 c 0
 55 600 145 704 284 704 c 0
 444 704 509 555 509 391 c 0
 509 180 446 -9 233 -9 c 0
 165 -9 77 40 77 88 c 0
158 465 m 0
 158 367 180 256 268 256 c 0
 341 256 377 316 406 376 c 1
 406 421 l 2
 406 570 365 686 281 686 c 0
 181 686 158 578 158 465 c 0
EndSplineSet
Validated: 33
Substitution2: "'onum' Oldstyle Figures lookup 13 subtable" nine.oldstyle
Substitution2: "'pnum' Proportional Numbers in Latin lookup 12 subtable" nine.prop
Substitution2: "'dnom' Denominators in Latin lookup 10 subtable" nine.denominator
Substitution2: "'sinf' Scientific Inferiors in Latin lookup 9 subtable" nine.inferior
Substitution2: "'sups' Superscript in Latin lookup 8 subtable" nine.superior
EndChar

StartChar: colon
Encoding: 283 58 27
Width: 257
GlyphClass: 2
Flags: MW
HStem: -9 118<112 145> 285 118<112 145>
VStem: 70 118<34 66.5 328 360.5>
LayerCount: 2
Fore
SplineSet
128 -9 m 0
 96 -9 70 18 70 50 c 0
 70 83 96 109 128 109 c 0
 162 109 188 84 188 50 c 0
 188 17 162 -9 128 -9 c 0
128 285 m 0
 96 285 70 312 70 344 c 0
 70 377 96 403 128 403 c 0
 162 403 188 378 188 344 c 0
 188 311 162 285 128 285 c 0
EndSplineSet
Validated: 1
EndChar

StartChar: semicolon
Encoding: 284 59 28
Width: 280
GlyphClass: 2
Flags: MW
HStem: 0 109<123 132> 285 118<122.5 155.5>
VStem: 80 119<328 360.5 328 360.5> 154 52<-6 7>
LayerCount: 2
Fore
SplineSet
139 285 m 0xe0
 106 285 80 311 80 344 c 0
 80 377 106 403 139 403 c 0
 172 403 199 377 199 344 c 0
 199 312 172 285 139 285 c 0xe0
80 53 m 0
 80 88 105 109 141 109 c 0
 184 109 206 79 206 19 c 0
 206 -44 177 -80 142 -112 c 0
 127 -126 108 -142 85 -158 c 1
 64 -129 l 1
 96 -106 120 -84 134 -63 c 0
 148 -42 154 -19 154 7 c 1xd0
 146 2 137 0 127 0 c 0
 98 0 80 25 80 53 c 0
EndSplineSet
Validated: 1
EndChar

StartChar: less
Encoding: 285 60 29
Width: 524
GlyphClass: 2
Flags: W
LayerCount: 2
Fore
SplineSet
449 114 m 1
 449 65 l 1
 35 274 l 1
 35 332 l 1
 449 542 l 1
 449 491 l 1
 76 303 l 1
 449 114 l 1
EndSplineSet
Validated: 1
EndChar

StartChar: equal
Encoding: 286 61 30
Width: 559
GlyphClass: 2
Flags: MW
HStem: 205 46<75 485 75 485> 359 45<75 485 75 485>
LayerCount: 2
Fore
SplineSet
485 359 m 1
 75 359 l 1
 75 404 l 1
 485 404 l 1
 485 359 l 1
485 205 m 1
 75 205 l 1
 75 251 l 1
 485 251 l 1
 485 205 l 1
EndSplineSet
Validated: 1
EndChar

StartChar: greater
Encoding: 287 62 31
Width: 524
GlyphClass: 2
Flags: W
LayerCount: 2
Fore
SplineSet
449 303 m 1
 76 491 l 1
 76 542 l 1
 489 332 l 1
 489 274 l 1
 76 65 l 1
 76 114 l 1
 449 303 l 1
EndSplineSet
Validated: 1
EndChar

StartChar: question
Encoding: 288 63 32
Width: 360
GlyphClass: 2
Flags: MW
HStem: -9 118<118 151> 334 87<151 178.5 124 197> 615 89<99.5 190.5>
VStem: 76 118<34 66.5> 124 27<214 334 214 421> 281 27<510 510.5 432 525.5>
LayerCount: 2
Fore
SplineSet
308 478 m 0xec
 308 386 243 334 151 334 c 1
 151 214 l 1
 124 214 l 1
 124 421 l 1
 139 421 l 2
 218 421 282 442 281 510 c 0
 281 541 269 566 256 584 c 0
 246 601 203 615 178 615 c 0
 157 615 131 605 110 605 c 0
 82 605 62 625 62 653 c 0
 62 686 81 704 118 704 c 0
 176 704 222 671 250 635 c 0
 280 598 308 543 308 478 c 0xec
134 -9 m 0
 102 -9 76 18 76 50 c 0
 76 83 102 109 134 109 c 0
 168 109 194 84 194 50 c 0xf4
 194 17 168 -9 134 -9 c 0
EndSplineSet
Validated: 33
Substitution2: "'c2sc' Capitals to Small Capitals in Latin lookup 1 subtable" question.sc
Substitution2: "'smcp' Lowercase to Small Capitals in Latin lookup 0 subtable" question.sc
EndChar

StartChar: at
Encoding: 289 64 33
Width: 928
GlyphClass: 2
Flags: MW
HStem: -121 28<439.5 513.5> -19 20G<788 788> 70 40<384.5 427> 449 38<494 527.5 460.5 528> 458 20G<626 712 712 712> 678 26<455 567 439.5 581.5>
VStem: 47 82<213.5 329.5 213.5 338> 256 89<200.5 255 173.5 261> 831 41<363 424>
LayerCount: 2
Fore
SplineSet
544 173 m 1xef80
 515 124 462 70 392 70 c 0
 348 70 317 89 295 114 c 0
 272 139 256 177 256 224 c 0
 256 298 293 364 332 405 c 0
 369 446 425 487 496 487 c 0xf780
 559 487 588 454 602 399 c 1
 606 398 l 1
 626 478 l 1
 712 478 l 1
 652 264 l 2
 644 230 628 184 628 151 c 0
 628 127 645 115 668 115 c 0
 688 115 707 123 727 137 c 0
 769 172 798 222 817 283 c 0
 827 314 831 347 831 379 c 0
 831 469 792 536 742 582 c 0
 687 629 648 678 515 678 c 0
 395 678 303 614 240 551 c 0
 178 487 129 389 129 270 c 0
 129 157 171 76 231 18 c 0
 291 -38 383 -93 496 -93 c 0
 598 -93 700 -59 788 1 c 1
 799 -15 l 1
 746 -52 694 -79 644 -96 c 0
 594 -113 542 -121 485 -121 c 0
 350 -121 243 -77 170 -11 c 0
 100 50 47 146 47 271 c 0
 47 405 107 510 181 579 c 0
 257 650 369 704 510 704 c 0
 624 704 710 669 772 615 c 0
 830 564 872 485 872 381 c 0
 872 291 842 216 803 162 c 0
 769 116 715 70 643 70 c 0
 585 70 553 103 548 173 c 1
 544 173 l 1xef80
572 356 m 0
 572 408 552 449 504 449 c 0
 484 449 464 442 446 428 c 0
 388 386 345 305 345 205 c 0
 345 142 364 110 405 110 c 0
 455 110 494 156 518 190 c 0
 545 231 572 291 572 356 c 0
EndSplineSet
Validated: 1
Substitution2: "'sups' Superscript in Latin lookup 8 subtable" at.superior
Substitution2: "'c2sc' Capitals to Small Capitals in Latin lookup 1 subtable" at.sc
Substitution2: "'smcp' Lowercase to Small Capitals in Latin lookup 0 subtable" at.sc
EndChar

StartChar: A
Encoding: 290 65 34
Width: 696
GlyphClass: 2
Flags: MW
HStem: 0 13<414 437.5 414 437.5 679 709> 263 23<198 429 198 436 188 429> 675 20G<337 366 366 366>
LayerCount: 2
Fore
SplineSet
414 13 m 1
 461 13 503 37 503 74 c 0
 503 96 498 112 492 128 c 0
 489 135 487 144 482 154 c 2
 436 263 l 1
 188 263 l 1
 171 222 153 174 140 137 c 0
 134 116 129 100 129 79 c 0
 129 39 170 12 214 12 c 1
 214 0 l 1
 -5 0 l 1
 -5 12 l 1
 32 17 65 49 85 76 c 0
 91 84 97 94 102 107 c 2
 337 695 l 1
 366 695 l 1
 571 186 l 2
 585 153 597 126 607 105 c 0
 629 62 649 13 709 13 c 1
 709 0 l 1
 414 0 l 1
 414 13 l 1
198 286 m 1
 429 286 l 1
 311 573 l 1
 198 286 l 1
EndSplineSet
Validated: 1
Substitution2: "'sups' Superscript in Latin lookup 8 subtable" A.superior
Substitution2: "Single Substitution lookup 7 subtable" ordfeminine
Substitution2: "'c2sc' Capitals to Small Capitals in Latin lookup 1 subtable" a.sc
EndChar

StartChar: B
Encoding: 291 66 35
Width: 692
GlyphClass: 2
Flags: MW
HStem: 0 14<34 359 34 34> 0 21<320.5 359> 355 21<237 278 237 288> 674 21<248 253 253 322> 681 14<52 322>
VStem: 143 94<123 124 124 355 376 572 572 589.5> 466 113<510 567.5> 525 122<144 209.5 144 224.5>
LayerCount: 2
Fore
SplineSet
322 695 m 2x35
 458 695 579 653 579 530 c 0x36
 579 490 567 457 542 432 c 0
 518 407 477 386 423 370 c 1
 423 366 l 1
 485 359 527 349 567 323 c 0
 620 285 647 238 647 181 c 0
 647 107 600 52 546 27 c 0
 513 10 478 2 426 2 c 0
 407 0 385 0 359 0 c 2x75
 34 0 l 1
 34 14 l 1
 72 16 105 23 123 41 c 0
 140 56 143 87 143 123 c 2
 143 572 l 2
 143 607 141 635 126 653 c 0
 113 669 83 679 52 681 c 1
 52 695 l 1xad
 322 695 l 2x35
237 124 m 2
 237 44 279 21 362 21 c 0
 471 21 525 86 525 179 c 0x65
 525 270 470 336 382 351 c 0
 349 354 318 355 278 355 c 2
 237 355 l 1
 237 124 l 2
466 519 m 0x36
 466 616 419 674 322 674 c 2
 253 674 l 2
 243 674 237 668 237 658 c 2
 237 376 l 1
 288 376 l 2
 319 376 343 377 367 380 c 0
 430 394 466 444 466 519 c 0x36
EndSplineSet
Validated: 1
Substitution2: "'sups' Superscript in Latin lookup 8 subtable" B.superior
Substitution2: "'c2sc' Capitals to Small Capitals in Latin lookup 1 subtable" b.sc
EndChar

StartChar: C
Encoding: 292 67 36
Width: 723
GlyphClass: 2
Flags: MW
HStem: -9 21<329 447> 0 21G<652 672 652 652> 675 20G<627 647 647 647> 676 28<345.5 444.5 344.5 466.5>
VStem: 54 121<281.5 366 253 394> 637 18<487 487> 652 20<0 225>
LayerCount: 2
Fore
SplineSet
400 704 m 0x9a
 489 704 543 678 606 639 c 1
 627 695 l 1
 647 695 l 1x2a
 655 487 l 1
 637 487 l 1
 611 584 525 676 408 676 c 0
 283 676 217 576 191 474 c 0
 180 435 175 391 175 341 c 0
 175 165 244 12 411 12 c 0x9c
 544 12 621 101 654 225 c 1
 672 225 l 1
 672 0 l 1
 652 0 l 1x4a
 619 71 l 1
 556 18 504 -9 390 -9 c 0
 268 -9 200 27 146 85 c 1
 89 140 54 227 54 336 c 0
 54 452 93 541 150 602 c 0
 207 661 289 704 400 704 c 0x9a
EndSplineSet
Validated: 1
Substitution2: "'sups' Superscript in Latin lookup 8 subtable" C.superior
Substitution2: "'c2sc' Capitals to Small Capitals in Latin lookup 1 subtable" c.sc
EndChar

StartChar: D
Encoding: 293 68 37
Width: 797
GlyphClass: 2
Flags: MW
HStem: 0 14<34 34 34 387> 0 21<327.5 387> 674 21<248 253 253 367> 681 14<52 369>
VStem: 143 94<123 124 124 572 572 589.5> 627 118<282.5 392 282.5 427>
LayerCount: 2
Fore
SplineSet
34 0 m 1x8c
 34 14 l 1
 72 16 104 23 123 40 c 0
 140 57 143 85 143 123 c 2
 143 572 l 2
 143 607 141 636 126 653 c 0
 115 671 83 679 52 681 c 1
 52 695 l 1x9c
 369 695 l 2
 485 695 576 652 639 593 c 0
 699 535 745 448 745 336 c 0
 745 229 702 148 644 94 c 0
 586 38 497 0 387 0 c 2x6c
 34 0 l 1x8c
372 21 m 0x6c
 546 21 627 155 627 334 c 0
 627 520 551 674 367 674 c 2
 253 674 l 2
 243 674 237 668 237 658 c 2
 237 124 l 2
 237 55 283 21 372 21 c 0x6c
EndSplineSet
Validated: 1
Substitution2: "'sups' Superscript in Latin lookup 8 subtable" D.superior
Substitution2: "'c2sc' Capitals to Small Capitals in Latin lookup 1 subtable" d.sc
EndChar

StartChar: E
Encoding: 294 69 38
Width: 655
GlyphClass: 2
Flags: MW
HStem: 0 14<41 601 41 41> 0 21<359.5 429 359.5 601> 353 21<235 251.5> 536 21G<560 579 560 560> 674 21<245 250 250 365> 681 14<50 571>
VStem: 140 95<126 353 374 569 569 586> 404 18<239 271.5 439.5 486> 560 19<536 536> 595 20<178 178>
LayerCount: 2
Fore
SplineSet
235 374 m 1x3bc0
 331 374 404 393 404 486 c 1
 422 486 l 1
 422 239 l 1
 404 239 l 1
 404 304 374 334 318 346 c 0
 296 350 268 353 235 353 c 1
 235 124 l 2
 235 85 243 57 267 43 c 0
 294 23 334 21 385 21 c 0x7bc0
 473 21 544 55 573 112 c 0
 582 129 589 152 595 178 c 1
 615 178 l 1
 601 0 l 1
 41 0 l 1
 41 14 l 1
 76 16 105 27 122 44 c 0
 138 60 140 91 140 126 c 2
 140 569 l 2
 140 603 139 634 125 650 c 0
 110 667 83 679 50 681 c 1
 50 695 l 1
 571 695 l 1xb7c0
 579 536 l 1
 560 536 l 1
 543 637 484 674 365 674 c 2
 250 674 l 2
 240 674 235 669 235 659 c 2
 235 374 l 1x3bc0
EndSplineSet
Validated: 1
Substitution2: "'sups' Superscript in Latin lookup 8 subtable" E.superior
Substitution2: "'c2sc' Capitals to Small Capitals in Latin lookup 1 subtable" e.sc
EndChar

StartChar: F
Encoding: 295 70 39
Width: 604
GlyphClass: 2
Flags: MW
HStem: 0 14<41 360 41 41> 333 25<235 261.5> 457 20G<404 422 422 422> 674 21<245 250 250 365> 681 14<50 571>
VStem: 140 95<127 134 134 333 358 572 572 589> 404 18<212 477 212 477> 563 18<523 523>
LayerCount: 2
Fore
SplineSet
235 134 m 2xf7
 235 93 235 62 256 46 c 0
 278 26 316 16 360 14 c 1
 360 0 l 1
 41 0 l 1
 41 14 l 1
 76 16 105 28 122 45 c 0
 138 61 140 92 140 127 c 2
 140 572 l 2
 140 606 139 637 125 653 c 0
 110 670 83 679 50 681 c 1
 50 695 l 1
 571 695 l 1xef
 581 523 l 1
 563 523 l 1
 556 572 538 613 507 635 c 0
 476 657 421 674 365 674 c 2
 250 674 l 2
 240 674 235 670 235 660 c 2
 235 358 l 1
 312 358 362 372 387 421 c 0
 394 435 402 454 404 477 c 1
 422 477 l 1
 422 212 l 1
 404 212 l 1
 398 255 376 292 346 309 c 0
 316 328 288 333 235 333 c 1
 235 134 l 2xf7
EndSplineSet
Validated: 1
Substitution2: "'sups' Superscript in Latin lookup 8 subtable" F.superior
Substitution2: "'c2sc' Capitals to Small Capitals in Latin lookup 1 subtable" f.sc
EndChar

StartChar: G
Encoding: 296 71 40
Width: 785
GlyphClass: 2
Flags: MW
HStem: -9 21<332 439.5> 273 18<505 538.5 735 761> 675 20G<639 656 656 656> 685 19<345 444.5 345 464>
VStem: 54 121<282 393.5> 595 92<146 176 75 201.5> 626 18<487 541.5>
LayerCount: 2
Fore
SplineSet
400 704 m 0xdc
 489 704 543 678 606 639 c 1
 639 695 l 1
 656 695 l 1
 644 487 l 1
 626 487 l 1xea
 626 596 520 685 408 685 c 0
 230 685 175 505 175 341 c 0
 175 165 244 12 411 12 c 0
 481 12 517 40 551 63 c 0
 576 84 595 125 595 167 c 0
 595 236 572 273 505 273 c 1
 505 291 l 1
 761 291 l 1
 761 273 l 1
 709 273 687 230 687 176 c 2
 687 75 l 1
 675 75 665 75 655 74 c 0
 625 71 585 41 549 23 c 0
 506 1 493 -9 386 -9 c 0
 278 -9 198 28 144 85 c 0
 88 141 54 228 54 336 c 0
 54 451 94 540 150 602 c 0
 206 662 290 704 400 704 c 0xdc
EndSplineSet
Validated: 1
Substitution2: "'sups' Superscript in Latin lookup 8 subtable" G.superior
Substitution2: "'c2sc' Capitals to Small Capitals in Latin lookup 1 subtable" g.sc
EndChar

StartChar: H
Encoding: 297 72 41
Width: 834
GlyphClass: 2
Flags: MW
HStem: 0 14<41 333 41 41> 344 23<235 600 235 600> 681 14<50 324 50 324>
VStem: 140 95<127 134 134 344 367 561> 600 95<127 134 134 344 344 344 367 561>
LayerCount: 2
Fore
SplineSet
695 134 m 2
 695 78 709 48 742 27 c 0
 760 16 772 15 793 14 c 1
 793 0 l 1
 501 0 l 1
 501 14 l 1
 554 17 587 32 597 76 c 0
 600 90 600 106 600 127 c 2
 600 344 l 1
 235 344 l 1
 235 134 l 2
 235 77 238 45 268 29 c 0
 287 19 312 15 333 14 c 1
 333 0 l 1
 41 0 l 1
 41 14 l 1
 76 16 105 28 122 45 c 0
 138 61 140 92 140 127 c 2
 140 568 l 2
 140 602 139 633 125 649 c 0
 110 666 83 679 50 681 c 1
 50 695 l 1
 324 695 l 1
 324 681 l 1
 273 678 244 662 238 617 c 0
 235 603 235 584 235 561 c 2
 235 367 l 1
 600 367 l 1
 600 568 l 2
 600 606 598 630 585 649 c 0
 570 666 543 679 510 681 c 1
 510 695 l 1
 784 695 l 1
 784 681 l 1
 753 679 724 667 711 649 c 0
 705 640 701 631 699 617 c 0
 696 603 695 584 695 561 c 2
 695 134 l 2
EndSplineSet
Validated: 1
Substitution2: "'sups' Superscript in Latin lookup 8 subtable" H.superior
Substitution2: "'c2sc' Capitals to Small Capitals in Latin lookup 1 subtable" h.sc
EndChar

StartChar: I
Encoding: 298 73 42
Width: 374
GlyphClass: 2
Flags: MW
HStem: 0 14<41 333 41 41> 681 14<50 324 50 324>
VStem: 140 95<144 151 151 544>
LayerCount: 2
Fore
SplineSet
235 151 m 2
 235 99 234 66 253 39 c 0
 266 17 298 16 333 14 c 1
 333 0 l 1
 41 0 l 1
 41 14 l 1
 78 16 106 19 122 39 c 0
 140 62 140 98 140 144 c 2
 140 551 l 2
 140 593 139 629 125 653 c 0
 111 673 84 679 50 681 c 1
 50 695 l 1
 324 695 l 1
 324 681 l 1
 291 679 263 672 251 652 c 0
 245 642 240 628 238 611 c 0
 235 594 235 571 235 544 c 2
 235 151 l 2
EndSplineSet
Validated: 33
Substitution2: "'sups' Superscript in Latin lookup 8 subtable" I.superior
Substitution2: "'c2sc' Capitals to Small Capitals in Latin lookup 1 subtable" i.sc
EndChar

StartChar: J
Encoding: 299 74 43
Width: 355
GlyphClass: 2
Flags: MW
HStem: -235 24<25.5 71 25.5 104> 681 14<41 315 41 315>
VStem: 131 95<-39 -2 -2 571>
LayerCount: 2
Fore
SplineSet
-53 -99 m 0
 19 -99 -8 -211 59 -211 c 0
 83 -211 103 -198 117 -172 c 0
 131 -146 131 -88 131 -39 c 2
 131 578 l 2
 131 614 129 641 116 659 c 0
 101 676 74 679 41 681 c 1
 41 695 l 1
 315 695 l 1
 315 681 l 1
 264 678 235 672 229 627 c 0
 226 613 226 594 226 571 c 2
 226 -2 l 2
 226 -141 170 -235 38 -235 c 0
 -19 -235 -99 -203 -99 -147 c 0
 -99 -117 -83 -99 -53 -99 c 0
EndSplineSet
Validated: 1
Substitution2: "'sups' Superscript in Latin lookup 8 subtable" J.superior
Substitution2: "'c2sc' Capitals to Small Capitals in Latin lookup 1 subtable" j.sc
EndChar

StartChar: K
Encoding: 300 75 44
Width: 703
GlyphClass: 2
Flags: MW
HStem: 0 14<41 68.5 315 333 41 68.5 438 449.5 689.5 715> 681 14<50 74.5 308.5 324>
VStem: 140 95<117 124 124 279 313 570>
LayerCount: 2
Fore
SplineSet
235 124 m 2
 235 83 236 54 253 34 c 0
 268 17 297 14 333 14 c 1
 333 0 l 1
 41 0 l 1
 41 14 l 1
 96 14 126 21 136 65 c 0
 139 79 140 96 140 117 c 2
 140 577 l 2
 140 600 139 618 135 631 c 0
 123 671 99 681 50 681 c 1
 50 695 l 1
 324 695 l 1
 324 681 l 1
 293 681 266 678 253 661 c 0
 235 641 235 612 235 570 c 2
 235 313 l 1
 474 603 l 2
 486 618 492 630 492 638 c 0
 492 655 476 680 427 681 c 1
 427 695 l 1
 644 695 l 1
 644 682 l 1
 580 682 558 670 525 635 c 2
 356 423 l 1
 619 61 l 1
 646 31 664 14 715 14 c 1
 715 0 l 1
 438 0 l 1
 438 14 l 1
 461 14 478 16 488 20 c 0
 498 25 504 31 504 39 c 0
 504 44 501 50 496 59 c 0
 491 68 484 79 473 93 c 2
 288 342 l 1
 235 279 l 1
 235 124 l 2
EndSplineSet
Validated: 1
Substitution2: "'sups' Superscript in Latin lookup 8 subtable" K.superior
Substitution2: "'c2sc' Capitals to Small Capitals in Latin lookup 1 subtable" k.sc
EndChar

StartChar: L
Encoding: 301 76 45
Width: 656
GlyphClass: 2
Flags: MW
HStem: 0 14<41 624 41 41> 0 21<379 426.5 379 624> 681 14<50 324 50 324>
VStem: 140 95<117 126 126 571> 619 18<178 178>
LayerCount: 2
Fore
SplineSet
624 0 m 1xb8
 41 0 l 1
 41 14 l 1xb8
 76 16 105 18 122 35 c 0
 138 51 140 82 140 117 c 2
 140 578 l 2
 140 612 139 643 125 659 c 0
 110 676 83 679 50 681 c 1
 50 695 l 1
 324 695 l 1
 324 681 l 1
 273 678 244 672 238 627 c 0
 235 613 235 594 235 571 c 2
 235 126 l 2
 235 51 255 37 318 25 c 0
 339 22 363 21 395 21 c 0x78
 458 21 504 36 542 57 c 1
 576 82 608 126 619 178 c 1
 637 178 l 1
 624 0 l 1xb8
EndSplineSet
Validated: 1
Substitution2: "'sups' Superscript in Latin lookup 8 subtable" L.superior
Substitution2: "'c2sc' Capitals to Small Capitals in Latin lookup 1 subtable" l.sc
EndChar

StartChar: M
Encoding: 302 77 46
Width: 943
GlyphClass: 2
Flags: MW
HStem: -9 21G<432 442 432 432> 0 14<41 282 41 41> 681 14<50 250>
VStem: 144 26<144 151 151 541 541 562> 709 95<144 151 151 534>
LayerCount: 2
Fore
SplineSet
491 162 m 1x78
 726 695 l 1
 893 695 l 1
 893 681 l 1
 836 679 814 648 806 608 c 0
 803 591 804 561 804 534 c 2
 804 151 l 2
 804 87 803 31 852 20 c 0
 865 17 881 15 902 14 c 1
 902 0 l 1
 610 0 l 1
 610 14 l 1x78
 669 17 697 26 706 77 c 0
 709 93 709 116 709 144 c 2
 709 593 l 1
 705 593 l 1
 442 -9 l 1
 432 -9 l 1xb8
 173 593 l 1
 170 593 l 1
 170 151 l 2
 170 87 183 31 232 20 c 0
 245 17 261 15 282 14 c 1
 282 0 l 1
 41 0 l 1
 41 14 l 1
 78 16 100 19 116 39 c 0
 134 62 144 98 144 144 c 2
 144 541 l 2
 144 583 133 629 119 653 c 0
 105 673 84 679 50 681 c 1
 50 695 l 1
 250 695 l 1
 478 162 l 1
 491 162 l 1x78
EndSplineSet
Validated: 33
Substitution2: "'sups' Superscript in Latin lookup 8 subtable" M.superior
Substitution2: "'c2sc' Capitals to Small Capitals in Latin lookup 1 subtable" m.sc
EndChar

StartChar: N
Encoding: 303 78 47
Width: 802
GlyphClass: 2
Flags: MW
HStem: -9 21G<620 620 620 657> 0 14<41 277 41 41> 681 14<50 222>
VStem: 149 21<144 151 151 541 541 562> 636 21<169 534 534 541 -9 559>
LayerCount: 2
Fore
SplineSet
620 -9 m 1xb8
 183 566 l 1
 170 566 l 1
 170 151 l 2
 170 89 186 32 230 20 c 0
 243 17 258 15 277 14 c 1
 277 0 l 1
 41 0 l 1
 41 14 l 1x78
 78 16 106 19 122 39 c 0
 140 62 149 98 149 144 c 2
 149 541 l 2
 149 583 139 619 125 643 c 0
 111 663 84 679 50 681 c 1
 50 695 l 1
 222 695 l 1
 622 169 l 1
 636 169 l 1
 636 534 l 2
 636 584 635 618 618 646 c 0
 607 667 570 679 537 681 c 1
 537 695 l 1
 768 695 l 1
 768 681 l 1
 709 678 669 659 660 608 c 0
 657 591 657 569 657 541 c 2
 657 -9 l 1
 620 -9 l 1xb8
EndSplineSet
Validated: 1
Substitution2: "'sups' Superscript in Latin lookup 8 subtable" N.superior
Substitution2: "'c2sc' Capitals to Small Capitals in Latin lookup 1 subtable" n.sc
EndChar

StartChar: O
Encoding: 304 79 48
Width: 853
GlyphClass: 2
Flags: MW
HStem: -9 18<352.5 494.5> 686 18<369.5 484.5 369.5 518>
VStem: 51 118<287.5 398.5> 685 117<316 399 287 431>
LayerCount: 2
Fore
SplineSet
427 704 m 0
 542 704 633 658 694 599 c 0
 755 540 802 456 802 342 c 0
 802 232 753 152 693 94 c 0
 633 36 562 -9 427 -9 c 0
 278 -9 221 36 161 94 c 0
 101 150 51 233 51 342 c 0
 51 455 100 541 160 599 c 0
 221 658 312 704 427 704 c 0
427 9 m 0
 580 9 633 114 667 215 c 0
 679 253 685 293 685 339 c 0
 685 523 609 686 427 686 c 0
 256 686 169 512 169 339 c 0
 169 160 249 9 427 9 c 0
EndSplineSet
Validated: 1
Substitution2: "'sups' Superscript in Latin lookup 8 subtable" O.superior
Substitution2: "Single Substitution lookup 7 subtable" ordmasculine
Substitution2: "'c2sc' Capitals to Small Capitals in Latin lookup 1 subtable" o.sc
EndChar

StartChar: P
Encoding: 305 80 49
Width: 620
GlyphClass: 2
Flags: MW
HStem: 0 14<337 359 41 41> 328 21<235 279 279 316 235 279> 674 21<245 250 250 303> 681 14<50 333>
VStem: 140 95<123 128 128 328 349 572 572 589> 477 117<454 548.5 442.5 560.5>
LayerCount: 2
Fore
SplineSet
594 521 m 0xec
 594 364 458 328 316 328 c 2
 235 328 l 1
 235 128 l 2
 235 86 236 58 256 40 c 0
 275 21 315 14 359 14 c 1
 359 0 l 1
 41 0 l 1
 41 14 l 1
 76 16 105 24 122 41 c 0
 138 57 140 88 140 123 c 2
 140 572 l 2
 140 606 139 637 125 653 c 0
 110 670 83 679 50 681 c 1
 50 695 l 1xdc
 333 695 l 2
 416 695 480 680 525 649 c 0
 571 618 594 576 594 521 c 0xec
477 510 m 0
 477 611 403 674 303 674 c 2
 250 674 l 2xec
 240 674 235 668 235 658 c 2
 235 349 l 1
 279 349 l 2
 394 349 477 398 477 510 c 0
EndSplineSet
Validated: 1
Substitution2: "'sups' Superscript in Latin lookup 8 subtable" P.superior
Substitution2: "'c2sc' Capitals to Small Capitals in Latin lookup 1 subtable" p.sc
EndChar

StartChar: Q
Encoding: 306 81 50
Width: 855
GlyphClass: 2
Flags: HMW
HStem: -217 72<690 724> -26 18<405 405> 686 18<370.5 485.5 370.5 516>
VStem: 52 118<285 363 248 396> 686 117<279 397 279 429>
LayerCount: 2
Fore
SplineSet
451 -26 m 1
 451 -26 l 2
 450.797851562 -26.8095703125 614.45842449 -145 717 -145 c 0
 766.686308203 -145 796.713926767 -129.286910776 816 -65 c 1
 833 -65 l 1
 835 -76 836 -91 836 -103 c 0
 836 -149 764 -217 684 -217 c 0
 623.150284707 -217 573.546585352 -203.724008475 436 -120 c 0
 413 -107 389 -105 366 -105 c 0
 306.211303868 -105 296.163055106 -170 255 -170 c 0
 238 -170 228 -162 228 -147 c 0
 228 -136 230 -132 238 -126 c 0
 250 -111 267 -105 288 -93 c 2
 405 -26 l 1
 293 -22 212 24 153 85 c 0
 95 143 52 231 52 339 c 0
 52 548.856381236 219.87478726 704 428 704 c 0
 638.557541725 704 803 546.620123159 803 341 c 0
 803 217 745.164520673 128.106916523 676 66 c 0
 591.581115735 -9.80471240154 534 -11 453 -26 c 5
 453 -26 451.000976562 -26.0009765625 451 -26 c 1
428 686 m 0
 264.567073518 686 170 511.936027216 170 339 c 0
 170 157 249 -8 428 -8 c 0
 598 -8 686 165 686 339 c 0
 686 519 604 686 428 686 c 0
EndSplineSet
Validated: 33
Substitution2: "'sups' Superscript in Latin lookup 8 subtable" Q.superior
Substitution2: "'c2sc' Capitals to Small Capitals in Latin lookup 1 subtable" q.sc
EndChar

StartChar: R
Encoding: 307 82 51
Width: 711
GlyphClass: 2
Flags: MW
HStem: 0 14<337 359 41 41> 343 21<235 271 235 279> 674 21<245 250 250 303> 681 14<50 333>
VStem: 140 95<121 126 126 343 364 572 572 589> 477 117<464 548.5 464 565>
LayerCount: 2
Fore
SplineSet
594 521 m 0xec
 594 407 520 358 412 339 c 1
 612 86 l 2
 644 46 678 25 736 14 c 1
 736 0 l 1
 561 0 l 1
 332 293 l 2
 318 311 317 323 296 337 c 0
 289 341 280 341 271 343 c 2
 235 343 l 1
 235 126 l 2
 235 84 236 56 256 38 c 0
 275 19 315 14 359 14 c 1
 359 0 l 1
 41 0 l 1
 41 14 l 1
 76 16 105 22 122 39 c 0
 138 55 140 86 140 121 c 2
 140 572 l 2
 140 606 139 637 125 653 c 0
 110 670 83 679 50 681 c 1
 50 695 l 1xdc
 333 695 l 2
 416 695 480 680 525 649 c 0
 571 618 594 576 594 521 c 0xec
477 516 m 0
 477 614 402 674 303 674 c 2
 250 674 l 2xec
 240 674 235 668 235 658 c 2
 235 364 l 1
 279 364 l 2
 390 364 477 408 477 516 c 0
EndSplineSet
Validated: 1
Substitution2: "'sups' Superscript in Latin lookup 8 subtable" R.superior
Substitution2: "'c2sc' Capitals to Small Capitals in Latin lookup 1 subtable" r.sc
EndChar

StartChar: S
Encoding: 308 83 52
Width: 582
GlyphClass: 2
Flags: MW
HStem: -9 21<247.5 306> 683 21<268 314 268 333.5>
VStem: 52 18<212 212> 81 85<541.5 559> 435 98<143.5 185> 464 17<512 512>
LayerCount: 2
Fore
SplineSet
70 212 m 1xf8
 89 109 170 12 291 12 c 0
 371 12 435 77 435 154 c 0xf8
 435 216 397 241 354 267 c 0
 333 279 308 290 277 304 c 0
 214 331 162 357 123 398 c 0
 95 428 81 459 81 513 c 0
 81 605 135 665 202 690 c 0
 226 700 253 704 283 704 c 0
 345 704 388 683 427 651 c 1
 454 691 l 1
 471 691 l 1
 481 512 l 1
 464 512 l 1xf4
 440 596 381 683 286 683 c 0
 218 683 166 623 166 558 c 0
 166 525 177 504 197 486 c 0
 226 457 259 442 304 421 c 0
 376 388 438 359 486 314 c 0
 516 282 533 252 533 196 c 0
 533 91 466 34 387 5 c 0
 357 -4 324 -9 288 -9 c 0
 207 -9 161 13 112 54 c 1
 82 10 l 1
 66 10 l 1
 52 212 l 1
 70 212 l 1xf8
EndSplineSet
Validated: 1
Substitution2: "'sups' Superscript in Latin lookup 8 subtable" S.superior
Substitution2: "'c2sc' Capitals to Small Capitals in Latin lookup 1 subtable" s.sc
EndChar

StartChar: T
Encoding: 309 84 53
Width: 724
GlyphClass: 2
Flags: MW
HStem: 0 14<191 533 191 191> 534 21G<19 33 19 19 695 695 695 709> 674 21<182 229.5 506.5 543>
VStem: 19 14<534 534> 309 107<125 646> 695 14<534 534>
LayerCount: 2
Fore
SplineSet
309 646 m 2
 309 667 289 671 266 673 c 0
 254 673 239 674 220 674 c 0
 144 674 79 660 54 609 c 0
 45 591 34 566 33 534 c 1
 19 534 l 1
 32 695 l 1
 700 695 l 1
 709 534 l 1
 695 534 l 1
 691 582 674 625 646 646 c 0
 620 668 568 674 518 674 c 0
 495 674 478 673 464 673 c 0
 439 669 416 671 416 646 c 2
 416 125 l 2
 416 106 417 90 421 76 c 0
 428 26 474 16 533 14 c 1
 533 0 l 1
 191 0 l 1
 191 14 l 1
 234 16 269 21 289 41 c 0
 304 60 309 89 309 125 c 2
 309 646 l 2
EndSplineSet
Validated: 1
Substitution2: "'sups' Superscript in Latin lookup 8 subtable" T.superior
Substitution2: "'c2sc' Capitals to Small Capitals in Latin lookup 1 subtable" t.sc
EndChar

StartChar: U
Encoding: 310 85 54
Width: 777
GlyphClass: 2
Flags: MW
HStem: -9 21<353 469 353 486> 681 14<26 58.5 315.5 334 489 498.5 732.5 751>
VStem: 126 109<226 495> 609 32<225 260 260 472>
LayerCount: 2
Fore
SplineSet
417 12 m 0
 521 12 609 101 609 225 c 2
 609 472 l 2
 609 525 607 576 602 604 c 0
 594 647 575 671 536 677 c 0
 523 680 508 681 489 681 c 1
 489 695 l 1
 751 695 l 1
 751 681 l 1
 714 681 682 677 667 656 c 0
 658 643 648 624 645 598 c 0
 642 571 641 522 641 472 c 2
 641 260 l 2
 641 103 580 -9 392 -9 c 0
 304 -9 238 7 192 47 c 0
 145 90 126 135 126 226 c 2
 126 495 l 1
 126 608 l 2
 126 656 91 681 26 681 c 1
 26 695 l 1
 334 695 l 1
 334 681 l 1
 297 681 272 678 255 659 c 0
 234 635 235 615 235 495 c 2
 235 219 l 2
 235 91 289 12 417 12 c 0
EndSplineSet
Validated: 33
Substitution2: "'sups' Superscript in Latin lookup 8 subtable" U.superior
Substitution2: "'c2sc' Capitals to Small Capitals in Latin lookup 1 subtable" u.sc
EndChar

StartChar: V
Encoding: 311 86 55
Width: 707
GlyphClass: 2
Flags: MW
HStem: -9 21G<340 356 340 340> 681 14<-12 283 263.5 283>
LayerCount: 2
Fore
SplineSet
283 681 m 1
 244 681 200 668 200 632 c 0
 200 624 202 614 205 602 c 0
 208 591 214 575 222 554 c 2
 391 138 l 1
 552 540 l 2
 565 574 576 591 576 626 c 0
 576 665 542 682 496 682 c 1
 496 695 l 1
 715 695 l 1
 715 682 l 1
 677 677 633 661 618 636 c 0
 613 628 605 611 600 598 c 2
 356 -9 l 1
 340 -9 l 1
 107 563 l 2
 82 619 63 676 -12 681 c 1
 -12 695 l 1
 283 695 l 1
 283 681 l 1
EndSplineSet
Validated: 1
Substitution2: "'sups' Superscript in Latin lookup 8 subtable" V.superior
Substitution2: "'c2sc' Capitals to Small Capitals in Latin lookup 1 subtable" v.sc
EndChar

StartChar: W
Encoding: 312 87 56
Width: 1061
GlyphClass: 2
Flags: MW
HStem: -9 21G<315 335 315 315 712 732 712 712> 681 14<-10 10 260 284 419 436.5 675 695>
LayerCount: 2
Fore
SplineSet
695 681 m 1
 655 681 613 682 613 644 c 0
 613 613 623 582 632 552 c 2
 763 142 l 1
 908 538 l 2
 921 574 931 605 931 640 c 0
 931 678 890 682 849 682 c 1
 849 695 l 1
 1069 695 l 1
 1069 682 l 1
 1007 682 976 656 958 608 c 2
 732 -9 l 1
 712 -9 l 1
 533 528 l 1
 335 -9 l 1
 315 -9 l 1
 127 519 l 2
 109 567 95 615 70 648 c 0
 50 670 30 681 -10 681 c 1
 -10 695 l 1
 284 695 l 1
 284 681 l 1
 236 681 201 679 201 640 c 0
 201 617 208 588 216 567 c 2
 369 143 l 1
 484 461 l 2
 499 500 511 525 523 563 c 1
 515 591 504 646 486 664 c 0
 476 674 454 681 419 681 c 1
 419 695 l 1
 695 695 l 1
 695 681 l 1
EndSplineSet
Validated: 33
Substitution2: "'sups' Superscript in Latin lookup 8 subtable" W.superior
Substitution2: "'c2sc' Capitals to Small Capitals in Latin lookup 1 subtable" w.sc
EndChar

StartChar: X
Encoding: 313 88 57
Width: 738
GlyphClass: 2
Flags: MW
HStem: 0 14<2 40 239 253 2 40 434 447.5 719.5 742> 681 14<25 54 305.5 325 456 476 678.5 704>
LayerCount: 2
Fore
SplineSet
533 624 m 0
 533 660 496 681 456 681 c 1
 456 695 l 1
 704 695 l 1
 704 681 l 1
 653 681 616 657 590 629 c 0
 578 616 564 599 548 578 c 2
 405 391 l 1
 627 88 l 2
 658 45 697 14 742 14 c 1
 742 0 l 1
 434 0 l 1
 434 14 l 1
 461 14 494 17 503 22 c 0
 514 27 529 43 529 52 c 0
 529 57 528 61 528 65 c 0
 517 94 502 117 483 145 c 2
 353 324 l 1
 267 211 l 2
 239 172 210 133 184 97 c 0
 173 81 168 71 168 51 c 0
 168 42 185 24 195 20 c 0
 205 16 225 14 253 14 c 1
 253 0 l 1
 2 0 l 1
 2 14 l 1
 78 14 126 64 162 108 c 2
 339 344 l 1
 143 611 l 2
 117 648 83 681 25 681 c 1
 25 695 l 1
 325 695 l 1
 325 681 l 1
 286 681 250 647 250 624 c 0
 250 609 259 588 276 564 c 2
 389 407 l 1
 487 535 l 2
 511 565 533 598 533 624 c 0
EndSplineSet
Validated: 1
Substitution2: "'sups' Superscript in Latin lookup 8 subtable" X.superior
Substitution2: "'c2sc' Capitals to Small Capitals in Latin lookup 1 subtable" x.sc
EndChar

StartChar: Y
Encoding: 314 89 58
Width: 661
GlyphClass: 2
Flags: MW
HStem: 0 14<184 202 466 477 184 202> 681 14<-5 26.5 265 280 459 470 637 665>
VStem: 283 95<164 171 139.5 274>
LayerCount: 2
Fore
SplineSet
103 593 m 2
 78 635 58 681 -5 681 c 1
 -5 695 l 1
 280 695 l 1
 280 681 l 1
 250 681 225 678 213 673 c 0
 200 669 194 662 194 650 c 0
 194 637 203 609 217 586 c 2
 361 337 l 1
 368 337 l 1
 470 511 l 2
 522 598 531 612 533 650 c 0
 534 662 523 669 514 673 c 0
 506 678 481 681 459 681 c 1
 459 695 l 1
 665 695 l 1
 665 681 l 1
 609 681 573 651 551 612 c 0
 540 593 522 559 503 527 c 2
 377 312 l 1
 378 171 l 2
 378 108 376 31 424 20 c 0
 438 16 455 14 477 14 c 1
 477 0 l 1
 184 0 l 1
 184 14 l 1
 220 14 252 18 265 38 c 0
 283 63 283 116 283 164 c 2
 283 274 l 1
 103 593 l 2
EndSplineSet
Validated: 33
Substitution2: "'sups' Superscript in Latin lookup 8 subtable" Y.superior
Substitution2: "'c2sc' Capitals to Small Capitals in Latin lookup 1 subtable" y.sc
EndChar

StartChar: Z
Encoding: 315 90 59
Width: 695
GlyphClass: 2
Flags: MW
HStem: 0 21<150 433 433 501> 529 21G<69 87 69 69> 674 21<203.5 250 250 501>
VStem: 69 18<529 529> 634 18<212 212>
LayerCount: 2
Fore
SplineSet
250 674 m 2
 157 674 102 615 87 529 c 1
 69 529 l 1
 82 695 l 1
 632 695 l 1
 632 691 l 1
 150 21 l 1
 433 21 l 2
 569 21 617 93 634 212 c 1
 652 212 l 1
 641 0 l 1
 14 0 l 1
 14 4 l 1
 501 674 l 1
 250 674 l 2
EndSplineSet
Validated: 1
Substitution2: "'sups' Superscript in Latin lookup 8 subtable" Z.superior
Substitution2: "'c2sc' Capitals to Small Capitals in Latin lookup 1 subtable" z.sc
EndChar

StartChar: bracketleft
Encoding: 316 91 60
Width: 334
GlyphClass: 2
Flags: MW
HStem: -170 42<178 314 178 314> 707 42<178 178 178 314>
VStem: 97 81<-128 707 -128 749 -128 749>
LayerCount: 2
Fore
SplineSet
178 707 m 1
 178 -128 l 1
 314 -128 l 1
 314 -170 l 1
 97 -170 l 1
 97 749 l 1
 314 749 l 1
 314 707 l 1
 178 707 l 1
EndSplineSet
Validated: 1
Substitution2: "'sups' Superscript in Latin lookup 8 subtable" bracketleft.superior
Substitution2: "'c2sc' Capitals to Small Capitals in Latin lookup 1 subtable" bracketleft.sc
Substitution2: "'smcp' Lowercase to Small Capitals in Latin lookup 0 subtable" bracketleft.sc
EndChar

StartChar: backslash
Encoding: 317 92 61
Width: 415
GlyphClass: 2
Flags: MW
HStem: 0 21G<337 389 337 337> 675 20G<26 70 70 70>
LayerCount: 2
Fore
SplineSet
26 695 m 1
 70 695 l 1
 389 0 l 1
 337 0 l 1
 26 695 l 1
EndSplineSet
Validated: 1
Substitution2: "'sups' Superscript in Latin lookup 8 subtable" backslash.superior
Substitution2: "'c2sc' Capitals to Small Capitals in Latin lookup 1 subtable" backslash.sc
Substitution2: "'smcp' Lowercase to Small Capitals in Latin lookup 0 subtable" backslash.sc
EndChar

StartChar: bracketright
Encoding: 318 93 62
Width: 334
GlyphClass: 2
Flags: MW
HStem: -170 42<21 157 21 238 21 157> 707 42<21 157 21 238>
VStem: 157 81<-128 707 707 707>
LayerCount: 2
Fore
SplineSet
157 -128 m 1
 157 707 l 1
 21 707 l 1
 21 749 l 1
 238 749 l 1
 238 -170 l 1
 21 -170 l 1
 21 -128 l 1
 157 -128 l 1
EndSplineSet
Validated: 1
Substitution2: "'sups' Superscript in Latin lookup 8 subtable" bracketright.superior
Substitution2: "'c2sc' Capitals to Small Capitals in Latin lookup 1 subtable" bracketright.sc
Substitution2: "'smcp' Lowercase to Small Capitals in Latin lookup 0 subtable" bracketright.sc
EndChar

StartChar: asciicircum
Encoding: 319 94 63
Width: 433
GlyphClass: 2
Flags: MW
HStem: 208 161<69 257 69 257 176 365 176 324>
VStem: 69 296<208 208>
LayerCount: 2
Fore
SplineSet
257 369 m 1
 365 208 l 1
 324 208 l 1
 217 314 l 1
 109 208 l 1
 69 208 l 1
 176 369 l 1
 257 369 l 1
EndSplineSet
Validated: 1
EndChar

StartChar: underscore
Encoding: 320 95 64
Width: 651
GlyphClass: 2
Flags: MW
HStem: -129 61<69 583 69 583>
LayerCount: 2
Fore
SplineSet
69 -129 m 1
 69 -68 l 1
 583 -68 l 1
 583 -129 l 1
 69 -129 l 1
EndSplineSet
Validated: 1
EndChar

StartChar: grave
Encoding: 321 96 65
Width: 248
GlyphClass: 2
Flags: MW
HStem: 516 137<42 230 42 188>
VStem: 18 212<516 631.5>
LayerCount: 2
Fore
SplineSet
18 621 m 0
 18 642 32 653 52 653 c 0
 71 653 91 643 113 623 c 2
 230 516 l 1
 188 516 l 1
 64 574 l 2
 50 580 38 588 31 596 c 0
 22 603 18 611 18 621 c 0
EndSplineSet
Validated: 1
EndChar

StartChar: a
Encoding: 322 97 66
Width: 447
GlyphClass: 2
Flags: MW
HStem: -8 26 418 18<187.5 241.5>
VStem: 35 81<83.5 103> 44 86 282 79<145 255 255 255 274 307 307 311>
LayerCount: 2
Fore
SplineSet
116 102 m 0xe8
 116 65 138 18 175 18 c 0
 206 18 238 36 252 57 c 0
 269 80 282 106 282 145 c 2
 282 255 l 1
 228 228 187 210 153 178 c 0
 133 159 116 136 116 102 c 0xe8
144 -7 m 0
 81 -6 35 27 35 88 c 0xe8
 35 118 47 142 64 159 c 0
 92 187 125 204 166 223 c 2
 282 274 l 1
 282 307 l 2
 282 372 285 418 198 418 c 0
 177 418 156 403 148 395 c 0
 138 385 136 371 130 353 c 0
 122 328 109 314 81 314 c 0
 54 314 44 329 44 356 c 0xd8
 44 391 124 436 212 436 c 0
 314 436 361 409 361 311 c 2
 361 109 l 2
 361 47 370 18 394 18 c 0
 413 18 435 35 442 45 c 1
 448 36 l 1
 431 10 402 -8 359 -8 c 0
 308 -8 288 26 288 79 c 1
 285 79 l 1
 262 31 221 -8 144 -7 c 0
EndSplineSet
Validated: 33
Substitution2: "'sups' Superscript in Latin lookup 8 subtable" a.superior
Substitution2: "Single Substitution lookup 7 subtable" ordfeminine
Substitution2: "'smcp' Lowercase to Small Capitals in Latin lookup 0 subtable" a.sc
EndChar

StartChar: b
Encoding: 323 98 67
Width: 528
GlyphClass: 2
Flags: MW
HStem: -9 22 0 21G<73 91 73 73> 408 28<252 314.5> 689 14<-1 -1> 715 20G<151 151>
VStem: 73 78<371 553 553 580> 398 92<180.5 247 180.5 258>
LayerCount: 2
Fore
SplineSet
153 137 m 2xbe
 153 73 175 44 218 24 c 0
 232 17 255 13 272 13 c 0
 355 13 398 102 398 211 c 0
 398 305 360 408 269 408 c 0
 220 408 196 396 170 360 c 0
 155 339 153 304 153 263 c 2
 153 137 l 2xbe
281 -9 m 0
 201 -8 169 24 139 60 c 1
 91 0 l 1
 73 0 l 1x7e
 73 553 l 2
 73 607 70 642 63 657 c 0
 52 678 29 684 -1 689 c 1
 -1 703 l 1
 151 735 l 1
 151 371 l 1
 154 371 l 1
 184 410 220 436 284 436 c 0
 346 436 399 408 430 372 c 0
 465 335 490 280 490 214 c 0
 490 147 462 92 430 55 c 0
 396 19 347 -10 281 -9 c 0
EndSplineSet
Validated: 33
Substitution2: "'sups' Superscript in Latin lookup 8 subtable" b.superior
Substitution2: "'smcp' Lowercase to Small Capitals in Latin lookup 0 subtable" b.sc
EndChar

StartChar: c
Encoding: 324 99 68
Width: 432
GlyphClass: 2
Flags: MW
HStem: -8 22<213.5 279.5> 331 86<367 367> 418 18<229 276>
VStem: 39 93<194.5 247.5>
LayerCount: 2
Fore
SplineSet
260 14 m 0
 316 14 368 45 400 77 c 1
 409 67 l 1
 372 24 325 -8 234 -8 c 0
 137 -8 81 49 54 121 c 0
 45 148 39 178 39 211 c 0
 39 284 64 339 102 375 c 0
 138 413 194 436 264 436 c 0
 305 436 339 428 367 417 c 0
 387 408 406 390 406 365 c 0
 406 342 391 331 367 331 c 0
 342 331 331 342 318 364 c 0
 305 386 304 418 248 418 c 0
 170 418 132 319 132 223 c 0
 132 118 167 14 260 14 c 0
EndSplineSet
Validated: 1
Substitution2: "'sups' Superscript in Latin lookup 8 subtable" c.superior
Substitution2: "'smcp' Lowercase to Small Capitals in Latin lookup 0 subtable" c.sc
EndChar

StartChar: d
Encoding: 325 100 69
Width: 545
GlyphClass: 2
Flags: MW
HStem: -8 20<202.5 264> 1 14<518.5 525> 418 18<216.5 272> 691 14<288 302.5> 715 20G<454 454>
VStem: 38 92<170 247.5> 377 77<382 530 530 606 606 624.5> 391 64
LayerCount: 2
Fore
SplineSet
249 436 m 0xbd
 309 436 344 415 377 382 c 1
 377 530 l 2
 377 560 379 585 377 606 c 0
 377 643 370 658 349 674 c 0
 336 684 317 691 288 691 c 1
 288 705 l 1
 454 735 l 1
 454 204 l 2xbe
 454 166 454 130 455 107 c 0
 457 61 455 22 494 16 c 0
 502 15 512 15 525 15 c 1
 525 1 l 1x7d
 391 -8 l 1
 391 68 l 1
 381 69 l 1
 361 41 358 33 327 10 c 0
 306 -5 279 -8 249 -8 c 0
 119 -8 38 86 38 215 c 0
 38 280 63 338 98 373 c 0
 130 410 184 436 249 436 c 0xbd
249 418 m 0
 162 418 130 315 130 219 c 0
 130 121 156 12 249 12 c 0
 285 12 314 22 334 39 c 0
 359 60 375 98 375 162 c 2
 375 268 l 2
 375 319 374 344 353 370 c 0
 331 397 295 418 249 418 c 0
EndSplineSet
Validated: 33
Substitution2: "'sups' Superscript in Latin lookup 8 subtable" d.superior
Substitution2: "'smcp' Lowercase to Small Capitals in Latin lookup 0 subtable" d.sc
EndChar

StartChar: e
Encoding: 326 101 70
Width: 462
GlyphClass: 2
Flags: MW
HStem: -8 22 270 20<139 288 288 297.5 139 400 136 288> 418 18
VStem: 39 92<169 226.5 169 263> 337 88<310 338>
LayerCount: 2
Fore
SplineSet
274 14 m 0
 334 14 378 51 412 86 c 1
 422 75 l 1
 369 24 343 -6 251 -8 c 0
 121 -11 39 80 39 209 c 0
 39 317 95 385 171 419 c 0
 199 431 229 436 261 436 c 0
 366 436 425 391 425 286 c 0
 425 271 418 270 400 270 c 2
 136 270 l 1
 133 260 131 233 131 220 c 0
 131 118 176 14 274 14 c 0
337 312 m 0
 337 364 318 417 251 418 c 0
 182 419 152 360 139 290 c 1
 288 290 l 2
 307 290 332 286 336 299 c 0
 337 303 337 308 337 312 c 0
EndSplineSet
Validated: 33
Substitution2: "'sups' Superscript in Latin lookup 8 subtable" e.superior
Substitution2: "'smcp' Lowercase to Small Capitals in Latin lookup 0 subtable" e.sc
EndChar

StartChar: f
Encoding: 327 102 71
Width: 332
GlyphClass: 2
Flags: MW
HStem: 0 12<39 269 39 39> 410 18<18 109 18 109 185 315> 717 18<239 298>
VStem: 109 76<107 113 113 410 428 538 538 543> 333 78
LayerCount: 2
Fore
SplineSet
275 717 m 0
 203 717 185 645 185 543 c 2
 185 428 l 1
 315 428 l 1
 315 410 l 1
 185 410 l 1
 185 113 l 2
 185 64 190 27 227 17 c 0
 238 13 252 13 269 12 c 1
 269 0 l 1
 39 0 l 1
 39 12 l 1
 67 14 87 13 97 30 c 0
 109 47 109 73 109 107 c 2
 109 410 l 1
 18 410 l 1
 18 428 l 1
 109 428 l 1
 109 538 l 2
 109 680 175 735 297 735 c 0
 330 735 358 731 379 720 c 0
 400 709 411 697 411 681 c 0
 411 660 397 642 375 642 c 0
 350 642 340 653 333 674 c 0
 326 693 321 717 275 717 c 0
EndSplineSet
Validated: 1
Substitution2: "'sups' Superscript in Latin lookup 8 subtable" f.superior
Substitution2: "'smcp' Lowercase to Small Capitals in Latin lookup 0 subtable" f.sc
EndChar

StartChar: g
Encoding: 328 103 72
Width: 483
GlyphClass: 2
Flags: MW
HStem: -210 18<199.5 279 189.5 287> 404 32 418 18<195.5 244.5 195.5 250.5>
VStem: 26 72<-118 -92 -129.5 -78> 60 85<269.5 318> 61 59<91 107> 294 85<260 309 243 322> 371 68<-118 -68>
LayerCount: 2
Fore
SplineSet
145 292 m 0xaa
 145 233 157 164 221 164 c 0
 281 164 294 229 294 291 c 0
 294 353 281 418 220 418 c 0
 161 418 145 352 145 292 c 0xaa
448 369 m 0
 419 369 428 404 390 404 c 0
 377 404 361 390 348 381 c 1
 361 360 379 324 379 294 c 0
 379 192 309 153 208 146 c 0
 175 143 152 133 139 129 c 0
 126 125 120 118 120 106 c 0xc6
 120 76 182 79 212 76 c 0
 246 73 277 66 311 61 c 0
 381 52 439 7 439 -71 c 0
 439 -177 345 -210 229 -210 c 0
 170 -210 119 -205 82 -185 c 0
 53 -167 26 -139 26 -97 c 0
 26 -59 45 -34 70 -22 c 0
 80 -18 88 -16 98 -16 c 0
 117 -16 133 -21 147 -33 c 1
 133 -37 121 -43 112 -56 c 0
 103 -69 98 -84 98 -100 c 0xd1
 98 -159 146 -192 233 -192 c 0
 325 -192 371 -146 371 -90 c 0
 371 -46 337 -17 297 -11 c 0
 284 -9 271 -7 257 -4 c 0
 244 -2 230 -2 217 0 c 0
 144 11 61 5 61 85 c 0xc5
 61 129 103 155 143 162 c 1
 143 166 l 1
 130 170 121 178 110 186 c 0
 82 211 60 245 60 294 c 0
 60 342 79 372 105 396 c 0
 129 420 172 436 219 436 c 0xa8
 270 436 311 419 340 394 c 1
 359 409 375 420 388 427 c 0
 401 433 415 436 428 436 c 0xc8
 463 436 480 424 480 399 c 0
 480 380 466 369 448 369 c 0
EndSplineSet
Validated: 1
Substitution2: "'sups' Superscript in Latin lookup 8 subtable" g.superior
Substitution2: "'smcp' Lowercase to Small Capitals in Latin lookup 0 subtable" g.sc
EndChar

StartChar: h
Encoding: 329 104 73
Width: 554
GlyphClass: 2
Flags: MW
HStem: 0 12<20 234 20 20> 413 23<293 343> 691 14<18 30> 715 20G<166 166>
VStem: 89 77<352 526 526 541.5> 391 80<106 112 112 225 225 258>
LayerCount: 2
Fore
SplineSet
168 112 m 2
 168 65 164 27 198 16 c 0
 207 13 219 13 234 12 c 1
 234 0 l 1
 20 0 l 1
 20 12 l 1
 46 14 68 14 78 29 c 0
 89 46 89 73 89 106 c 2
 89 526 l 2
 89 557 89 583 87 602 c 0
 86 621 86 635 83 645 c 0
 82 651 82 657 78 661 c 0
 71 676 42 691 18 691 c 1
 18 705 l 1
 166 735 l 1
 166 352 l 1
 170 352 l 1
 202 396 258 436 328 436 c 0
 379 436 420 415 444 388 c 1
 466 356 471 319 471 258 c 2
 471 112 l 2
 471 66 469 27 501 16 c 0
 510 13 522 13 537 12 c 1
 537 0 l 1
 323 0 l 1
 323 12 l 1
 366 15 383 18 389 57 c 0
 390 70 391 85 391 106 c 2
 391 225 l 2
 391 323 381 413 305 413 c 0
 246 413 205 368 182 336 c 0
 171 321 168 302 168 279 c 2
 168 112 l 2
EndSplineSet
Validated: 33
Substitution2: "'sups' Superscript in Latin lookup 8 subtable" h.superior
Substitution2: "'smcp' Lowercase to Small Capitals in Latin lookup 0 subtable" h.sc
EndChar

StartChar: i
Encoding: 330 105 74
Width: 274
GlyphClass: 2
Flags: MW
HStem: 0 12<28 260 28 28> 391 14<26 39.5> 416 20G<184 184> 550 101<128.5 154 128.5 154.5>
VStem: 91 101<587.5 613.5> 105 79<106 112 112 226 226 278.5>
LayerCount: 2
Fore
SplineSet
184 112 m 2xf4
 184 64 185 26 220 16 c 0
 230 13 244 13 260 12 c 1
 260 0 l 1
 28 0 l 1
 28 12 l 1
 71 15 96 20 102 59 c 0
 105 72 105 87 105 106 c 2
 105 226 l 2
 105 331 101 350 81 370 c 0
 69 382 53 391 26 391 c 1
 26 405 l 1
 184 436 l 1
 184 112 l 2xf4
141 550 m 0
 114 550 91 574 91 601 c 0
 91 626 116 651 141 651 c 0
 167 651 192 627 192 601 c 0xf8
 192 574 168 550 141 550 c 0
EndSplineSet
Validated: 1
Substitution2: "'sups' Superscript in Latin lookup 8 subtable" i.superior
Substitution2: "'smcp' Lowercase to Small Capitals in Latin lookup 0 subtable" i.sc
EndChar

StartChar: j
Encoding: 331 106 75
Width: 245
GlyphClass: 2
Flags: MW
HStem: -210 20<12.5 60 12.5 64.5> 391 14<13 26.5> 416 20G<172 172> 550 101<118.5 143.5 118.5 144.5>
VStem: 81 100<587.5 613.5> 93 79<-55 -2 -2 226 226 279.5>
LayerCount: 2
Fore
SplineSet
28 -190 m 0xf4
 92 -190 93 -129 93 -55 c 2
 93 226 l 2
 93 333 91 353 69 370 c 0
 60 377 40 391 13 391 c 1
 13 405 l 1
 172 436 l 1
 172 -2 l 2
 172 -124 123 -210 6 -210 c 0
 -51 -210 -111 -176 -111 -135 c 0
 -111 -110 -94 -97 -70 -97 c 0
 -60 -97 -52 -100 -47 -104 c 0
 -43 -108 -36 -119 -28 -135 c 0
 -16 -162 -3 -190 28 -190 c 0xf4
131 550 m 0
 104 550 81 574 81 601 c 0
 81 626 106 651 131 651 c 0
 156 651 181 626 181 601 c 0xf8
 181 574 158 550 131 550 c 0
EndSplineSet
Validated: 1
Substitution2: "'sups' Superscript in Latin lookup 8 subtable" j.superior
Substitution2: "'smcp' Lowercase to Small Capitals in Latin lookup 0 subtable" j.sc
EndChar

StartChar: k
Encoding: 332 107 76
Width: 497
GlyphClass: 2
Flags: MW
HStem: 0 12<13 243 13 13 281 291.5 483 493> 414 14<250 267.5 443 460> 691 14<13 22.5> 715 20G<168 168>
VStem: 91 77<106 112 112 192 219 526 526 580.5>
LayerCount: 2
Fore
SplineSet
315 379 m 0
 316 401 285 414 250 414 c 1
 250 428 l 1
 460 428 l 1
 460 414 l 1
 426 414 404 408 386 394 c 0
 380 389 370 382 360 373 c 2
 239 257 l 1
 408 55 l 2
 416 46 423 39 428 33 c 0
 434 29 442 25 448 21 c 0
 460 11 473 12 493 12 c 1
 493 0 l 1
 281 0 l 1
 281 12 l 1
 302 12 331 18 331 31 c 0
 331 42 329 46 320 57 c 0
 312 67 300 79 287 94 c 2
 191 212 l 1
 168 192 l 1
 168 112 l 2
 168 65 169 26 203 16 c 0
 214 13 227 13 243 12 c 1
 243 0 l 1
 13 0 l 1
 13 12 l 1
 40 14 66 13 76 30 c 0
 90 46 91 73 91 106 c 2
 91 526 l 2
 91 635 87 651 60 675 c 0
 51 683 32 691 13 691 c 1
 13 705 l 1
 168 735 l 1
 168 219 l 1
 243 288 l 2
 267 312 284 328 297 341 c 0
 310 354 315 374 315 379 c 0
EndSplineSet
Validated: 33
Substitution2: "'sups' Superscript in Latin lookup 8 subtable" k.superior
Substitution2: "'smcp' Lowercase to Small Capitals in Latin lookup 0 subtable" k.sc
EndChar

StartChar: l
Encoding: 333 108 77
Width: 262
GlyphClass: 2
Flags: MW
HStem: 0 12<18 241 18 18> 692 14<16 16> 715 20G<169 169>
VStem: 94 75<103 109 109 534 534 589.5>
LayerCount: 2
Fore
SplineSet
169 109 m 2
 169 62 169 26 203 16 c 0
 212 13 226 13 241 12 c 1
 241 0 l 1
 18 0 l 1
 18 12 l 1
 61 15 84 19 90 57 c 0
 93 70 94 84 94 103 c 2
 94 534 l 2
 94 645 86 650 70 666 c 0
 52 684 29 691 16 692 c 1
 16 706 l 1
 169 735 l 1
 169 109 l 2
EndSplineSet
Validated: 1
Substitution2: "'sups' Superscript in Latin lookup 8 subtable" l.superior
Substitution2: "'smcp' Lowercase to Small Capitals in Latin lookup 0 subtable" l.sc
EndChar

StartChar: m
Encoding: 334 109 78
Width: 866
GlyphClass: 2
Flags: MW
HStem: 0 12<30 244 30 30> 391 14<29 29> 412 24<300.5 350.5 604 655>
VStem: 99 79<106 112 112 226 226 244> 402 79<106 112 112 225 225 244> 704 80<106 112 112 225 225 258>
LayerCount: 2
Fore
SplineSet
704 225 m 2
 704 316 699 412 611 412 c 0
 568 412 516 367 494 332 c 0
 481 310 481 280 481 244 c 2
 481 112 l 2
 481 65 477 27 511 16 c 0
 520 13 534 13 549 12 c 1
 549 0 l 1
 334 0 l 1
 334 12 l 1
 375 15 396 17 399 57 c 0
 401 70 402 85 402 106 c 2
 402 225 l 2
 402 323 392 412 309 412 c 0
 264 412 211 368 192 332 c 0
 178 309 178 280 178 244 c 2
 178 112 l 2
 178 65 175 27 209 16 c 0
 218 13 229 13 244 12 c 1
 244 0 l 1
 30 0 l 1
 30 12 l 1
 71 15 94 17 97 57 c 0
 99 70 99 85 99 106 c 2
 99 226 l 2
 99 348 89 362 68 380 c 0
 62 385 42 390 29 391 c 1
 29 405 l 1
 160 436 l 1
 172 353 l 1
 177 353 l 1
 218 400 262 436 339 436 c 0
 407 436 457 405 475 354 c 1
 479 354 l 1
 516 398 567 436 641 436 c 0
 690 436 735 417 757 389 c 0
 780 359 784 316 784 258 c 2
 784 112 l 2
 784 66 780 26 814 16 c 0
 823 13 835 13 850 12 c 1
 850 0 l 1
 635 0 l 1
 635 12 l 1
 663 14 683 13 693 30 c 0
 704 47 704 71 704 106 c 2
 704 225 l 2
EndSplineSet
Validated: 33
Substitution2: "'sups' Superscript in Latin lookup 8 subtable" m.superior
Substitution2: "'smcp' Lowercase to Small Capitals in Latin lookup 0 subtable" m.sc
EndChar

StartChar: n
Encoding: 335 110 79
Width: 555
GlyphClass: 2
Flags: MW
HStem: 0 12<30 242 30 30> 391 14<29 29> 413 23<295.5 355.5>
VStem: 98 77<105 111 111 243 243 250> 395 77<105 111 111 228 228 261>
LayerCount: 2
Fore
SplineSet
172 354 m 1
 208 397 259 436 332 436 c 0
 382 436 424 418 447 391 c 0
 469 360 472 320 472 261 c 2
 472 111 l 2
 472 65 468 26 502 16 c 0
 510 13 523 13 537 12 c 1
 537 0 l 1
 328 0 l 1
 328 12 l 1
 368 15 390 18 393 56 c 0
 395 69 395 84 395 105 c 2
 395 228 l 2
 395 316 398 413 313 413 c 0
 259 413 210 373 189 336 c 0
 175 312 175 287 175 250 c 2
 175 111 l 2
 175 63 170 28 205 16 c 0
 214 13 227 13 242 12 c 1
 242 0 l 1
 30 0 l 1
 30 12 l 1
 69 15 93 18 96 56 c 0
 98 69 98 84 98 105 c 2
 98 243 l 2
 98 345 92 355 73 374 c 0
 61 386 42 390 29 391 c 1
 29 405 l 1
 158 436 l 1
 169 354 l 1
 172 354 l 1
EndSplineSet
Validated: 33
Substitution2: "'sups' Superscript in Latin lookup 8 subtable" n.superior
Substitution2: "'smcp' Lowercase to Small Capitals in Latin lookup 0 subtable" n.sc
EndChar

StartChar: o
Encoding: 336 111 80
Width: 528
GlyphClass: 2
Flags: MW
HStem: -8 18<208 300> 418 18<247 307>
VStem: 38 92<200.5 263 167 269> 398 92<217 217>
LayerCount: 2
Fore
SplineSet
262 436 m 0
 368 436 436 377 472 305 c 0
 484 277 490 248 490 217 c 0
 490 145 459 92 422 55 c 0
 386 19 338 -8 262 -8 c 0
 137 -8 90 53 56 126 c 0
 43 155 38 184 38 217 c 0
 38 321 101 389 176 420 c 0
 204 431 232 436 262 436 c 0
262 418 m 0
 174 418 130 309 130 217 c 0
 130 117 154 10 262 10 c 0
 343 10 397 100 398 217 c 0
 399 309 352 418 262 418 c 0
EndSplineSet
Validated: 33
Substitution2: "'sups' Superscript in Latin lookup 8 subtable" o.superior
Substitution2: "Single Substitution lookup 7 subtable" ordmasculine
Substitution2: "'smcp' Lowercase to Small Capitals in Latin lookup 0 subtable" o.sc
EndChar

StartChar: p
Encoding: 337 112 81
Width: 547
GlyphClass: 2
Flags: MW
HStem: -202 12<16 265 16 16> -8 18<267 330> 388 14<14 37.5> 418 18<267.5 331.5 267.5 332.5>
VStem: 94 79<-95 -88 -88 49 140 147 147 224 224 239.5> 418 91<178 248.5 178 256>
LayerCount: 2
Fore
SplineSet
297 -8 m 0
 237 -8 205 15 173 49 c 1
 173 -88 l 2
 173 -141 176 -175 217 -185 c 0
 230 -188 244 -189 265 -190 c 1
 265 -202 l 1
 16 -202 l 1
 16 -190 l 1
 45 -188 67 -186 79 -170 c 0
 89 -152 94 -128 94 -95 c 2
 94 224 l 2
 94 255 94 280 92 301 c 0
 91 322 91 335 88 342 c 0
 80 375 61 388 14 388 c 1
 14 402 l 1
 170 433 l 1
 170 367 l 1
 173 367 l 1
 202 403 237 436 298 436 c 0
 365 436 415 410 449 373 c 0
 484 334 509 284 509 213 c 0
 509 143 483 91 448 54 c 0
 414 18 363 -8 297 -8 c 0
288 418 m 0
 227 418 187 361 178 325 c 0
 174 310 173 290 173 267 c 2
 173 147 l 2
 173 133 175 120 175 110 c 0
 176 66 230 10 294 10 c 0
 375 10 418 119 418 210 c 0
 418 302 377 418 288 418 c 0
EndSplineSet
Validated: 1
Substitution2: "'sups' Superscript in Latin lookup 8 subtable" p.superior
Substitution2: "'smcp' Lowercase to Small Capitals in Latin lookup 0 subtable" p.sc
EndChar

StartChar: q
Encoding: 338 113 82
Width: 527
GlyphClass: 2
Flags: MW
HStem: -202 14<291 537 291 291> -8 18<211 281.5> 407 20G<439 454 454 454> 420 16<214.5 279 214.5 290>
VStem: 38 92<193.5 242> 378 76<-93 -86 -86 64 64 64>
LayerCount: 2
Fore
SplineSet
375 293 m 2xdc
 375 356 324 420 256 420 c 0
 164 420 130 308 130 214 c 0
 130 119 165 10 257 10 c 0
 329 10 375 81 375 142 c 2
 375 293 l 2xdc
247 436 m 0
 311 436 348 410 379 374 c 1
 439 427 l 1
 454 427 l 1xec
 454 -86 l 2
 454 -138 452 -173 491 -184 c 0
 503 -187 517 -187 537 -188 c 1
 537 -202 l 1
 291 -202 l 1
 291 -188 l 1
 321 -186 346 -183 360 -167 c 0
 373 -150 378 -125 378 -93 c 2
 378 64 l 1
 374 64 l 1
 349 24 320 -8 243 -8 c 0
 143 -8 83 48 54 121 c 0
 44 147 38 178 38 209 c 0
 38 275 66 333 99 370 c 0
 132 407 182 436 247 436 c 0
EndSplineSet
Validated: 33
Substitution2: "'sups' Superscript in Latin lookup 8 subtable" q.superior
Substitution2: "'smcp' Lowercase to Small Capitals in Latin lookup 0 subtable" q.sc
EndChar

StartChar: r
Encoding: 339 114 83
Width: 384
GlyphClass: 2
Flags: MW
HStem: 0 12<30 245 30 30> 385 14<29 29> 388 48<262 341.5> 407 20G<170 170>
VStem: 100 79<106 112 112 177 88.5 217>
LayerCount: 2
Fore
SplineSet
381 390 m 0xa8
 381 363 362 348 335 349 c 0
 305 350 308 388 269 388 c 0xa8
 255 388 237 375 222 356 c 0
 190 315 179 252 179 177 c 2
 179 112 l 2
 179 65 178 35 209 18 c 0
 220 12 230 13 245 12 c 1
 245 0 l 1
 30 0 l 1
 30 12 l 1
 75 15 92 16 98 57 c 0
 99 70 100 85 100 106 c 2
 100 217 l 2
 100 254 100 282 98 303 c 0
 96 335 90 352 73 367 c 0
 65 374 44 384 29 385 c 1
 29 399 l 1
 170 427 l 1xd8
 182 328 l 1
 185 328 l 1
 205 373 240 411 285 428 c 0
 298 433 313 436 326 436 c 0
 357 436 381 420 381 390 c 0xa8
EndSplineSet
Validated: 33
Substitution2: "'sups' Superscript in Latin lookup 8 subtable" r.superior
Substitution2: "'smcp' Lowercase to Small Capitals in Latin lookup 0 subtable" r.sc
EndChar

StartChar: s
Encoding: 340 115 84
Width: 366
GlyphClass: 2
Flags: MW
HStem: -8 18<173 212.5 157.5 214> 0 21G<52 64 52 52> 408 20G<282 293 293 293> 418 18<159.5 182 156 207.5>
VStem: 52 13<0 139 139 139> 54 66<323 331.5> 257 71<96 113.5> 280 13<311 428>
LayerCount: 2
Fore
SplineSet
181 418 m 0x15
 138 418 120 382 120 348 c 0
 120 298 169 279 200 257 c 0
 255 224 328 180 328 115 c 0
 328 77 317 46 292 24 c 0
 267 3 234 -8 194 -8 c 0x96
 152 -8 112 5 82 29 c 1
 64 0 l 1
 52 0 l 1
 52 139 l 1
 65 139 l 1x4a
 86 63 128 10 187 10 c 0
 238 10 257 48 257 89 c 0
 257 138 152 182 115 211 c 0
 84 235 54 260 54 311 c 0
 54 352 68 381 89 402 c 0
 109 422 137 436 175 436 c 0x96
 189 436 205 434 220 430 c 0
 235 426 248 418 261 411 c 1
 282 428 l 1
 293 428 l 1x25
 293 311 l 1
 280 311 l 1
 261 360 234 418 181 418 c 0x15
EndSplineSet
Validated: 1
Substitution2: "'sups' Superscript in Latin lookup 8 subtable" s.superior
Substitution2: "'smcp' Lowercase to Small Capitals in Latin lookup 0 subtable" s.sc
EndChar

StartChar: t
Encoding: 341 116 85
Width: 305
GlyphClass: 2
Flags: MW
HStem: -8 20<190 217.5> 411 18<160 268 160 268>
VStem: 81 79<90 132 132 411> 151 9<556 556>
LayerCount: 2
Fore
SplineSet
190 -8 m 0xe0
 123 -8 81 24 81 90 c 2
 81 411 l 1xe0
 32 411 l 1
 32 421 l 1
 83 451 130 502 151 556 c 1
 160 556 l 1
 160 429 l 1xd0
 268 429 l 1
 268 411 l 1
 160 411 l 1
 160 132 l 2
 160 48 164 12 216 12 c 0
 250 12 270 41 286 64 c 1
 298 54 l 1
 269 8 245 -8 190 -8 c 0xe0
EndSplineSet
Validated: 1
Substitution2: "'sups' Superscript in Latin lookup 8 subtable" t.superior
Substitution2: "'smcp' Lowercase to Small Capitals in Latin lookup 0 subtable" t.sc
EndChar

StartChar: u
Encoding: 342 117 86
Width: 540
GlyphClass: 2
Flags: MW
HStem: -8 22 1 12<517.5 524> 414 14<17 163>
VStem: 84 79<178.5 208 208 308 308 331> 374 79<194 308 308 330.5>
LayerCount: 2
Fore
SplineSet
454 105 m 0xb8
 458 66 454 15 493 15 c 0
 501 13 511 13 524 13 c 1
 524 1 l 1x78
 390 -9 l 1
 379 83 l 1
 376 83 l 1
 345 35 318 -6 224 -8 c 0
 176 -9 131 12 110 39 c 0
 88 70 84 112 84 170 c 2
 84 308 l 2
 84 354 78 387 54 403 c 0
 46 408 32 412 17 414 c 1
 17 428 l 1
 163 428 l 1
 163 208 l 2
 163 149 162 109 172 80 c 0
 182 52 201 16 250 14 c 0
 297 12 334 44 361 107 c 0
 371 131 374 160 374 194 c 2
 374 308 l 2
 374 353 372 386 345 403 c 0
 336 408 322 412 307 414 c 1
 307 428 l 1
 453 428 l 1
 453 180 l 2
 453 150 454 125 454 105 c 0xb8
EndSplineSet
Validated: 33
Substitution2: "'sups' Superscript in Latin lookup 8 subtable" u.superior
Substitution2: "'smcp' Lowercase to Small Capitals in Latin lookup 0 subtable" u.sc
EndChar

StartChar: v
Encoding: 343 118 87
Width: 492
GlyphClass: 2
Flags: MW
HStem: -9 21G<220 256 220 220> 414 14<4 218 4 218 318 336 462.5 478>
LayerCount: 2
Fore
SplineSet
379 374 m 0
 379 405 354 414 318 414 c 1
 318 428 l 1
 478 428 l 1
 478 414 l 1
 447 414 421 382 411 359 c 0
 402 338 393 317 384 296 c 0
 342 201 299 92 256 -9 c 1
 220 -9 l 1
 84 333 l 2
 78 349 71 362 66 372 c 0
 55 397 37 411 4 414 c 1
 4 428 l 1
 218 428 l 1
 218 414 l 1
 190 411 164 409 164 376 c 0
 164 357 169 341 175 326 c 2
 272 87 l 1
 275 87 l 1
 348 266 l 2
 360 293 368 315 372 331 c 0
 376 347 379 361 379 374 c 0
EndSplineSet
Validated: 1
Substitution2: "'sups' Superscript in Latin lookup 8 subtable" v.superior
Substitution2: "'smcp' Lowercase to Small Capitals in Latin lookup 0 subtable" v.sc
EndChar

StartChar: w
Encoding: 344 119 88
Width: 688
GlyphClass: 2
Flags: MW
HStem: -8 21G<191 207 191 191 448 461 448 448> 414 14<10 21.5 207 224 516 533 668.5 677>
LayerCount: 2
Fore
SplineSet
579 376 m 0
 579 405 550 414 516 414 c 1
 516 428 l 1
 677 428 l 1
 677 414 l 1
 660 414 634 400 626 387 c 0
 608 366 601 341 587 307 c 2
 461 -8 l 1
 448 -8 l 1
 338 314 l 1
 335 315 l 1
 207 -8 l 1
 191 -8 l 1
 90 333 l 2
 83 357 74 377 61 391 c 0
 51 402 33 414 10 414 c 1
 10 428 l 1
 224 428 l 1
 224 414 l 1
 190 414 162 402 162 373 c 0
 162 368 163 360 165 354 c 0
 167 346 168 337 171 326 c 2
 234 121 l 1
 236 121 l 1
 359 428 l 1
 378 428 l 1
 486 119 l 1
 489 119 l 1
 546 260 l 2
 557 288 568 315 576 340 c 0
 581 354 579 361 579 376 c 0
EndSplineSet
Validated: 33
Substitution2: "'sups' Superscript in Latin lookup 8 subtable" w.superior
Substitution2: "'smcp' Lowercase to Small Capitals in Latin lookup 0 subtable" w.sc
EndChar

StartChar: x
Encoding: 345 120 89
Width: 491
GlyphClass: 2
Flags: MW
HStem: 0 12<8 14.5 181.5 193 8 14.5 475 483> 414 14<30 51 219 229 288 303.5 448 465>
LayerCount: 2
Fore
SplineSet
229 414 m 1
 209 414 188 409 188 394 c 0
 188 386 192 366 203 352 c 2
 266 265 l 1
 325 339 l 2
 338 355 343 376 343 388 c 0
 343 405 319 414 288 414 c 1
 288 428 l 1
 465 428 l 1
 465 414 l 1
 431 414 406 399 388 381 c 0
 381 372 365 355 355 342 c 2
 281 247 l 1
 391 82 l 2
 408 61 424 43 438 31 c 0
 450 20 467 12 483 12 c 1
 483 0 l 1
 268 0 l 1
 268 12 l 1
 291 14 320 18 320 33 c 0
 320 48 301 71 290 86 c 2
 231 182 l 1
 149 72 l 2
 141 62 130 48 130 38 c 0
 130 19 170 12 193 12 c 1
 193 0 l 1
 8 0 l 1
 8 12 l 1
 21 12 38 15 48 18 c 0
 72 26 84 33 100 48 c 0
 110 57 124 74 137 90 c 2
 218 199 l 1
 104 361 l 2
 82 389 72 414 30 414 c 1
 30 428 l 1
 229 428 l 1
 229 414 l 1
EndSplineSet
Validated: 1
Substitution2: "'sups' Superscript in Latin lookup 8 subtable" x.superior
Substitution2: "'smcp' Lowercase to Small Capitals in Latin lookup 0 subtable" x.sc
EndChar

StartChar: y
Encoding: 346 121 90
Width: 515
GlyphClass: 2
Flags: MW
HStem: -210 83 414 14<4 217 198.5 217 329 348 495 507>
LayerCount: 2
Fore
SplineSet
401 378 m 0
 401 404 367 414 329 414 c 1
 329 428 l 1
 507 428 l 1
 507 414 l 1
 483 414 464 408 453 392 c 0
 436 367 420 318 399 270 c 2
 223 -127 l 2
 198 -182 152 -210 112 -210 c 0
 78 -210 59 -197 61 -172 c 0
 63 -145 88 -128 127 -127 c 0
 167 -126 195 -112 210 -91 c 0
 214 -84 221 -76 225 -65 c 2
 241 -27 l 1
 83 333 l 2
 76 348 69 369 64 377 c 0
 52 394 37 411 4 414 c 1
 4 428 l 1
 217 428 l 1
 217 414 l 1
 180 414 157 405 157 387 c 0
 157 364 177 319 186 299 c 2
 284 76 l 1
 288 75 l 1
 376 273 l 2
 409 348 401 344 401 378 c 0
EndSplineSet
Validated: 33
Substitution2: "'sups' Superscript in Latin lookup 8 subtable" y.superior
Substitution2: "'smcp' Lowercase to Small Capitals in Latin lookup 0 subtable" y.sc
EndChar

StartChar: z
Encoding: 347 122 91
Width: 449
GlyphClass: 2
Flags: MW
HStem: 0 18<124 226 226 273.5> 410 18<170 208 208 304>
VStem: 53 18<317 317> 398 18<125 125>
LayerCount: 2
Fore
SplineSet
402 0 m 1
 14 0 l 1
 14 4 l 1
 304 410 l 1
 208 410 l 2
 132 410 83 386 71 317 c 1
 53 317 l 1
 65 428 l 1
 413 428 l 1
 413 425 l 1
 124 18 l 1
 226 18 l 2
 321 18 382 48 398 125 c 1
 416 125 l 1
 402 0 l 1
EndSplineSet
Validated: 1
Substitution2: "'sups' Superscript in Latin lookup 8 subtable" z.superior
Substitution2: "'smcp' Lowercase to Small Capitals in Latin lookup 0 subtable" z.sc
EndChar

StartChar: braceleft
Encoding: 348 123 92
Width: 302
GlyphClass: 2
Flags: MW
HStem: -170 19<225.5 265> 280 22<26 26> 728 21<246 262>
VStem: 107 81<-31 161 419 434 434 595 595 614>
LayerCount: 2
Fore
SplineSet
262 728 m 1
 207 714 188 681 188 614 c 2
 188 434 l 2
 188 396 184 368 171 342 c 0
 159 314 132 302 99 293 c 1
 99 289 l 1
 133 283 156 271 171 247 c 0
 183 224 188 196 188 161 c 2
 188 -35 l 2
 188 -104 207 -136 265 -151 c 1
 265 -170 l 1
 186 -170 131 -159 114 -99 c 0
 109 -81 107 -58 107 -31 c 2
 107 163 l 2
 107 210 91 246 65 267 c 0
 54 274 41 279 26 280 c 1
 26 302 l 1
 70 312 96 328 103 374 c 0
 106 387 107 402 107 419 c 2
 107 595 l 2
 107 675 120 726 184 741 c 0
 204 746 230 749 262 749 c 1
 262 728 l 1
EndSplineSet
Validated: 1
EndChar

StartChar: bar
Encoding: 349 124 93
Width: 261
GlyphClass: 2
Flags: MW
HStem: -226 21G<95 167 95 95> 720 20G<95 167 167 167>
VStem: 95 72<-226 740 -226 740>
LayerCount: 2
Fore
SplineSet
167 740 m 1
 167 -226 l 1
 95 -226 l 1
 95 740 l 1
 167 740 l 1
EndSplineSet
Validated: 1
EndChar

StartChar: braceright
Encoding: 350 125 94
Width: 302
GlyphClass: 2
Flags: MW
HStem: -170 19<37 64> 280 22<276 276> 728 21<41 82.5>
VStem: 115 81<-35 -31 -31 161 161 163 434 595>
LayerCount: 2
Fore
SplineSet
37 -151 m 1
 95 -136 115 -104 115 -35 c 2
 115 161 l 2
 115 214 124 255 159 274 c 0
 170 280 185 286 203 289 c 1
 203 293 l 1
 168 302 146 315 130 342 c 0
 117 367 115 395 115 434 c 2
 115 614 l 2
 115 681 95 714 41 728 c 1
 41 749 l 1
 124 749 173 733 190 668 c 0
 195 648 196 624 196 595 c 2
 196 419 l 2
 196 386 199 359 211 339 c 0
 222 318 248 309 276 302 c 1
 276 280 l 1
 218 276 196 224 196 163 c 2
 196 -31 l 2
 196 -81 188 -120 162 -142 c 0
 134 -166 91 -170 37 -170 c 1
 37 -151 l 1
EndSplineSet
Validated: 1
EndChar

StartChar: asciitilde
Encoding: 351 126 95
Width: 499
GlyphClass: 2
Flags: MW
HStem: 218 68<336 359> 261 67<146.5 164.5>
LayerCount: 2
Fore
SplineSet
147 261 m 0x40
 119 261 115 249 107 225 c 1
 76 225 l 1
 85 280 118 328 175 328 c 0x40
 204 328 238 316 262 307 c 0
 290 298 319 286 353 286 c 0
 381 286 385 300 394 324 c 1
 424 324 l 1
 416 270 387 218 331 218 c 0x80
 299 218 269 230 242 239 c 0
 214 248 182 261 147 261 c 0x40
EndSplineSet
Validated: 1
EndChar

StartChar: exclamdown
Encoding: 353 161 97
Width: 278
GlyphClass: 2
Flags: MW
HStem: -9 21G<122 156> 586 118<122.5 155.5>
VStem: 80 119<628.5 661 628.5 661.5> 116 45
LayerCount: 2
Fore
SplineSet
139 586 m 0xe0
 106 586 80 612 80 645 c 0
 80 678 106 704 139 704 c 0
 172 704 199 677 199 645 c 0
 199 612 172 586 139 586 c 0xe0
139 -9 m 0
 105 -9 80 17 80 51 c 0xe0
 80 60 80 68 81 74 c 0
 81 81 82 88 83 97 c 0
 83 104 85 114 87 125 c 0
 97 181 105 236 112 297 c 0
 114 322 116 352 116 385 c 0
 118 418 117 460 117 508 c 1
 161 508 l 1xd0
 161 377 163 276 184 171 c 0
 190 143 191 121 197 97 c 0
 197 89 198 80 198 74 c 2
 198 51 l 2
 198 17 173 -9 139 -9 c 0
EndSplineSet
Validated: 33
EndChar

StartChar: cent
Encoding: 354 162 98
Width: 432
GlyphClass: 2
Flags: MW
HStem: -8 22 331 86<367 367> 418 18
VStem: 39 93<194.5 247.5> 238 30<-119 -8 -8 -8 16 416 436 551>
LayerCount: 2
Fore
SplineSet
238 551 m 1
 268 551 l 1
 268 436 l 1
 307 435 340 428 367 417 c 0
 387 408 406 390 406 365 c 0
 406 342 391 331 367 331 c 0
 342 331 331 342 318 364 c 0
 307 383 305 410 268 416 c 1
 268 14 l 1
 321 17 369 46 400 77 c 1
 409 67 l 1
 377 30 337 1 268 -6 c 1
 268 -119 l 1
 238 -119 l 1
 238 -8 l 1
 237 -8 235 -8 234 -8 c 0
 137 -8 81 49 54 121 c 0
 45 148 39 178 39 211 c 0
 39 284 64 339 102 375 c 0
 133 408 180 430 238 435 c 1
 238 551 l 1
238 417 m 1
 167 409 132 315 132 223 c 0
 132 127 162 31 238 16 c 1
 238 417 l 1
EndSplineSet
Validated: 1
EndChar

StartChar: sterling
Encoding: 355 163 99
Width: 613
GlyphClass: 2
Flags: MW
HStem: -10 28 -9 89 121 28<123 148.5> 339 45<68 176 68 193 68 176 295 479 295 295> 676 28<351 371.5>
VStem: 35 33 155 90<548 559.5> 230 78<169 262.5>
LayerCount: 2
Fore
SplineSet
68 70 m 0xbc
 69 31 96 16 138 18 c 0
 186 20 204 54 215 75 c 1
 196 93 164 121 133 121 c 0
 113 121 67 108 68 70 c 0xbc
358 676 m 0
 293 676 245 624 245 561 c 0xbe
 245 535 254 504 260 482 c 2
 283 384 l 1
 479 384 l 1
 479 339 l 1
 295 339 l 1
 304 307 308 281 308 244 c 0
 308 184 295 139 274 100 c 1
 319 88 375 79 430 80 c 0
 510 81 533 104 563 143 c 1
 572 139 l 1
 572 43 530 -9 440 -9 c 0x7d
 389 -9 355 2 316 19 c 0
 298 27 274 40 250 53 c 1
 230 23 200 6 160 -5 c 0
 146 -8 134 -10 121 -10 c 0
 72 -10 35 16 35 64 c 0
 35 116 77 149 129 149 c 0
 168 149 201 137 228 120 c 1
 231 128 230 163 230 175 c 0xbd
 230 226 209 296 193 339 c 1
 68 339 l 1
 68 384 l 1
 176 384 l 1
 164 426 155 467 155 511 c 0xbe
 155 608 207 665 280 690 c 0
 306 699 335 704 367 704 c 0
 447 704 541 658 541 600 c 0
 541 572 527 559 501 559 c 0
 468 559 454 586 444 610 c 0
 438 623 430 647 417 657 c 0
 405 668 385 676 358 676 c 0
EndSplineSet
Validated: 33
EndChar

StartChar: currency
Encoding: 356 164 100
Width: 494
GlyphClass: 2
Flags: MW
HStem: 38 40<237.5 268 237.5 268> 348 40<226.5 256.5>
VStem: 72 40<188.5 232.5 181 233> 383 40<192 232.5 189 244>
LayerCount: 2
Fore
SplineSet
423 212 m 0
 423 166 408 131 386 104 c 1
 443 46 l 1
 414 18 l 1
 357 75 l 1
 326 50 289 38 247 38 c 0
 204 38 167 50 137 76 c 1
 80 19 l 1
 53 46 l 1
 110 104 l 1
 88 131 72 165 72 212 c 0
 72 254 85 291 110 322 c 1
 52 380 l 1
 80 409 l 1
 138 351 l 1
 165 373 202 388 247 388 c 0
 292 388 329 373 356 351 c 1
 414 409 l 1
 443 380 l 1
 385 322 l 1
 411 291 423 253 423 212 c 0
112 212 m 0
 112 150 151 108 195 88 c 0
 211 81 228 78 247 78 c 0
 289 78 322 94 343 117 c 0
 365 139 383 172 383 212 c 0
 383 276 345 316 300 337 c 0
 283 343 266 348 247 348 c 0
 206 348 174 329 152 309 c 0
 130 287 112 253 112 212 c 0
EndSplineSet
Validated: 1
EndChar

StartChar: yen
Encoding: 357 165 101
Width: 723
GlyphClass: 2
Flags: MW
HStem: 0 24<216 234.5 497.5 508 216 234.5> 168 34<155 315 155 315 410 565> 284 35<155 294 155 315 155 294 426 565> 671 24<27 58.5 293.5 311 490 506.5 669 697>
VStem: 315 95<146.5 168 202 284>
LayerCount: 2
Fore
SplineSet
559 630 m 0
 559 658 523 671 490 671 c 1
 490 695 l 1
 697 695 l 1
 697 671 l 1
 641 671 613 624 586 588 c 0
 573 569 558 545 539 513 c 2
 426 319 l 1
 565 319 l 1
 565 284 l 1
 410 284 l 1
 410 202 l 1
 565 202 l 1
 565 168 l 1
 410 168 l 1
 410 107 410 40 458 29 c 0
 471 26 487 24 508 24 c 1
 508 0 l 1
 216 0 l 1
 216 24 l 1
 253 24 282 27 297 47 c 0
 314 69 315 125 315 168 c 1
 155 168 l 1
 155 202 l 1
 315 202 l 1
 315 284 l 1
 155 284 l 1
 155 319 l 1
 294 319 l 1
 134 583 l 2
 109 624 90 671 27 671 c 1
 27 695 l 1
 311 695 l 1
 311 671 l 1
 276 671 229 662 229 630 c 0
 229 617 236 599 250 576 c 2
 394 337 l 1
 404 337 l 1
 506 508 l 2
 525 540 540 566 547 585 c 0
 556 604 559 618 559 630 c 0
EndSplineSet
Validated: 1
EndChar

StartChar: brokenbar
Encoding: 358 166 102
Width: 268
GlyphClass: 2
Flags: MW
VStem: 98 73<-162 185 -162 185 329 677>
LayerCount: 2
Fore
SplineSet
171 677 m 1
 171 329 l 1
 98 329 l 1
 98 677 l 1
 171 677 l 1
171 185 m 1
 171 -162 l 1
 98 -162 l 1
 98 185 l 1
 171 185 l 1
EndSplineSet
Validated: 1
EndChar

StartChar: section
Encoding: 359 167 103
Width: 510
GlyphClass: 2
Flags: MW
HStem: -157 29<235 276.5> 721 28<252 252>
VStem: 54 75<-76 11> 57 57 82 56<616.5 647> 339 84<608.5 687> 375 71
LayerCount: 2
Fore
SplineSet
346 173 m 1xd0
 366 188 396 218 397 251 c 0
 398 295 341 342 306 363 c 2
 179 437 l 1
 145 419 114 405 114 362 c 0
 114 313 157 285 192 264 c 2
 346 173 l 1xd0
251 -128 m 0
 323 -128 374 -98 375 -16 c 0
 376 45 326 70 273 101 c 2
 219 131 l 2
 189 147 164 163 144 179 c 0
 96 209 56 253 57 326 c 0xd2
 58 379 98 432 151 454 c 1
 114 484 82 536 82 598 c 0
 82 696 153 749 253 749 c 0
 324 749 386 723 411 676 c 0
 419 661 423 644 423 627 c 0
 423 590 404 564 367 564 c 0
 338 564 314 585 314 615 c 0
 314 636 326 649 336 659 c 0
 338 663 339 667 339 672 c 0
 339 702 308 722 252 721 c 0
 176 719 138 687 138 628 c 0xcc
 138 605 150 584 165 567 c 0
 179 551 209 532 244 512 c 2
 298 480 l 2
 354 448 394 416 419 385 c 0
 442 354 457 320 455 283 c 0
 452 229 412 189 367 155 c 1
 413 117 446 67 446 13 c 0
 446 -42 420 -84 390 -110 c 0
 357 -137 307 -157 246 -157 c 0
 160 -157 100 -124 69 -69 c 0
 59 -51 54 -31 54 -9 c 0
 54 31 74 66 111 66 c 0
 142 66 169 41 169 10 c 0
 169 0 167 -8 162 -15 c 0
 153 -28 146 -40 135 -51 c 0
 130 -56 129 -62 129 -67 c 0xe2
 129 -85 149 -102 166 -109 c 0
 189 -119 219 -128 251 -128 c 0
EndSplineSet
Validated: 33
EndChar

StartChar: dieresis
Encoding: 360 168 104
Width: 291
GlyphClass: 2
Flags: MW
HStem: 516 104<55.5 84.5 206 236>
VStem: 18 105<552.5 583.5> 169 104<553 583>
LayerCount: 2
Fore
SplineSet
70 516 m 0
 41 516 18 537 18 568 c 0
 18 599 41 620 70 620 c 0
 99 620 123 599 123 568 c 0
 123 537 99 516 70 516 c 0
221 516 m 0
 191 516 169 538 169 568 c 0
 169 598 191 620 221 620 c 0
 251 620 273 598 273 568 c 0
 273 538 251 516 221 516 c 0
EndSplineSet
Validated: 1
EndChar

StartChar: copyright
Encoding: 361 169 105
Width: 845
GlyphClass: 2
Flags: MW
HStem: -18 46<337 516 337 530> 162 20<398 445.5> 429 21G<550 564 550 550> 531 18<407 450.5 398 467> 679 46<335 521>
VStem: 51 46<259.5 438.5 259.5 450.5> 244 77<320.5 365 305 381> 550 14<429 429> 559 17<167 290> 748 46<263.5 441>
LayerCount: 2
Fore
SplineSet
427 549 m 0xfec0
 474 549 502 533 536 509 c 1
 544 544 l 1
 560 544 l 1
 564 429 l 1
 550 429 l 1xff40
 537 482 496 531 438 531 c 0
 376 531 342 477 329 423 c 0
 323 402 321 378 321 352 c 0
 321 258 356 182 440 182 c 0
 498 182 541 224 558 290 c 1
 576 290 l 1
 576 167 l 1
 559 167 l 1
 542 208 l 1
 509 178 469 162 422 162 c 0
 365 162 322 183 293 214 c 0
 263 244 244 291 244 350 c 0
 244 412 266 461 296 494 c 0
 326 526 369 549 427 549 c 0xfec0
97 352 m 0
 97 167 248 28 426 28 c 0
 606 28 748 175 748 352 c 0
 748 530 616 679 426 679 c 0
 244 679 97 525 97 352 c 0
51 352 m 0
 51 549 219 725 427 725 c 0
 643 725 794 555 794 352 c 0
 794 150 633 -18 427 -18 c 0
 224 -18 51 141 51 352 c 0
EndSplineSet
Validated: 1
EndChar

StartChar: ordfeminine
Encoding: 362 170 106
Width: 341
GlyphClass: 2
Flags: MW
HStem: 458 23<228 271.5> 458 31<134 140> 682 22<145 167>
VStem: 57 56<513.5 518.5> 65 46 197 50<560 590 590 590 616 633 633 635>
LayerCount: 2
Fore
SplineSet
144 489 m 0x74
 176 489 197 527 197 560 c 2
 197 590 l 1
 166 578 145 568 132 557 c 0
 119 546 113 536 113 524 c 0
 113 503 124 489 144 489 c 0x74
122 458 m 0
 87 458 57 476 57 511 c 0x74
 57 526 62 539 74 551 c 0
 85 563 105 575 134 588 c 2
 197 616 l 1
 197 633 l 2
 197 666 182 682 152 682 c 0
 124 682 117 678 111 654 c 0
 107 640 100 633 88 633 c 0
 73 633 65 642 65 659 c 0
 65 671 73 681 90 690 c 0
 107 699 130 704 160 704 c 0
 218 704 247 690 247 635 c 2
 247 533 l 2
 247 498 253 481 267 481 c 0
 276 481 284 485 289 493 c 1
 295 482 l 1
 285 468 266 458 241 458 c 0xac
 215 458 201 472 201 501 c 1
 198 501 l 1
 184 477 158 458 122 458 c 0
EndSplineSet
Validated: 1
EndChar

StartChar: guillemotleft
Encoding: 363 171 107
Width: 441
GlyphClass: 2
Flags: MW
HStem: 94 286<198 198 198 352>
VStem: 44 326<236 361>
LayerCount: 2
Fore
SplineSet
44 236 m 1
 198 380 l 1
 216 361 l 1
 126 236 l 1
 215 112 l 1
 198 94 l 1
 44 236 l 1
199 236 m 1
 352 380 l 1
 370 361 l 1
 281 236 l 1
 369 112 l 1
 352 94 l 1
 199 236 l 1
EndSplineSet
Validated: 1
EndChar

StartChar: logicalnot
Encoding: 364 172 108
Width: 564
GlyphClass: 2
Flags: MW
HStem: 283 45<75 443 75 488>
VStem: 443 45<99 283 283 283>
LayerCount: 2
Fore
SplineSet
443 283 m 1
 75 283 l 1
 75 328 l 1
 488 328 l 1
 488 99 l 1
 443 99 l 1
 443 283 l 1
EndSplineSet
Validated: 1
EndChar

StartChar: uni00AD
Encoding: 365 173 109
Width: 417
GlyphClass: 2
Flags: MW
HStem: 224 75<70 348 70 348>
VStem: 70 278<224 299 224 299>
LayerCount: 2
Fore
SplineSet
70 224 m 1
 70 299 l 1
 348 299 l 1
 348 224 l 1
 70 224 l 1
EndSplineSet
Validated: 1
EndChar

StartChar: registered
Encoding: 366 174 110
Width: 845
GlyphClass: 2
Flags: MW
HStem: -18 46<337 516 337 530> 164 16<407 419 242 242> 346 19<351 368 351 386> 523 18<356 359 359 404> 679 46<335 521>
VStem: 51 46<259.5 438.5 259.5 450.5> 291 60<238 239 239 346 365 473 473 482> 483 73<415 461> 748 46<263.5 441>
LayerCount: 2
Fore
SplineSet
556 446 m 0
 556 384 515 355 453 345 c 1
 556 218 l 2
 571 197 588 186 617 180 c 1
 617 164 l 1
 527 164 l 1
 399 322 l 2
 392 332 391 336 381 343 c 0
 378 345 373 345 368 346 c 2
 351 346 l 1
 351 239 l 2
 351 217 352 203 363 193 c 0
 373 183 395 180 419 180 c 1
 419 164 l 1
 242 164 l 1
 242 180 l 1
 259 181 274 185 282 194 c 0
 290 203 291 220 291 238 c 2
 291 473 l 2
 291 491 291 507 284 516 c 0
 277 525 264 527 247 528 c 1
 247 541 l 1
 408 541 l 2
 455 541 491 532 517 515 c 0
 543 498 556 476 556 446 c 0
483 443 m 0
 483 495 458 523 404 523 c 2
 359 523 l 2
 353 523 351 521 351 515 c 2
 351 365 l 1
 386 365 l 2
 447 365 483 386 483 443 c 0
97 352 m 0
 97 167 248 28 426 28 c 0
 606 28 748 175 748 352 c 0
 748 530 616 679 426 679 c 0
 244 679 97 525 97 352 c 0
51 352 m 0
 51 549 219 725 427 725 c 0
 643 725 794 555 794 352 c 0
 794 150 633 -18 427 -18 c 0
 224 -18 51 141 51 352 c 0
EndSplineSet
Validated: 1
EndChar

StartChar: macron
Encoding: 367 175 111
Width: 279
GlyphClass: 2
Flags: MW
HStem: 562 45<18 262 18 262>
VStem: 18 244<562 607 562 607>
LayerCount: 2
Fore
SplineSet
18 562 m 1
 18 607 l 1
 262 607 l 1
 262 562 l 1
 18 562 l 1
EndSplineSet
Validated: 1
EndChar

StartChar: degree
Encoding: 368 176 112
Width: 312
GlyphClass: 2
Flags: MW
HStem: 487 27<133.5 173> 676 28<148.5 178.5>
VStem: 48 27<588.5 618.5 574 621> 236 28<579.5 603.5 579.5 618.5>
LayerCount: 2
Fore
SplineSet
48 596 m 0
 48 646 78 681 114 695 c 0
 128 701 141 704 156 704 c 0
 206 704 240 674 256 637 c 0
 261 624 264 611 264 596 c 0
 264 563 250 537 233 520 c 0
 214 501 190 487 156 487 c 0
 107 487 72 517 56 554 c 0
 51 567 48 581 48 596 c 0
156 676 m 0
 111 676 75 641 75 596 c 0
 75 552 111 514 156 514 c 0
 201 514 236 551 236 596 c 0
 236 641 201 676 156 676 c 0
EndSplineSet
Validated: 1
EndChar

StartChar: plusminus
Encoding: 369 177 113
Width: 572
GlyphClass: 2
Flags: MW
HStem: 86 45<75 497 75 497> 400 45<75 263 75 263 310 497>
VStem: 263 47<211 400 211 400 445 634>
LayerCount: 2
Fore
SplineSet
263 211 m 1
 263 400 l 1
 75 400 l 1
 75 445 l 1
 263 445 l 1
 263 634 l 1
 310 634 l 1
 310 445 l 1
 497 445 l 1
 497 400 l 1
 310 400 l 1
 310 211 l 1
 263 211 l 1
497 86 m 1
 75 86 l 1
 75 131 l 1
 497 131 l 1
 497 86 l 1
EndSplineSet
Validated: 1
EndChar

StartChar: two.superior
Encoding: 370 178 114
Width: 389
GlyphClass: 2
Flags: MW
HStem: 270 67<117 251 251 268 117 326> 503 37<105.5 168> 684 18<171 221>
VStem: 36 66<583 604.5> 265 82<575 594.5 575 607.5>
LayerCount: 2
Fore
SplineSet
168 540 m 1
 163 517 145 503 119 503 c 0
 92 503 73 513 60 526 c 0
 45 540 36 559 36 586 c 0
 36 623 56 651 81 669 c 0
 107 687 148 702 194 702 c 0
 265 702 313 674 336 633 c 0
 343 619 347 603 347 586 c 0
 347 564 341 542 330 521 c 0
 303 473 253 434 205 398 c 0
 178 379 147 359 116 340 c 1
 117 337 l 1
 251 337 l 2
 285 337 306 347 316 367 c 0
 320 374 326 384 330 396 c 1
 350 396 l 1
 326 270 l 1
 31 270 l 1
 31 296 l 1
 78 333 117 362 148 390 c 0
 178 417 203 442 220 464 c 0
 248 500 265 531 265 582 c 0
 265 633 258 684 184 684 c 0
 129 684 102 643 102 601 c 0
 102 565 126 540 168 540 c 1
EndSplineSet
Validated: 1
EndChar

StartChar: three.superior
Encoding: 371 179 115
Width: 400
GlyphClass: 2
Flags: MW
HStem: 264 18<163.5 216> 404 30<103 159> 467 43<152.5 165.5 152 167.5> 483 15<202 223 197 230.5> 557 27 678 18<171 215.5>
VStem: 32 72<356 367 334 378.5> 51 68<612 630.5> 265 81<585.5 606 585.5 619.5> 276 86<363.5 390 363.5 413>
LayerCount: 2
Fore
SplineSet
187 282 m 0xde40
 251 282 276 331 276 387 c 0
 276 439 259 483 202 483 c 1xde40
 192 477 175 467 160 467 c 0
 145 467 125 475 125 491 c 0
 125 505 145 510 159 510 c 0xee40
 172 510 186 502 197 498 c 1
 249 498 265 547 265 595 c 0
 265 644 240 678 191 678 c 0
 151 678 119 654 119 623 c 0
 119 601 137 584 164 584 c 1
 162 576 158 569 149 565 c 0
 140 559 129 557 118 557 c 0
 97 557 80 564 71 574 c 0
 59 583 51 599 51 617 c 0
 51 644 69 663 89 675 c 0
 114 689 150 696 191 696 c 0
 259 696 312 677 335 639 c 0
 342 627 346 613 346 599 c 0xdd80
 346 572 332 550 316 535 c 0
 299 518 275 505 246 499 c 1
 246 495 l 1
 296 484 335 459 353 422 c 0
 359 410 362 397 362 383 c 0
 362 344 340 317 313 298 c 0
 283 278 243 264 189 264 c 0
 121 264 69 287 44 324 c 0
 36 336 32 349 32 363 c 0
 32 394 51 419 78 428 c 0
 88 432 98 434 108 434 c 0
 132 434 154 423 159 404 c 1
 125 404 104 381 104 353 c 0
 104 315 140 282 187 282 c 0xde40
EndSplineSet
Validated: 1
EndChar

StartChar: acute
Encoding: 372 180 116
Width: 248
GlyphClass: 2
Flags: MW
HStem: 516 137<18 206.5>
VStem: 18 212<516 631>
LayerCount: 2
Fore
SplineSet
196 653 m 0
 217 653 230 641 230 621 c 0
 230 611 225 603 218 596 c 0
 209 588 198 580 184 574 c 2
 60 516 l 1
 18 516 l 1
 135 623 l 2
 157 643 177 653 196 653 c 0
EndSplineSet
Validated: 1
EndChar

StartChar: mu
Encoding: 373 181 117
Width: 581
GlyphClass: 2
Flags: MW
HStem: -8 19<256 280.5> 1 13<537.5 544> 414 14<38 45 328 335>
VStem: 105 79<177.5 208 208 299 299 321.5> 105 92<-160 -149.5 -169 299> 395 79<178 180 180 299 299 321.5>
LayerCount: 2
Fore
SplineSet
152 -210 m 0xac
 126 -210 105 -187 105 -160 c 2xac
 105 299 l 2
 105 344 92 385 72 403 c 0
 65 410 52 414 38 414 c 1
 38 428 l 1
 184 428 l 1
 184 208 l 2
 184 147 191 104 205 76 c 0
 218 49 241 11 271 11 c 0xb4
 294 11 316 17 333 32 c 0
 354 49 372 70 388 109 c 0
 393 121 394 132 394 149 c 0
 395 157 395 166 395 178 c 2
 395 299 l 2
 395 344 385 381 362 401 c 0
 355 407 342 414 328 414 c 1
 328 428 l 1
 474 428 l 1
 474 180 l 2
 474 120 475 82 479 62 c 0
 482 43 501 24 514 20 c 0
 522 18 531 14 544 14 c 1
 544 1 l 1x74
 411 -9 l 1
 402 98 l 1
 399 98 l 1
 384 65 361 33 339 16 c 0
 317 0 293 -8 268 -8 c 0
 223 -8 188 17 167 66 c 1
 164 65 l 1
 176 8 187 -58 194 -118 c 0
 197 -134 197 -146 197 -153 c 0
 197 -185 183 -210 152 -210 c 0xac
EndSplineSet
Validated: 1
EndChar

StartChar: paragraph.alt
Encoding: 374 -1 118
Width: 569
GlyphClass: 2
Flags: MW
HStem: -149 34<138 168.5 138 313 138 168.5 511 525> 655 40<313 360 313 313>
VStem: 32 281<453 575.5> 246 67<57 337 337 337> 360 67<40 57 57 517>
LayerCount: 2
Fore
SplineSet
32 509 m 0xe8
 32 642 135 695 276 695 c 2
 525 695 l 1
 525 661 l 1
 458 661 434 650 430 590 c 0
 428 574 427 549 427 517 c 2
 427 57 l 2
 427 23 428 -8 430 -31 c 0
 435 -72 435 -96 464 -107 c 0
 478 -112 497 -115 525 -115 c 1
 525 -149 l 1
 360 -149 l 1
 360 655 l 1
 313 655 l 1
 313 -149 l 1
 138 -149 l 1
 138 -115 l 1
 199 -115 235 -110 240 -60 c 0
 240 -51 242 -40 242 -27 c 0
 246 -3 246 30 246 57 c 2
 246 337 l 1xd8
 241 337 236 337 231 336 c 2
 215 336 l 2
 101 336 32 397 32 509 c 0xe8
EndSplineSet
Validated: 1
EndChar

StartChar: periodcentered
Encoding: 375 183 119
Width: 257
GlyphClass: 2
Flags: MW
HStem: 189 118<112 144.5>
VStem: 70 118<231 263.5>
LayerCount: 2
Fore
SplineSet
128 189 m 0
 96 189 70 215 70 247 c 0
 70 280 95 307 128 307 c 0
 162 307 188 281 188 247 c 0
 188 214 161 189 128 189 c 0
EndSplineSet
Validated: 1
EndChar

StartChar: cedilla
Encoding: 376 184 120
Width: 261
GlyphClass: 2
Flags: MW
HStem: -225 29<118.5 150 118.5 161.5> -92 27<108.5 169.5>
VStem: 37 55 190 54<-159 -131.5>
LayerCount: 2
Fore
SplineSet
127 -196 m 0
 173 -196 190 -172 190 -146 c 0
 190 -117 179 -93 111 -92 c 0
 106 -92 100 -92 94 -93 c 0
 89 -93 84 -93 79 -94 c 1
 76 -89 l 1
 112 11 l 1
 160 11 l 1
 132 -65 l 1
 207 -65 244 -92 244 -143 c 0
 244 -204 193 -225 130 -225 c 0
 82 -225 37 -213 37 -178 c 0
 37 -162 50 -148 66 -148 c 0
 87 -148 91 -158 92 -173 c 0
 93 -185 110 -196 127 -196 c 0
EndSplineSet
Validated: 1
EndChar

StartChar: one.superior
Encoding: 377 185 121
Width: 380
GlyphClass: 2
Flags: MW
HStem: 270 20<85 303 85 85> 647 18<82 92> 676 20G<227 227>
VStem: 161 66<353 357 357 599 599 605.5>
LayerCount: 2
Fore
SplineSet
82 665 m 1
 127 666 190 680 227 696 c 1
 227 357 l 2
 227 334 227 315 237 303 c 0
 246 292 280 291 303 290 c 1
 303 270 l 1
 85 270 l 1
 85 290 l 1
 118 292 154 295 158 322 c 0
 160 330 161 341 161 353 c 2
 161 599 l 2
 161 612 164 627 140 640 c 0
 131 645 102 647 82 647 c 1
 82 665 l 1
EndSplineSet
Validated: 33
EndChar

StartChar: ordmasculine
Encoding: 378 186 122
Width: 345
GlyphClass: 2
Flags: MW
HStem: 458 24<148 179.5> 681 23<162.5 194>
VStem: 48 58<573 605.5 556.5 610.5> 239 59<556 590.5 554 606.5>
LayerCount: 2
Fore
SplineSet
171 704 m 0
 228 704 270 673 287 631 c 0
 294 616 298 599 298 582 c 0
 298 526 263 482 220 468 c 0
 204 461 188 458 171 458 c 0
 116 458 73 492 58 533 c 0
 52 547 48 564 48 582 c 0
 48 639 82 678 124 695 c 0
 139 701 154 704 171 704 c 0
239 582 m 0
 239 631 217 681 171 681 c 0
 127 681 106 629 106 582 c 0
 106 531 125 482 171 482 c 0
 219 482 239 530 239 582 c 0
EndSplineSet
Validated: 1
EndChar

StartChar: guillemotright
Encoding: 379 187 123
Width: 441
GlyphClass: 2
Flags: MW
HStem: 94 286<89 89 89 244>
VStem: 72 325<112 236>
LayerCount: 2
Fore
SplineSet
244 94 m 1
 227 112 l 1
 315 236 l 1
 226 361 l 1
 244 380 l 1
 397 236 l 1
 244 94 l 1
89 94 m 1
 72 112 l 1
 161 236 l 1
 71 361 l 1
 89 380 l 1
 243 236 l 1
 89 94 l 1
EndSplineSet
Validated: 1
EndChar

StartChar: onequarter
Encoding: 380 188 124
Width: 801
GlyphClass: 3
Flags: MW
HStem: 0 18<554 566 673.5 683 554 566> 99 27<430 589 430 589 411 589 656 735> 270 20<54 272 54 54> 407 20G<632 656 656 656> 647 18<51 61> 676 21G
VStem: 130 66<353 357 357 599 599 605.5> 148 51<0 0> 589 67<78 82 82 99 61.5 99 61.5 126> 647 43<695 695>
LayerCount: 2
Fore
SplineSet
51 665 m 1xfe
 96 666 159 680 196 696 c 1
 196 357 l 2
 196 334 196 315 206 303 c 0
 215 292 249 291 272 290 c 1
 272 270 l 1
 54 270 l 1
 54 290 l 1
 87 292 123 295 127 322 c 0
 129 330 130 341 130 353 c 2
 130 599 l 2
 130 612 133 627 109 640 c 0
 100 645 71 647 51 647 c 1
 51 665 l 1xfe
411 129 m 1
 632 427 l 1
 656 427 l 1
 656 126 l 1
 713 126 709 126 735 126 c 1
 735 99 l 1
 656 99 l 1
 656 82 l 2
 656 41 664 18 683 18 c 1
 683 0 l 1
 554 0 l 1
 554 18 l 1
 578 18 589 46 589 78 c 2
 589 99 l 1xfc80
 411 99 l 1
 411 129 l 1
588 339 m 1
 536 269 482 196 430 126 c 1
 589 126 l 1
 588 339 l 1
199 0 m 1xfd40
 148 0 l 1
 647 695 l 1
 690 695 l 1
 199 0 l 1xfd40
EndSplineSet
Validated: 33
Ligature2: "'frac' Diagonal Fractions in Latin lookup 5 subtable" one slash four
Ligature2: "'frac' Diagonal Fractions in Latin lookup 5 subtable" one fraction four
EndChar

StartChar: onehalf
Encoding: 381 189 125
Width: 926
GlyphClass: 3
Flags: MW
HStem: 0 67<625 759 759 776 625 834> 233 37 270 20<55 273 55 55> 414 18<679 729> 647 18<52 62> 676 21G
VStem: 131 66<353 357 357 599 599 605.5> 148 51<0 0> 544 66<313 334.5> 647 43<695 695> 773 82<305 324.5 305 337.5>
LayerCount: 2
Fore
SplineSet
676 270 m 1xbce0
 671 247 653 233 627 233 c 0xdce0
 600 233 581 243 568 256 c 0
 553 270 544 289 544 316 c 0
 544 353 564 381 589 399 c 0
 615 417 656 432 702 432 c 0
 773 432 821 404 844 363 c 0
 851 349 855 333 855 316 c 0
 855 294 849 272 838 251 c 0
 811 203 761 164 713 128 c 0
 686 109 655 89 624 70 c 1
 625 67 l 1
 759 67 l 2
 793 67 814 77 824 97 c 0
 828 104 834 114 838 126 c 1
 858 126 l 1
 834 0 l 1
 539 0 l 1
 539 26 l 1
 586 63 625 92 656 120 c 0
 686 147 711 172 728 194 c 0
 756 230 773 261 773 312 c 0
 773 363 766 414 692 414 c 0
 637 414 610 373 610 331 c 0
 610 295 634 270 676 270 c 1xbce0
52 665 m 1
 97 666 160 680 197 696 c 1
 197 357 l 2
 197 334 197 315 207 303 c 0
 216 292 250 291 273 290 c 1
 273 270 l 1
 55 270 l 1
 55 290 l 1
 88 292 124 295 128 322 c 0
 130 330 131 341 131 353 c 2
 131 599 l 2xbee0
 131 612 134 627 110 640 c 0
 101 645 72 647 52 647 c 1
 52 665 l 1
199 0 m 1x9de0
 148 0 l 1
 647 695 l 1
 690 695 l 1
 199 0 l 1x9de0
EndSplineSet
Validated: 33
Ligature2: "'frac' Diagonal Fractions in Latin lookup 5 subtable" one slash two
Ligature2: "'frac' Diagonal Fractions in Latin lookup 5 subtable" one fraction two
EndChar

StartChar: threequarters
Encoding: 382 190 126
Width: 883
GlyphClass: 3
Flags: MW
HStem: 0 18<641 653 760.5 770 641 653> 99 27<517 676 517 676 498 676 743 822> 264 18<193.5 246> 404 30<133 189> 407 20G<719 743 743 743> 467 43<182.5 195.5 182 197.5> 483 15<232 253 227 260.5> 557 27 678 18<201 245.5>
VStem: 62 72<356 367 334 378.5> 81 68<612 630.5> 234 52<0 0> 295 81<585.5 606 585.5 619.5> 306 86<363.5 390 363.5 413> 676 67<78 82 82 99 61.5 99 61.5 126> 733 44<695 695>
LayerCount: 2
Fore
SplineSet
217 282 m 0xf3d4
 281 282 306 331 306 387 c 0
 306 439 289 483 232 483 c 1xf3d4
 222 477 205 467 190 467 c 0
 175 467 155 475 155 491 c 0
 155 505 175 510 189 510 c 0xe5d4
 202 510 216 502 227 498 c 1
 279 498 295 547 295 595 c 0
 295 644 270 678 221 678 c 0
 181 678 149 654 149 623 c 0
 149 601 167 584 194 584 c 1
 192 576 188 569 179 565 c 0
 170 559 159 557 148 557 c 0
 127 557 110 564 101 574 c 0
 89 583 81 599 81 617 c 0
 81 644 99 663 119 675 c 0
 144 689 180 696 221 696 c 0
 289 696 342 677 365 639 c 0
 372 627 376 613 376 599 c 0xe3b8
 376 572 362 550 346 535 c 0
 329 518 305 505 276 499 c 1
 276 495 l 1
 326 484 365 459 383 422 c 0
 389 410 392 397 392 383 c 0
 392 344 370 317 343 298 c 0
 313 278 273 264 219 264 c 0
 151 264 99 287 74 324 c 0
 66 336 62 349 62 363 c 0
 62 394 81 419 108 428 c 0
 118 432 128 434 138 434 c 0
 162 434 184 423 189 404 c 1
 155 404 134 381 134 353 c 0
 134 315 170 282 217 282 c 0xf3d4
498 129 m 1
 719 427 l 1
 743 427 l 1
 743 126 l 1
 800 126 796 126 822 126 c 1
 822 99 l 1
 743 99 l 1
 743 82 l 2
 743 41 751 18 770 18 c 1
 770 0 l 1
 641 0 l 1
 641 18 l 1
 665 18 676 46 676 78 c 2
 676 99 l 1xe992
 498 99 l 1
 498 129 l 1
675 339 m 1
 623 269 569 196 517 126 c 1
 676 126 l 1
 675 339 l 1
286 0 m 1
 234 0 l 1
 733 695 l 1
 777 695 l 1xe191
 286 0 l 1
EndSplineSet
Validated: 1
Ligature2: "'frac' Diagonal Fractions in Latin lookup 5 subtable" three slash four
Ligature2: "'frac' Diagonal Fractions in Latin lookup 5 subtable" three fraction four
EndChar

StartChar: questiondown
Encoding: 383 191 127
Width: 360
GlyphClass: 2
Flags: MW
HStem: -9 89<179.5 270.5> 274 87<191.5 219 173 231 173 246> 461 20G<219 246 246 246> 586 118<219 252>
VStem: 62 27<184.5 185 169.5 263> 176 118<628.5 661 628.5 661.5> 219 27<361 481 274 481>
LayerCount: 2
Fore
SplineSet
62 217 m 0xfa
 62 309 127 361 219 361 c 1
 219 481 l 1
 246 481 l 1
 246 274 l 1
 231 274 l 2
 152 274 88 253 89 185 c 0
 89 154 101 129 114 111 c 0
 124 94 167 80 192 80 c 0
 213 80 239 90 260 90 c 0
 288 90 308 70 308 42 c 0
 308 9 289 -9 252 -9 c 0
 194 -9 148 24 120 60 c 0
 90 97 62 152 62 217 c 0xfa
236 704 m 0
 268 704 294 677 294 645 c 0
 294 612 268 586 236 586 c 0
 202 586 176 611 176 645 c 0xfc
 176 678 202 704 236 704 c 0
EndSplineSet
Validated: 33
EndChar

StartChar: Agrave
Encoding: 384 192 128
Width: 696
GlyphClass: 2
Flags: MW
HStem: 0 13<414 437.5 414 437.5 679 709> 263 23<198 429 198 436 188 429> 675 20G<337 366 366 366> 764 99
VStem: 148 230<764 842.5>
LayerCount: 2
Fore
SplineSet
148 832 m 0
 148 853 163 863 182 863 c 0
 194 863 206 861 218 856 c 0
 230 851 244 844 262 834 c 2
 378 764 l 1
 324 764 l 1
 216 789 l 2
 196 794 180 801 166 808 c 0
 154 814 148 822 148 832 c 0
414 13 m 1
 461 13 503 37 503 74 c 0
 503 96 498 112 492 128 c 0
 489 135 487 144 482 154 c 2
 436 263 l 1
 188 263 l 1
 171 222 153 174 140 137 c 0
 134 116 129 100 129 79 c 0
 129 39 170 12 214 12 c 1
 214 0 l 1
 -5 0 l 1
 -5 12 l 1
 32 17 65 49 85 76 c 0
 91 84 97 94 102 107 c 2
 337 695 l 1
 366 695 l 1
 571 186 l 2
 585 153 597 126 607 105 c 0
 629 62 649 13 709 13 c 1
 709 0 l 1
 414 0 l 1
 414 13 l 1
198 286 m 1
 429 286 l 1
 311 573 l 1
 198 286 l 1
EndSplineSet
Validated: 1
Substitution2: "'c2sc' Capitals to Small Capitals in Latin lookup 1 subtable" agrave.sc
EndChar

StartChar: Aacute
Encoding: 385 193 129
Width: 696
GlyphClass: 2
Flags: MW
HStem: 0 13<414 437.5 414 437.5 679 709> 263 23<198 429 198 436 188 429> 675 20G<337 366 366 366> 764 0<324 324 378 378>
VStem: 324 230<764 842>
LayerCount: 2
Fore
SplineSet
520 863 m 0
 541 863 554 852 554 832 c 0
 554 822 548 814 536 808 c 0
 524 801 508 794 488 789 c 2
 378 764 l 1
 324 764 l 1
 442 834 l 2
 458 844 474 851 486 856 c 0
 496 861 508 863 520 863 c 0
414 13 m 1
 461 13 503 37 503 74 c 0
 503 96 498 112 492 128 c 0
 489 135 487 144 482 154 c 2
 436 263 l 1
 188 263 l 1
 171 222 153 174 140 137 c 0
 134 116 129 100 129 79 c 0
 129 39 170 12 214 12 c 1
 214 0 l 1
 -5 0 l 1
 -5 12 l 1
 32 17 65 49 85 76 c 0
 91 84 97 94 102 107 c 2
 337 695 l 1
 366 695 l 1
 571 186 l 2
 585 153 597 126 607 105 c 0
 629 62 649 13 709 13 c 1
 709 0 l 1
 414 0 l 1
 414 13 l 1
198 286 m 1
 429 286 l 1
 311 573 l 1
 198 286 l 1
EndSplineSet
Validated: 1
Substitution2: "'c2sc' Capitals to Small Capitals in Latin lookup 1 subtable" aacute.sc
EndChar

StartChar: Acircumflex
Encoding: 386 194 130
Width: 696
GlyphClass: 2
Flags: MW
HStem: 0 13<414 437.5 414 437.5 679 709> 263 23<198 429 198 436 188 429> 675 20G<337 366 366 366> 813 49<352 352>
VStem: 204 296<764 764>
LayerCount: 2
Fore
SplineSet
402 862 m 1
 500 764 l 1
 458 764 l 1
 352 813 l 1
 244 764 l 1
 204 764 l 1
 302 862 l 1
 402 862 l 1
414 13 m 1
 461 13 503 37 503 74 c 0
 503 96 498 112 492 128 c 0
 489 135 487 144 482 154 c 2
 436 263 l 1
 188 263 l 1
 171 222 153 174 140 137 c 0
 134 116 129 100 129 79 c 0
 129 39 170 12 214 12 c 1
 214 0 l 1
 -5 0 l 1
 -5 12 l 1
 32 17 65 49 85 76 c 0
 91 84 97 94 102 107 c 2
 337 695 l 1
 366 695 l 1
 571 186 l 2
 585 153 597 126 607 105 c 0
 629 62 649 13 709 13 c 1
 709 0 l 1
 414 0 l 1
 414 13 l 1
198 286 m 1
 429 286 l 1
 311 573 l 1
 198 286 l 1
EndSplineSet
Validated: 1
Substitution2: "'c2sc' Capitals to Small Capitals in Latin lookup 1 subtable" acircumflex.sc
EndChar

StartChar: Atilde
Encoding: 387 195 131
Width: 696
GlyphClass: 2
Flags: MW
HStem: 0 13<414 437.5 414 437.5 679 709> 263 23<198 429 198 436 188 429> 675 20G<337 366 366 366> 764 69<419.5 441.5> 808 66<266 296>
VStem: 198 308<772 871>
LayerCount: 2
Fore
SplineSet
416 764 m 0x14
 360 764 324 808 268 808 c 0
 241 808 237 796 228 772 c 1
 198 772 l 1
 206 824 238 874 294 874 c 0x0c
 320 874 344 863 364 854 c 0
 385 846 405 833 434 833 c 0
 461 833 467 848 476 871 c 1
 506 871 l 1
 500 819 467 764 416 764 c 0x14
414 13 m 1xe0
 461 13 503 37 503 74 c 0
 503 96 498 112 492 128 c 0
 489 135 487 144 482 154 c 2
 436 263 l 1
 188 263 l 1
 171 222 153 174 140 137 c 0
 134 116 129 100 129 79 c 0
 129 39 170 12 214 12 c 1
 214 0 l 1
 -5 0 l 1
 -5 12 l 1
 32 17 65 49 85 76 c 0
 91 84 97 94 102 107 c 2
 337 695 l 1
 366 695 l 1
 571 186 l 2
 585 153 597 126 607 105 c 0
 629 62 649 13 709 13 c 1
 709 0 l 1
 414 0 l 1
 414 13 l 1xe0
198 286 m 1
 429 286 l 1
 311 573 l 1
 198 286 l 1
EndSplineSet
Validated: 1
Substitution2: "'c2sc' Capitals to Small Capitals in Latin lookup 1 subtable" atilde.sc
EndChar

StartChar: Adieresis
Encoding: 388 196 132
Width: 696
GlyphClass: 2
Flags: MW
HStem: 0 13<414 437.5 414 437.5 679 709> 263 23<198 429 198 436 188 429> 675 20G<337 366 366 366> 764 91<257 282 421.5 446.5>
VStem: 224 91<797 823> 388 91<797 823>
LayerCount: 2
Fore
SplineSet
269 764 m 0
 245 764 224 784 224 810 c 0
 224 836 243 855 269 855 c 0
 297 855 315 836 315 810 c 0
 315 784 295 764 269 764 c 0
434 764 m 0
 409 764 388 784 388 810 c 0
 388 836 407 855 434 855 c 0
 461 855 479 836 479 810 c 0
 479 784 459 764 434 764 c 0
414 13 m 1
 461 13 503 37 503 74 c 0
 503 96 498 112 492 128 c 0
 489 135 487 144 482 154 c 2
 436 263 l 1
 188 263 l 1
 171 222 153 174 140 137 c 0
 134 116 129 100 129 79 c 0
 129 39 170 12 214 12 c 1
 214 0 l 1
 -5 0 l 1
 -5 12 l 1
 32 17 65 49 85 76 c 0
 91 84 97 94 102 107 c 2
 337 695 l 1
 366 695 l 1
 571 186 l 2
 585 153 597 126 607 105 c 0
 629 62 649 13 709 13 c 1
 709 0 l 1
 414 0 l 1
 414 13 l 1
198 286 m 1
 429 286 l 1
 311 573 l 1
 198 286 l 1
EndSplineSet
Validated: 1
Substitution2: "'c2sc' Capitals to Small Capitals in Latin lookup 1 subtable" adieresis.sc
EndChar

StartChar: Aring
Encoding: 389 197 133
Width: 696
GlyphClass: 2
Flags: MW
HStem: 0 13<414 437.5 414 437.5 679 709> 263 23<198 429 198 436 188 429> 675 20G<337 366 366 366> 700 28<342.5 360.5 342.5 369> 789 28<343.5 360>
VStem: 293 28<749.5 768 749.5 776> 382 28<751 766.5>
LayerCount: 2
Fore
SplineSet
352 700 m 0
 317 700 293 724 293 759 c 0
 293 793 318 817 352 817 c 0
 386 817 410 793 410 759 c 0
 410 725 386 700 352 700 c 0
352 789 m 0
 335 789 321 777 321 759 c 0
 321 740 333 728 352 728 c 0
 369 728 382 743 382 759 c 0
 382 774 368 789 352 789 c 0
414 13 m 1
 461 13 503 37 503 74 c 0
 503 96 498 112 492 128 c 0
 489 135 487 144 482 154 c 2
 436 263 l 1
 188 263 l 1
 171 222 153 174 140 137 c 0
 134 116 129 100 129 79 c 0
 129 39 170 12 214 12 c 1
 214 0 l 1
 -5 0 l 1
 -5 12 l 1
 32 17 65 49 85 76 c 0
 91 84 97 94 102 107 c 2
 337 695 l 1
 366 695 l 1
 571 186 l 2
 585 153 597 126 607 105 c 0
 629 62 649 13 709 13 c 1
 709 0 l 1
 414 0 l 1
 414 13 l 1
198 286 m 1
 429 286 l 1
 311 573 l 1
 198 286 l 1
EndSplineSet
Validated: 1
Substitution2: "'c2sc' Capitals to Small Capitals in Latin lookup 1 subtable" aring.sc
EndChar

StartChar: AE
Encoding: 390 198 134
Width: 948
GlyphClass: 2
Flags: MW
HStem: 0 18<-10 209 -10 -10> 352 24<279 433 279 433 264 433 528 554> 536 21G<851 868 851 851> 674 21<538 543 543 658> 681 14<294 308>
VStem: 433 95<125 130 130 352> 689 16<239 486 239 486> 851 17<536 695>
LayerCount: 2
Fore
SplineSet
334 18 m 1xf7
 387 21 420 30 430 74 c 0
 433 88 433 104 433 125 c 2
 433 352 l 1
 264 352 l 1
 239 303 157 145 138 92 c 0
 133 78 131 67 131 57 c 0
 131 22 179 22 209 18 c 1
 209 0 l 1
 -10 0 l 1
 -10 18 l 1
 14 21 43 30 59 41 c 0
 76 52 94 73 106 94 c 0
 121 119 131 137 146 165 c 0
 194 254 235 346 287 445 c 0
 312 493 334 536 368 603 c 0
 371 610 381 630 381 638 c 0
 381 655 375 662 363 668 c 0
 353 673 322 681 294 681 c 1
 294 695 l 1
 868 695 l 1xef
 868 536 l 1
 851 536 l 1
 843 582 819 630 788 650 c 0
 756 671 714 674 658 674 c 2
 543 674 l 2
 533 674 528 669 528 659 c 2
 528 376 l 1
 580 376 598 378 628 397 c 0
 658 412 685 445 689 486 c 1
 705 486 l 1
 705 239 l 1
 689 239 l 1
 683 279 657 313 630 330 c 0
 598 348 582 352 528 352 c 1
 528 130 l 2
 528 91 536 58 560 43 c 0
 589 23 626 21 678 21 c 0
 766 21 832 55 861 112 c 0
 870 129 885 152 891 178 c 1
 908 178 l 1
 894 0 l 1
 334 0 l 1
 334 18 l 1xf7
433 376 m 1
 432 670 l 1
 279 376 l 1
 433 376 l 1
EndSplineSet
Validated: 1
Substitution2: "'c2sc' Capitals to Small Capitals in Latin lookup 1 subtable" ae.sc
EndChar

StartChar: Ccedilla
Encoding: 391 199 135
Width: 723
GlyphClass: 2
Flags: MW
HStem: -237 29<372.5 404 372.5 415.5> -104 27<362.5 423.5> -9 21<329 447> 0 21G<652 672 652 652> 675 20G<627 647 647 647> 676 28<345.5 444.5 344.5 466.5>
VStem: 54 121<281.5 366 253 394> 291 55 444 54<-171 -143.5> 637 18<487 487> 652 20<0 225>
LayerCount: 2
Fore
SplineSet
381 -208 m 0x0180
 427 -208 444 -184 444 -158 c 0
 444 -129 433 -105 365 -104 c 0
 360 -104 354 -104 348 -105 c 0
 343 -105 338 -105 333 -106 c 1
 330 -101 l 1
 366 -1 l 1
 414 -1 l 1
 386 -77 l 1
 461 -77 498 -104 498 -155 c 0
 498 -216 447 -237 384 -237 c 0
 336 -237 291 -225 291 -190 c 0
 291 -174 304 -160 320 -160 c 0
 341 -160 345 -170 346 -185 c 0
 347 -198 364 -208 381 -208 c 0x0180
400 704 m 0x2620
 489 704 543 678 606 639 c 1
 627 695 l 1
 647 695 l 1x0a20
 655 487 l 1
 637 487 l 1
 611 584 525 676 408 676 c 0
 283 676 217 576 191 474 c 0
 180 435 175 391 175 341 c 0
 175 165 244 12 411 12 c 0x2640
 544 12 621 101 654 225 c 1
 672 225 l 1
 672 0 l 1
 652 0 l 1x1220
 619 71 l 1
 556 18 504 -9 390 -9 c 0
 268 -9 200 27 146 85 c 1
 89 140 54 227 54 336 c 0
 54 452 93 541 150 602 c 0
 207 661 289 704 400 704 c 0x2620
EndSplineSet
Validated: 5
Substitution2: "'c2sc' Capitals to Small Capitals in Latin lookup 1 subtable" ccedilla.sc
EndChar

StartChar: Egrave
Encoding: 392 200 136
Width: 655
GlyphClass: 2
Flags: MW
HStem: 0 14<41 601 41 41> 0 21<359.5 429 359.5 601> 353 21<235 251.5> 536 21G<560 579 560 560> 674 21<245 250 250 365> 681 14<50 571> 764 99
VStem: 140 95<126 353 374 569 569 586> 158 230<764 842.5> 404 18<239 271.5 439.5 486> 560 19<536 536> 595 20<178 178>
LayerCount: 2
Fore
SplineSet
158 832 m 0x0280
 158 853 172 863 192 863 c 0
 204 863 216 861 228 856 c 0
 238 851 254 844 270 834 c 2
 388 764 l 1
 334 764 l 1
 226 789 l 2
 204 794 188 801 176 808 c 0
 164 814 158 822 158 832 c 0x0280
235 374 m 1x3970
 331 374 404 393 404 486 c 1
 422 486 l 1
 422 239 l 1
 404 239 l 1
 404 304 374 334 318 346 c 0
 296 350 268 353 235 353 c 1
 235 124 l 2
 235 85 243 57 267 43 c 0
 294 23 334 21 385 21 c 0x7970
 473 21 544 55 573 112 c 0
 582 129 589 152 595 178 c 1
 615 178 l 1
 601 0 l 1
 41 0 l 1
 41 14 l 1
 76 16 105 27 122 44 c 0
 138 60 140 91 140 126 c 2
 140 569 l 2
 140 603 139 634 125 650 c 0
 110 667 83 679 50 681 c 1
 50 695 l 1
 571 695 l 1xb570
 579 536 l 1
 560 536 l 1
 543 637 484 674 365 674 c 2
 250 674 l 2
 240 674 235 669 235 659 c 2
 235 374 l 1x3970
EndSplineSet
Validated: 1
Substitution2: "'c2sc' Capitals to Small Capitals in Latin lookup 1 subtable" egrave.sc
EndChar

StartChar: Eacute
Encoding: 393 201 137
Width: 655
GlyphClass: 2
Flags: MW
HStem: 0 14<41 601 41 41> 0 21<359.5 429 359.5 601> 353 21<235 251.5> 536 21G<560 579 560 560> 674 21<245 250 250 365> 681 14<50 571> 764 0<284 284 338 338>
VStem: 140 95<126 353 374 569 569 586> 284 230<764 842> 404 18<239 271.5 439.5 486> 560 19<536 536> 595 20<178 178>
LayerCount: 2
Fore
SplineSet
480 863 m 0x0280
 500 863 514 852 514 832 c 0
 514 822 508 814 494 808 c 0
 482 801 468 794 446 789 c 2
 338 764 l 1
 284 764 l 1
 400 834 l 2
 418 844 432 851 444 856 c 0
 456 861 468 863 480 863 c 0x0280
235 374 m 1x3970
 331 374 404 393 404 486 c 1
 422 486 l 1
 422 239 l 1
 404 239 l 1
 404 304 374 334 318 346 c 0
 296 350 268 353 235 353 c 1
 235 124 l 2
 235 85 243 57 267 43 c 0
 294 23 334 21 385 21 c 0x7970
 473 21 544 55 573 112 c 0
 582 129 589 152 595 178 c 1
 615 178 l 1
 601 0 l 1
 41 0 l 1
 41 14 l 1
 76 16 105 27 122 44 c 0
 138 60 140 91 140 126 c 2
 140 569 l 2
 140 603 139 634 125 650 c 0
 110 667 83 679 50 681 c 1
 50 695 l 1
 571 695 l 1xb570
 579 536 l 1
 560 536 l 1
 543 637 484 674 365 674 c 2
 250 674 l 2
 240 674 235 669 235 659 c 2
 235 374 l 1x3970
EndSplineSet
Validated: 1
Substitution2: "'c2sc' Capitals to Small Capitals in Latin lookup 1 subtable" eacute.sc
EndChar

StartChar: Ecircumflex
Encoding: 394 202 138
Width: 655
GlyphClass: 2
Flags: MW
HStem: 0 14<41 601 41 41> 0 21<359.5 429 359.5 601> 353 21<235 251.5> 536 21G<560 579 560 560> 674 21<245 250 250 365> 681 14<50 571> 813 49<340 340>
VStem: 140 95<126 353 374 569 569 586> 192 296<764 764> 404 18<239 271.5 439.5 486> 560 19<536 536> 595 20<178 178>
LayerCount: 2
Fore
SplineSet
390 862 m 1x0280
 488 764 l 1
 448 764 l 1
 340 813 l 1
 234 764 l 1
 192 764 l 1
 290 862 l 1
 390 862 l 1x0280
235 374 m 1x3970
 331 374 404 393 404 486 c 1
 422 486 l 1
 422 239 l 1
 404 239 l 1
 404 304 374 334 318 346 c 0
 296 350 268 353 235 353 c 1
 235 124 l 2
 235 85 243 57 267 43 c 0
 294 23 334 21 385 21 c 0x7970
 473 21 544 55 573 112 c 0
 582 129 589 152 595 178 c 1
 615 178 l 1
 601 0 l 1
 41 0 l 1
 41 14 l 1
 76 16 105 27 122 44 c 0
 138 60 140 91 140 126 c 2
 140 569 l 2
 140 603 139 634 125 650 c 0
 110 667 83 679 50 681 c 1
 50 695 l 1
 571 695 l 1xb570
 579 536 l 1
 560 536 l 1
 543 637 484 674 365 674 c 2
 250 674 l 2
 240 674 235 669 235 659 c 2
 235 374 l 1x3970
EndSplineSet
Validated: 1
Substitution2: "'c2sc' Capitals to Small Capitals in Latin lookup 1 subtable" ecircumflex.sc
EndChar

StartChar: Edieresis
Encoding: 395 203 139
Width: 655
GlyphClass: 2
Flags: MW
HStem: 0 14<41 601 41 41> 0 21<359.5 429 359.5 601> 353 21<235 251.5> 536 21G<560 579 560 560> 674 21<245 250 250 365> 681 14<50 571> 764 91<236 261 400.5 425.5>
VStem: 140 95<126 353 374 569 569 586> 203 91<797 823> 367 91<797 823> 404 18<239 271.5 439.5 486> 560 19<536 536> 595 20<178 178>
LayerCount: 2
Fore
SplineSet
248 764 m 0x02c0
 224 764 203 784 203 810 c 0
 203 836 222 855 248 855 c 0
 276 855 294 836 294 810 c 0
 294 784 274 764 248 764 c 0x02c0
413 764 m 0
 388 764 367 784 367 810 c 0
 367 836 386 855 413 855 c 0
 440 855 458 836 458 810 c 0
 458 784 438 764 413 764 c 0
235 374 m 1x3938
 331 374 404 393 404 486 c 1
 422 486 l 1
 422 239 l 1
 404 239 l 1
 404 304 374 334 318 346 c 0
 296 350 268 353 235 353 c 1
 235 124 l 2
 235 85 243 57 267 43 c 0
 294 23 334 21 385 21 c 0x7938
 473 21 544 55 573 112 c 0
 582 129 589 152 595 178 c 1
 615 178 l 1
 601 0 l 1
 41 0 l 1
 41 14 l 1
 76 16 105 27 122 44 c 0
 138 60 140 91 140 126 c 2
 140 569 l 2
 140 603 139 634 125 650 c 0
 110 667 83 679 50 681 c 1
 50 695 l 1
 571 695 l 1xb538
 579 536 l 1
 560 536 l 1
 543 637 484 674 365 674 c 2
 250 674 l 2
 240 674 235 669 235 659 c 2
 235 374 l 1x3938
EndSplineSet
Validated: 1
Substitution2: "'c2sc' Capitals to Small Capitals in Latin lookup 1 subtable" edieresis.sc
EndChar

StartChar: Igrave
Encoding: 396 204 140
Width: 374
GlyphClass: 2
Flags: MW
HStem: 0 14<41 333 41 41> 681 14<50 324 50 324> 764 99
VStem: 74 230<764 842.5> 140 95<144 151 151 544>
LayerCount: 2
Fore
SplineSet
74 832 m 0x30
 74 853 88 863 108 863 c 0
 120 863 132 861 144 856 c 0
 155 851 170 844 187 834 c 2
 304 764 l 1
 250 764 l 1
 142 789 l 2
 121 794 105 801 92 808 c 0
 80 814 74 822 74 832 c 0x30
235 151 m 2xc8
 235 99 234 66 253 39 c 0
 266 17 298 16 333 14 c 1
 333 0 l 1
 41 0 l 1
 41 14 l 1
 78 16 106 19 122 39 c 0
 140 62 140 98 140 144 c 2
 140 551 l 2
 140 593 139 629 125 653 c 0
 111 673 84 679 50 681 c 1
 50 695 l 1
 324 695 l 1
 324 681 l 1
 291 679 263 672 251 652 c 0
 245 642 240 628 238 611 c 0
 235 594 235 571 235 544 c 2
 235 151 l 2xc8
EndSplineSet
Validated: 33
Substitution2: "'c2sc' Capitals to Small Capitals in Latin lookup 1 subtable" igrave.sc
EndChar

StartChar: Iacute
Encoding: 397 205 141
Width: 374
GlyphClass: 2
Flags: MW
HStem: 0 14<41 333 41 41> 681 14<50 324 50 324> 764 0<74 74 128 128>
VStem: 74 230<764 842> 140 95<144 151 151 544>
LayerCount: 2
Fore
SplineSet
270 863 m 0x30
 290 863 304 852 304 832 c 0
 304 822 298 814 285 808 c 0
 273 801 258 794 237 789 c 2
 128 764 l 1
 74 764 l 1
 191 834 l 2
 208 844 223 851 235 856 c 0
 246 861 258 863 270 863 c 0x30
235 151 m 2xc8
 235 99 234 66 253 39 c 0
 266 17 298 16 333 14 c 1
 333 0 l 1
 41 0 l 1
 41 14 l 1
 78 16 106 19 122 39 c 0
 140 62 140 98 140 144 c 2
 140 551 l 2
 140 593 139 629 125 653 c 0
 111 673 84 679 50 681 c 1
 50 695 l 1
 324 695 l 1
 324 681 l 1
 291 679 263 672 251 652 c 0
 245 642 240 628 238 611 c 0
 235 594 235 571 235 544 c 2
 235 151 l 2xc8
EndSplineSet
Validated: 33
Substitution2: "'c2sc' Capitals to Small Capitals in Latin lookup 1 subtable" iacute.sc
EndChar

StartChar: Icircumflex
Encoding: 398 206 142
Width: 374
GlyphClass: 2
Flags: MW
HStem: 0 14<41 333 41 41> 681 14<50 324 50 324> 813 49<187 187>
VStem: 39 296<764 764> 140 95<144 151 151 544>
LayerCount: 2
Fore
SplineSet
237 862 m 1x30
 335 764 l 1
 294 764 l 1
 187 813 l 1
 80 764 l 1
 39 764 l 1
 137 862 l 1
 237 862 l 1x30
235 151 m 2xc8
 235 99 234 66 253 39 c 0
 266 17 298 16 333 14 c 1
 333 0 l 1
 41 0 l 1
 41 14 l 1
 78 16 106 19 122 39 c 0
 140 62 140 98 140 144 c 2
 140 551 l 2
 140 593 139 629 125 653 c 0
 111 673 84 679 50 681 c 1
 50 695 l 1
 324 695 l 1
 324 681 l 1
 291 679 263 672 251 652 c 0
 245 642 240 628 238 611 c 0
 235 594 235 571 235 544 c 2
 235 151 l 2xc8
EndSplineSet
Validated: 33
Substitution2: "'c2sc' Capitals to Small Capitals in Latin lookup 1 subtable" icircumflex.sc
EndChar

StartChar: Idieresis
Encoding: 399 207 143
Width: 374
GlyphClass: 2
Flags: MW
HStem: 0 14<41 333 41 41> 681 14<50 324 50 324> 764 91<92 117.5 257 282.5>
VStem: 60 91 140 95<144 151 151 544> 224 91
LayerCount: 2
Fore
SplineSet
104 764 m 0x34
 80 764 60 784 60 810 c 0
 60 836 79 855 104 855 c 0
 132 855 150 836 150 810 c 0
 150 784 131 764 104 764 c 0x34
270 764 m 0
 244 764 224 784 224 810 c 0
 224 836 243 855 270 855 c 0
 296 855 314 836 314 810 c 0
 314 784 295 764 270 764 c 0
235 151 m 2xc8
 235 99 234 66 253 39 c 0
 266 17 298 16 333 14 c 1
 333 0 l 1
 41 0 l 1
 41 14 l 1
 78 16 106 19 122 39 c 0
 140 62 140 98 140 144 c 2
 140 551 l 2
 140 593 139 629 125 653 c 0
 111 673 84 679 50 681 c 1
 50 695 l 1
 324 695 l 1
 324 681 l 1
 291 679 263 672 251 652 c 0
 245 642 240 628 238 611 c 0
 235 594 235 571 235 544 c 2
 235 151 l 2xc8
EndSplineSet
Validated: 33
Substitution2: "'c2sc' Capitals to Small Capitals in Latin lookup 1 subtable" idieresis.sc
EndChar

StartChar: Ntilde
Encoding: 400 209 144
Width: 802
GlyphClass: 2
Flags: MW
HStem: -9 21G<620 620 620 657> 0 14<41 277 41 41> 681 14<50 222> 764 69<476.5 498.5> 808 66<323.5 353.5>
VStem: 149 21<144 151 151 541 541 562> 255 308<772 871> 636 21<169 534 534 541 -9 559>
LayerCount: 2
Fore
SplineSet
473 764 m 0x12
 418 764 381 808 326 808 c 0
 298 808 294 796 286 772 c 1
 255 772 l 1
 263 824 296 874 351 874 c 0x0a
 377 874 401 863 421 854 c 0
 443 846 462 833 491 833 c 0
 518 833 525 848 533 871 c 1
 563 871 l 1
 558 819 524 764 473 764 c 0x12
620 -9 m 1xa5
 183 566 l 1
 170 566 l 1
 170 151 l 2
 170 89 186 32 230 20 c 0
 243 17 258 15 277 14 c 1
 277 0 l 1
 41 0 l 1
 41 14 l 1x65
 78 16 106 19 122 39 c 0
 140 62 149 98 149 144 c 2
 149 541 l 2
 149 583 139 619 125 643 c 0
 111 663 84 679 50 681 c 1
 50 695 l 1
 222 695 l 1
 622 169 l 1
 636 169 l 1
 636 534 l 2
 636 584 635 618 618 646 c 0
 607 667 570 679 537 681 c 1
 537 695 l 1
 768 695 l 1
 768 681 l 1
 709 678 669 659 660 608 c 0
 657 591 657 569 657 541 c 2
 657 -9 l 1
 620 -9 l 1xa5
EndSplineSet
Validated: 1
Substitution2: "'c2sc' Capitals to Small Capitals in Latin lookup 1 subtable" ntilde.sc
EndChar

StartChar: Ograve
Encoding: 401 210 145
Width: 853
GlyphClass: 2
Flags: MW
HStem: -9 18<352.5 494.5> 686 18<369.5 484.5 369.5 518> 764 99
VStem: 51 118<287.5 398.5> 224 230<764 842.5> 685 117<316 399 287 431>
LayerCount: 2
Fore
SplineSet
224 832 m 0
 224 853 238 863 258 863 c 0
 270 863 282 861 294 856 c 0
 305 851 320 844 337 834 c 2
 454 764 l 1
 400 764 l 1
 292 789 l 2
 271 794 255 801 242 808 c 0
 230 814 224 822 224 832 c 0
427 704 m 0
 542 704 633 658 694 599 c 0
 755 540 802 456 802 342 c 0
 802 232 753 152 693 94 c 0
 633 36 562 -9 427 -9 c 0
 278 -9 221 36 161 94 c 0
 101 150 51 233 51 342 c 0
 51 455 100 541 160 599 c 0
 221 658 312 704 427 704 c 0
427 9 m 0
 580 9 633 114 667 215 c 0
 679 253 685 293 685 339 c 0
 685 523 609 686 427 686 c 0
 256 686 169 512 169 339 c 0
 169 160 249 9 427 9 c 0
EndSplineSet
Validated: 1
Substitution2: "'c2sc' Capitals to Small Capitals in Latin lookup 1 subtable" ograve.sc
EndChar

StartChar: Oacute
Encoding: 402 211 146
Width: 853
GlyphClass: 2
Flags: MW
HStem: -9 18<352.5 494.5> 686 18<369.5 484.5 369.5 518> 764 0<400 400 454 454>
VStem: 51 118<287.5 398.5> 400 230<764 842> 685 117<316 399 287 431>
LayerCount: 2
Fore
SplineSet
596 863 m 0
 616 863 630 852 630 832 c 0
 630 822 624 814 611 808 c 0
 599 801 584 794 563 789 c 2
 454 764 l 1
 400 764 l 1
 517 834 l 2
 534 844 549 851 561 856 c 0
 572 861 584 863 596 863 c 0
427 704 m 0
 542 704 633 658 694 599 c 0
 755 540 802 456 802 342 c 0
 802 232 753 152 693 94 c 0
 633 36 562 -9 427 -9 c 0
 278 -9 221 36 161 94 c 0
 101 150 51 233 51 342 c 0
 51 455 100 541 160 599 c 0
 221 658 312 704 427 704 c 0
427 9 m 0
 580 9 633 114 667 215 c 0
 679 253 685 293 685 339 c 0
 685 523 609 686 427 686 c 0
 256 686 169 512 169 339 c 0
 169 160 249 9 427 9 c 0
EndSplineSet
Validated: 1
Substitution2: "'c2sc' Capitals to Small Capitals in Latin lookup 1 subtable" oacute.sc
EndChar

StartChar: Ocircumflex
Encoding: 403 212 147
Width: 853
GlyphClass: 2
Flags: MW
HStem: -9 18<352.5 494.5> 686 18<369.5 484.5 369.5 518> 813 49<427 427>
VStem: 51 118<287.5 398.5> 279 296<764 764> 685 117<316 399 287 431>
LayerCount: 2
Fore
SplineSet
477 862 m 1
 575 764 l 1
 534 764 l 1
 427 813 l 1
 320 764 l 1
 279 764 l 1
 377 862 l 1
 477 862 l 1
427 704 m 0
 542 704 633 658 694 599 c 0
 755 540 802 456 802 342 c 0
 802 232 753 152 693 94 c 0
 633 36 562 -9 427 -9 c 0
 278 -9 221 36 161 94 c 0
 101 150 51 233 51 342 c 0
 51 455 100 541 160 599 c 0
 221 658 312 704 427 704 c 0
427 9 m 0
 580 9 633 114 667 215 c 0
 679 253 685 293 685 339 c 0
 685 523 609 686 427 686 c 0
 256 686 169 512 169 339 c 0
 169 160 249 9 427 9 c 0
EndSplineSet
Validated: 1
Substitution2: "'c2sc' Capitals to Small Capitals in Latin lookup 1 subtable" ocircumflex.sc
EndChar

StartChar: Otilde
Encoding: 404 213 148
Width: 853
GlyphClass: 2
Flags: MW
HStem: -9 18<352.5 494.5> 686 18<369.5 484.5 369.5 518> 764 69<494.5 516.5> 808 66<341.5 371.5>
VStem: 51 118<287.5 398.5> 273 308<772 871> 685 117<316 399 287 431>
LayerCount: 2
Fore
SplineSet
491 764 m 0x24
 436 764 399 808 344 808 c 0
 316 808 312 796 304 772 c 1
 273 772 l 1
 281 824 314 874 369 874 c 0x14
 395 874 419 863 439 854 c 0
 461 846 480 833 509 833 c 0
 536 833 543 848 551 871 c 1
 581 871 l 1
 576 819 542 764 491 764 c 0x24
427 704 m 0xca
 542 704 633 658 694 599 c 0
 755 540 802 456 802 342 c 0
 802 232 753 152 693 94 c 0
 633 36 562 -9 427 -9 c 0
 278 -9 221 36 161 94 c 0
 101 150 51 233 51 342 c 0
 51 455 100 541 160 599 c 0
 221 658 312 704 427 704 c 0xca
427 9 m 0
 580 9 633 114 667 215 c 0
 679 253 685 293 685 339 c 0
 685 523 609 686 427 686 c 0
 256 686 169 512 169 339 c 0
 169 160 249 9 427 9 c 0
EndSplineSet
Validated: 1
Substitution2: "'c2sc' Capitals to Small Capitals in Latin lookup 1 subtable" otilde.sc
EndChar

StartChar: Odieresis
Encoding: 405 214 149
Width: 853
GlyphClass: 2
Flags: MW
HStem: -9 18<352.5 494.5> 686 18<369.5 484.5 369.5 518> 764 91<332 357.5 497 522.5>
VStem: 51 118<287.5 398.5> 300 91 464 91 685 117<316 399 287 431>
LayerCount: 2
Fore
SplineSet
344 764 m 0
 320 764 300 784 300 810 c 0
 300 836 319 855 344 855 c 0
 372 855 390 836 390 810 c 0
 390 784 371 764 344 764 c 0
510 764 m 0
 484 764 464 784 464 810 c 0
 464 836 483 855 510 855 c 0
 536 855 554 836 554 810 c 0
 554 784 535 764 510 764 c 0
427 704 m 0
 542 704 633 658 694 599 c 0
 755 540 802 456 802 342 c 0
 802 232 753 152 693 94 c 0
 633 36 562 -9 427 -9 c 0
 278 -9 221 36 161 94 c 0
 101 150 51 233 51 342 c 0
 51 455 100 541 160 599 c 0
 221 658 312 704 427 704 c 0
427 9 m 0
 580 9 633 114 667 215 c 0
 679 253 685 293 685 339 c 0
 685 523 609 686 427 686 c 0
 256 686 169 512 169 339 c 0
 169 160 249 9 427 9 c 0
EndSplineSet
Validated: 1
Substitution2: "'c2sc' Capitals to Small Capitals in Latin lookup 1 subtable" odieresis.sc
EndChar

StartChar: multiply
Encoding: 406 215 150
Width: 418
GlyphClass: 2
Flags: MW
HStem: 151 307<84 335>
VStem: 55 308<180 428 428 429>
LayerCount: 2
Fore
SplineSet
55 180 m 1
 180 305 l 1
 55 429 l 1
 84 458 l 1
 209 334 l 1
 334 458 l 1
 363 428 l 1
 238 303 l 1
 362 179 l 1
 335 151 l 1
 210 275 l 1
 85 150 l 1
 55 180 l 1
EndSplineSet
Validated: 1
EndChar

StartChar: Oslash
Encoding: 407 216 151
Width: 853
GlyphClass: 2
Flags: MW
HStem: -9 18<352.5 494.5> 686 18<369.5 484.5 369.5 518>
VStem: 51 118<287.5 398.5> 70 36<-73 -73> 685 117<316 399 287 431> 719 36<749 749>
LayerCount: 2
Fore
SplineSet
719 749 m 1xd4
 755 749 l 1
 106 -73 l 1
 70 -73 l 1
 719 749 l 1xd4
427 704 m 0xe8
 542 704 633 658 694 599 c 0
 755 540 802 456 802 342 c 0
 802 232 753 152 693 94 c 0
 633 36 562 -9 427 -9 c 0
 278 -9 221 36 161 94 c 0
 101 150 51 233 51 342 c 0
 51 455 100 541 160 599 c 0
 221 658 312 704 427 704 c 0xe8
427 9 m 0
 580 9 633 114 667 215 c 0
 679 253 685 293 685 339 c 0
 685 523 609 686 427 686 c 0
 256 686 169 512 169 339 c 0
 169 160 249 9 427 9 c 0
EndSplineSet
Validated: 5
Substitution2: "'c2sc' Capitals to Small Capitals in Latin lookup 1 subtable" oslash.sc
EndChar

StartChar: Ugrave
Encoding: 408 217 152
Width: 777
GlyphClass: 2
Flags: MW
HStem: -9 21<353 469 353 486> 681 14<26 58.5 315.5 334 489 498.5 732.5 751> 764 99
VStem: 126 109<226 495> 186 230<764 842.5> 609 32<225 260 260 472>
LayerCount: 2
Fore
SplineSet
186 832 m 0x28
 186 853 200 863 220 863 c 0
 232 863 244 861 256 856 c 0
 266 851 282 844 298 834 c 2
 416 764 l 1
 362 764 l 1
 254 789 l 2
 232 794 216 801 204 808 c 0
 192 814 186 822 186 832 c 0x28
417 12 m 0xd4
 521 12 609 101 609 225 c 2
 609 472 l 2
 609 525 607 576 602 604 c 0
 594 647 575 671 536 677 c 0
 523 680 508 681 489 681 c 1
 489 695 l 1
 751 695 l 1
 751 681 l 1
 714 681 682 677 667 656 c 0
 658 643 648 624 645 598 c 0
 642 571 641 522 641 472 c 2
 641 260 l 2
 641 103 580 -9 392 -9 c 0
 304 -9 238 7 192 47 c 0
 145 90 126 135 126 226 c 2
 126 495 l 1
 126 608 l 2
 126 656 91 681 26 681 c 1
 26 695 l 1
 334 695 l 1
 334 681 l 1
 297 681 272 678 255 659 c 0
 234 635 235 615 235 495 c 2
 235 219 l 2
 235 91 289 12 417 12 c 0xd4
EndSplineSet
Validated: 33
Substitution2: "'c2sc' Capitals to Small Capitals in Latin lookup 1 subtable" ugrave.sc
EndChar

StartChar: Uacute
Encoding: 409 218 153
Width: 777
GlyphClass: 2
Flags: MW
HStem: -9 21<353 469 353 486> 681 14<26 58.5 315.5 334 489 498.5 732.5 751> 764 0<362 362 416 416>
VStem: 126 109<226 495> 362 230<764 842> 609 32<225 260 260 472>
LayerCount: 2
Fore
SplineSet
558 863 m 0
 578 863 592 852 592 832 c 0
 592 822 586 814 572 808 c 0
 560 801 546 794 524 789 c 2
 416 764 l 1
 362 764 l 1
 478 834 l 2
 496 844 510 851 522 856 c 0
 534 861 546 863 558 863 c 0
417 12 m 0
 521 12 609 101 609 225 c 2
 609 472 l 2
 609 525 607 576 602 604 c 0
 594 647 575 671 536 677 c 0
 523 680 508 681 489 681 c 1
 489 695 l 1
 751 695 l 1
 751 681 l 1
 714 681 682 677 667 656 c 0
 658 643 648 624 645 598 c 0
 642 571 641 522 641 472 c 2
 641 260 l 2
 641 103 580 -9 392 -9 c 0
 304 -9 238 7 192 47 c 0
 145 90 126 135 126 226 c 2
 126 495 l 1
 126 608 l 2
 126 656 91 681 26 681 c 1
 26 695 l 1
 334 695 l 1
 334 681 l 1
 297 681 272 678 255 659 c 0
 234 635 235 615 235 495 c 2
 235 219 l 2
 235 91 289 12 417 12 c 0
EndSplineSet
Validated: 33
Substitution2: "'c2sc' Capitals to Small Capitals in Latin lookup 1 subtable" uacute.sc
EndChar

StartChar: Ucircumflex
Encoding: 410 219 154
Width: 777
GlyphClass: 2
Flags: MW
HStem: -9 21<353 469 353 486> 681 14<26 58.5 315.5 334 489 498.5 732.5 751> 813 49<388 388>
VStem: 126 109<226 495> 240 296<764 764> 609 32<225 260 260 472>
LayerCount: 2
Fore
SplineSet
438 862 m 1
 536 764 l 1
 496 764 l 1
 388 813 l 1
 282 764 l 1
 240 764 l 1
 338 862 l 1
 438 862 l 1
417 12 m 0
 521 12 609 101 609 225 c 2
 609 472 l 2
 609 525 607 576 602 604 c 0
 594 647 575 671 536 677 c 0
 523 680 508 681 489 681 c 1
 489 695 l 1
 751 695 l 1
 751 681 l 1
 714 681 682 677 667 656 c 0
 658 643 648 624 645 598 c 0
 642 571 641 522 641 472 c 2
 641 260 l 2
 641 103 580 -9 392 -9 c 0
 304 -9 238 7 192 47 c 0
 145 90 126 135 126 226 c 2
 126 495 l 1
 126 608 l 2
 126 656 91 681 26 681 c 1
 26 695 l 1
 334 695 l 1
 334 681 l 1
 297 681 272 678 255 659 c 0
 234 635 235 615 235 495 c 2
 235 219 l 2
 235 91 289 12 417 12 c 0
EndSplineSet
Validated: 33
Substitution2: "'c2sc' Capitals to Small Capitals in Latin lookup 1 subtable" ucircumflex.sc
EndChar

StartChar: Udieresis
Encoding: 411 220 155
Width: 777
GlyphClass: 2
Flags: MW
HStem: -9 21<353 469 353 486> 681 14<26 58.5 315.5 334 489 498.5 732.5 751> 764 91<294 319 458.5 483.5>
VStem: 126 109<226 495> 261 91<797 823> 425 91<797 823> 609 32<225 260 260 472>
LayerCount: 2
Fore
SplineSet
306 764 m 0
 282 764 261 784 261 810 c 0
 261 836 280 855 306 855 c 0
 334 855 352 836 352 810 c 0
 352 784 332 764 306 764 c 0
471 764 m 0
 446 764 425 784 425 810 c 0
 425 836 444 855 471 855 c 0
 498 855 516 836 516 810 c 0
 516 784 496 764 471 764 c 0
417 12 m 0
 521 12 609 101 609 225 c 2
 609 472 l 2
 609 525 607 576 602 604 c 0
 594 647 575 671 536 677 c 0
 523 680 508 681 489 681 c 1
 489 695 l 1
 751 695 l 1
 751 681 l 1
 714 681 682 677 667 656 c 0
 658 643 648 624 645 598 c 0
 642 571 641 522 641 472 c 2
 641 260 l 2
 641 103 580 -9 392 -9 c 0
 304 -9 238 7 192 47 c 0
 145 90 126 135 126 226 c 2
 126 495 l 1
 126 608 l 2
 126 656 91 681 26 681 c 1
 26 695 l 1
 334 695 l 1
 334 681 l 1
 297 681 272 678 255 659 c 0
 234 635 235 615 235 495 c 2
 235 219 l 2
 235 91 289 12 417 12 c 0
EndSplineSet
Validated: 33
Substitution2: "'c2sc' Capitals to Small Capitals in Latin lookup 1 subtable" udieresis.sc
EndChar

StartChar: Yacute
Encoding: 412 221 156
Width: 661
GlyphClass: 2
Flags: MW
HStem: 0 14<184 202 466 477 184 202> 681 14<-5 26.5 265 280 459 470 637 665> 764 0<303 303 357 357>
VStem: 283 95<164 171 139.5 274> 303 230<764 842>
LayerCount: 2
Fore
SplineSet
499 863 m 0x28
 519 863 533 852 533 832 c 0
 533 822 527 814 514 808 c 0
 502 801 487 794 466 789 c 2
 357 764 l 1
 303 764 l 1
 420 834 l 2
 437 844 452 851 464 856 c 0
 475 861 487 863 499 863 c 0x28
103 593 m 2xd0
 78 635 58 681 -5 681 c 1
 -5 695 l 1
 280 695 l 1
 280 681 l 1
 250 681 225 678 213 673 c 0
 200 669 194 662 194 650 c 0
 194 637 203 609 217 586 c 2
 361 337 l 1
 368 337 l 1
 470 511 l 2
 522 598 531 612 533 650 c 0
 534 662 523 669 514 673 c 0
 506 678 481 681 459 681 c 1
 459 695 l 1
 665 695 l 1
 665 681 l 1
 609 681 573 651 551 612 c 0
 540 593 522 559 503 527 c 2
 377 312 l 1
 378 171 l 2
 378 108 376 31 424 20 c 0
 438 16 455 14 477 14 c 1
 477 0 l 1
 184 0 l 1
 184 14 l 1
 220 14 252 18 265 38 c 0
 283 63 283 116 283 164 c 2
 283 274 l 1
 103 593 l 2xd0
EndSplineSet
Validated: 33
Substitution2: "'c2sc' Capitals to Small Capitals in Latin lookup 1 subtable" yacute.sc
EndChar

StartChar: Thorn
Encoding: 413 222 157
Width: 630
GlyphClass: 2
Flags: MW
HStem: 0 14<339 361 42 42> 163 24<236 281 281 318 236 281> 513 21<247 252 252 305> 681 14<42 361 328.5 361>
VStem: 142 94<124 129 129 163 108.5 187 187 497 534 566> 478 118<297 366.5 275.5 403.5>
LayerCount: 2
Fore
SplineSet
596 353 m 0
 596 198 478 163 318 163 c 2
 236 163 l 1
 236 129 l 2
 236 88 238 52 258 34 c 0
 277 15 317 14 361 14 c 1
 361 0 l 1
 42 0 l 1
 42 14 l 1
 77 16 107 18 124 35 c 0
 140 51 142 89 142 124 c 2
 142 571 l 2
 142 625 137 665 94 675 c 0
 80 678 63 680 42 681 c 1
 42 695 l 1
 361 695 l 1
 361 681 l 1
 296 681 251 678 240 628 c 0
 238 614 236 589 236 566 c 2
 236 534 l 1
 335 534 l 2
 450 534 539 503 578 428 c 0
 591 405 596 380 596 353 c 0
478 353 m 0
 478 454 405 513 305 513 c 2
 252 513 l 2
 242 513 236 507 236 497 c 2
 236 187 l 1
 281 187 l 2
 396 187 478 241 478 353 c 0
EndSplineSet
Validated: 1
Substitution2: "'c2sc' Capitals to Small Capitals in Latin lookup 1 subtable" thorn.sc
EndChar

StartChar: germandbls
Encoding: 414 223 158
Width: 530
GlyphClass: 2
Flags: MW
HStem: -8 23<308 332.5 308 334.5> 0 18<20 33 190.5 217 20 33> 363 21<246 259> 649 21<219 289>
VStem: 89 76<112 118 118 473 473 478> 234 61 346 98 396 97<146.5 205 134 215>
LayerCount: 2
Fore
SplineSet
89 473 m 2x7e
 89 593 155 670 273 670 c 0
 352 670 404 635 431 582 c 0
 439 562 444 541 444 520 c 0x7e
 444 436 403 394 328 378 c 1
 328 373 l 1
 382 373 420 348 446 317 c 0
 474 284 493 234 493 176 c 0
 493 92 448 31 389 5 c 0
 368 -4 346 -8 323 -8 c 0
 274 -8 234 12 234 56 c 0
 234 77 243 96 262 96 c 0
 277 96 288 87 295 68 c 0
 302 54 288 15 328 15 c 0
 337 15 346 18 354 26 c 0
 384 49 396 119 396 174 c 0xbd
 396 256 367 321 313 348 c 0
 293 357 272 363 246 363 c 1
 246 384 l 1
 320 384 343 435 346 511 c 0
 349 602 317 649 261 649 c 0
 177 649 165 612 165 478 c 2
 165 118 l 2
 165 63 164 18 217 18 c 1
 217 0 l 1
 20 0 l 1
 20 18 l 1
 46 18 67 21 77 35 c 0
 90 53 89 78 89 112 c 2
 89 473 l 2x7e
EndSplineSet
Validated: 33
Substitution2: "'c2sc' Capitals to Small Capitals in Latin lookup 1 subtable" germandbls.sc
Substitution2: "'smcp' Lowercase to Small Capitals in Latin lookup 0 subtable" germandbls.sc
EndChar

StartChar: agrave
Encoding: 415 224 159
Width: 447
GlyphClass: 2
Flags: MW
HStem: -8 26 418 18<187.5 241.5>
VStem: 35 81<83.5 103> 44 86 282 79<145 255 255 255 274 307 307 311>
LayerCount: 2
Fore
SplineSet
116 102 m 0xe8
 116 65 138 18 175 18 c 0
 206 18 238 36 252 57 c 0
 269 80 282 106 282 145 c 2
 282 255 l 1
 228 228 187 210 153 178 c 0
 133 159 116 136 116 102 c 0xe8
144 -7 m 0
 81 -6 35 27 35 88 c 0xe8
 35 118 47 142 64 159 c 0
 92 187 125 204 166 223 c 2
 282 274 l 1
 282 307 l 2
 282 372 285 418 198 418 c 0
 177 418 156 403 148 395 c 0
 138 385 136 371 130 353 c 0
 122 328 109 314 81 314 c 0
 54 314 44 329 44 356 c 0xd8
 44 391 124 436 212 436 c 0
 314 436 361 409 361 311 c 2
 361 109 l 2
 361 47 370 18 394 18 c 0
 413 18 435 35 442 45 c 1
 448 36 l 1
 431 10 402 -8 359 -8 c 0
 308 -8 288 26 288 79 c 1
 285 79 l 1
 262 31 221 -8 144 -7 c 0
31 601 m 0
 31 622 45 633 65 633 c 0
 84 633 104 623 126 603 c 2
 243 496 l 1
 201 496 l 1
 77 554 l 2
 63 560 51 568 44 576 c 0xd8
 35 583 31 591 31 601 c 0
EndSplineSet
Validated: 33
Substitution2: "'smcp' Lowercase to Small Capitals in Latin lookup 0 subtable" agrave.sc
EndChar

StartChar: aacute
Encoding: 416 225 160
Width: 447
GlyphClass: 2
Flags: MW
HStem: -8 26 418 18<187.5 241.5>
VStem: 35 81<83.5 103> 44 86 282 79<145 255 255 255 274 307 307 311>
LayerCount: 2
Fore
SplineSet
116 102 m 0xe8
 116 65 138 18 175 18 c 0
 206 18 238 36 252 57 c 0
 269 80 282 106 282 145 c 2
 282 255 l 1
 228 228 187 210 153 178 c 0
 133 159 116 136 116 102 c 0xe8
144 -7 m 0
 81 -6 35 27 35 88 c 0xe8
 35 118 47 142 64 159 c 0
 92 187 125 204 166 223 c 2
 282 274 l 1
 282 307 l 2
 282 372 285 418 198 418 c 0
 177 418 156 403 148 395 c 0
 138 385 136 371 130 353 c 0
 122 328 109 314 81 314 c 0
 54 314 44 329 44 356 c 0xd8
 44 391 124 436 212 436 c 0
 314 436 361 409 361 311 c 2
 361 109 l 2
 361 47 370 18 394 18 c 0
 413 18 435 35 442 45 c 1
 448 36 l 1
 431 10 402 -8 359 -8 c 0
 308 -8 288 26 288 79 c 1
 285 79 l 1
 262 31 221 -8 144 -7 c 0
359 633 m 0
 380 633 393 621 393 601 c 0
 393 591 388 583 381 576 c 0
 372 568 361 560 347 554 c 2
 223 496 l 1
 181 496 l 1
 298 603 l 2
 320 623 340 633 359 633 c 0
EndSplineSet
Validated: 33
Substitution2: "'smcp' Lowercase to Small Capitals in Latin lookup 0 subtable" aacute.sc
EndChar

StartChar: acircumflex
Encoding: 417 226 161
Width: 447
GlyphClass: 2
Flags: MW
HStem: -8 26 418 18<187.5 241.5> 557 55<212 212>
VStem: 35 81<83.5 103> 44 86 282 79<145 255 255 255 274 307 307 311>
LayerCount: 2
Fore
SplineSet
116 102 m 0xf4
 116 65 138 18 175 18 c 0
 206 18 238 36 252 57 c 0
 269 80 282 106 282 145 c 2
 282 255 l 1
 228 228 187 210 153 178 c 0
 133 159 116 136 116 102 c 0xf4
144 -7 m 0
 81 -6 35 27 35 88 c 0xf4
 35 118 47 142 64 159 c 0
 92 187 125 204 166 223 c 2
 282 274 l 1
 282 307 l 2
 282 372 285 418 198 418 c 0
 177 418 156 403 148 395 c 0
 138 385 136 371 130 353 c 0
 122 328 109 314 81 314 c 0
 54 314 44 329 44 356 c 0xec
 44 391 124 436 212 436 c 0
 314 436 361 409 361 311 c 2
 361 109 l 2
 361 47 370 18 394 18 c 0
 413 18 435 35 442 45 c 1
 448 36 l 1
 431 10 402 -8 359 -8 c 0
 308 -8 288 26 288 79 c 1
 285 79 l 1
 262 31 221 -8 144 -7 c 0
253 612 m 1
 360 496 l 1
 319 496 l 1
 212 557 l 1
 105 496 l 1
 64 496 l 1
 171 612 l 1
 253 612 l 1
EndSplineSet
Validated: 33
Substitution2: "'smcp' Lowercase to Small Capitals in Latin lookup 0 subtable" acircumflex.sc
EndChar

StartChar: atilde
Encoding: 418 227 162
Width: 447
GlyphClass: 2
Flags: MW
HStem: -8 26 418 18<187.5 241.5> 496 69<266.5 301.5> 540 67<126.5 157>
VStem: 35 81<83.5 103> 44 86 282 79<145 255 255 255 274 307 307 311>
LayerCount: 2
Fore
SplineSet
116 102 m 0xca
 116 65 138 18 175 18 c 0
 206 18 238 36 252 57 c 0
 269 80 282 106 282 145 c 2
 282 255 l 1
 228 228 187 210 153 178 c 0
 133 159 116 136 116 102 c 0xca
144 -7 m 0
 81 -6 35 27 35 88 c 0xca
 35 118 47 142 64 159 c 0
 92 187 125 204 166 223 c 2
 282 274 l 1
 282 307 l 2
 282 372 285 418 198 418 c 0
 177 418 156 403 148 395 c 0
 138 385 136 371 130 353 c 0
 122 328 109 314 81 314 c 0
 54 314 44 329 44 356 c 0xc6
 44 391 124 436 212 436 c 0
 314 436 361 409 361 311 c 2
 361 109 l 2
 361 47 370 18 394 18 c 0
 413 18 435 35 442 45 c 1
 448 36 l 1
 431 10 402 -8 359 -8 c 0
 308 -8 288 26 288 79 c 1
 285 79 l 1
 262 31 221 -8 144 -7 c 0
276 496 m 0xe2
 220 496 185 540 129 540 c 0
 100 540 98 529 89 504 c 1
 58 504 l 1
 66 556 99 607 154 607 c 0xd2
 209 607 239 565 294 565 c 0
 321 565 328 580 336 603 c 1
 366 603 l 1
 361 551 327 496 276 496 c 0xe2
EndSplineSet
Validated: 33
Substitution2: "'smcp' Lowercase to Small Capitals in Latin lookup 0 subtable" atilde.sc
EndChar

StartChar: adieresis
Encoding: 419 228 163
Width: 447
GlyphClass: 2
Flags: MW
HStem: -8 26 418 18<187.5 241.5> 496 104<121.5 150.5 273 302.5>
VStem: 35 81<83.5 103> 44 86 84 105 236 104<533 563> 282 79<145 255 255 255 274 307 307 311>
LayerCount: 2
Fore
SplineSet
116 102 m 0xf1
 116 65 138 18 175 18 c 0
 206 18 238 36 252 57 c 0
 269 80 282 106 282 145 c 2
 282 255 l 1
 228 228 187 210 153 178 c 0
 133 159 116 136 116 102 c 0xf1
144 -7 m 0
 81 -6 35 27 35 88 c 0xf1
 35 118 47 142 64 159 c 0
 92 187 125 204 166 223 c 2
 282 274 l 1
 282 307 l 2
 282 372 285 418 198 418 c 0
 177 418 156 403 148 395 c 0
 138 385 136 371 130 353 c 0
 122 328 109 314 81 314 c 0
 54 314 44 329 44 356 c 0xe9
 44 391 124 436 212 436 c 0
 314 436 361 409 361 311 c 2
 361 109 l 2
 361 47 370 18 394 18 c 0
 413 18 435 35 442 45 c 1
 448 36 l 1
 431 10 402 -8 359 -8 c 0
 308 -8 288 26 288 79 c 1
 285 79 l 1
 262 31 221 -8 144 -7 c 0
136 496 m 0
 107 496 84 517 84 548 c 0
 84 579 107 600 136 600 c 0
 165 600 190 579 190 548 c 0xe4
 190 517 165 496 136 496 c 0
288 496 m 0
 257 496 236 518 236 548 c 0
 236 578 258 600 288 600 c 0
 318 600 340 578 340 548 c 0xe2
 340 518 317 496 288 496 c 0
EndSplineSet
Validated: 33
Substitution2: "'smcp' Lowercase to Small Capitals in Latin lookup 0 subtable" adieresis.sc
EndChar

StartChar: aring
Encoding: 420 229 164
Width: 447
GlyphClass: 2
Flags: MW
HStem: -8 26 418 18<187.5 241.5> 496 35<199.5 224 199.5 234.5> 614 39<200 224>
VStem: 35 81<83.5 103> 44 86 134 35 252 39 282 79<145 255 255 255 274 307 307 311>
LayerCount: 2
Fore
SplineSet
116 102 m 0xfa80
 116 65 138 18 175 18 c 0
 206 18 238 36 252 57 c 0
 269 80 282 106 282 145 c 2
 282 255 l 1
 228 228 187 210 153 178 c 0
 133 159 116 136 116 102 c 0xfa80
144 -7 m 0
 81 -6 35 27 35 88 c 0xfa80
 35 118 47 142 64 159 c 0
 92 187 125 204 166 223 c 2
 282 274 l 1
 282 307 l 2
 282 372 285 418 198 418 c 0
 177 418 156 403 148 395 c 0
 138 385 136 371 130 353 c 0
 122 328 109 314 81 314 c 0
 54 314 44 329 44 356 c 0xf680
 44 391 124 436 212 436 c 0
 314 436 361 409 361 311 c 2
 361 109 l 2
 361 47 370 18 394 18 c 0
 413 18 435 35 442 45 c 1
 448 36 l 1
 431 10 402 -8 359 -8 c 0
 308 -8 288 26 288 79 c 1
 285 79 l 1
 262 31 221 -8 144 -7 c 0
212 496 m 0
 167 496 134 529 134 574 c 0
 134 620 166 653 212 653 c 0
 258 653 290 620 290 574 c 0xf3
 290 529 257 496 212 496 c 0
212 614 m 0
 188 614 168 599 168 574 c 0
 168 549 187 531 212 531 c 0
 236 531 252 551 252 574 c 0
 252 598 236 614 212 614 c 0
EndSplineSet
Validated: 33
Substitution2: "'smcp' Lowercase to Small Capitals in Latin lookup 0 subtable" aring.sc
EndChar

StartChar: ae
Encoding: 421 230 165
Width: 696
GlyphClass: 2
Flags: MW
HStem: -8 24 -7 35<162.5 177> 270 20<373 532 532 541.5 373 634 370 532> 418 18<187.5 241.5>
VStem: 35 81<83.5 103> 44 86 273 92<196.5 216.5> 282 83<179 307 179 339.5> 581 78<310 338>
LayerCount: 2
Fore
SplineSet
144 -7 m 0x7680
 81 -7 35 27 35 88 c 0
 35 118 47 142 64 159 c 0
 92 187 125 204 166 223 c 2
 280 273 l 2
 281 275 281 277 282 279 c 2
 282 307 l 2x7980
 282 372 285 418 198 418 c 0
 177 418 156 403 148 395 c 0
 138 385 136 371 130 353 c 0
 122 328 109 314 81 314 c 0
 54 314 44 329 44 356 c 0
 44 391 124 436 212 436 c 0
 282 436 327 423 347 383 c 1
 364 398 384 410 405 419 c 0
 433 431 463 436 495 436 c 0
 600 436 659 391 659 286 c 0
 659 271 652 270 634 270 c 2
 370 270 l 1
 367 260 365 233 365 220 c 0
 365 138 399 64 445 33 c 0
 463 22 484 16 508 16 c 0
 568 16 612 53 646 88 c 1
 656 75 l 1
 603 24 577 -6 485 -8 c 0xb680
 397 -10 328 29 294 96 c 1
 294 96 289 87 285 79 c 0
 259 28 210 -7 144 -7 c 0x7680
116 102 m 0
 116 65 144 28 181 28 c 0
 212 28 238 37 252 58 c 0
 268 80 280 104 282 139 c 1
 276 161 273 184 273 209 c 0x7a80
 273 224 274 239 276 252 c 1
 225 227 186 208 153 178 c 0
 133 159 116 136 116 102 c 0
581 312 m 0
 581 364 562 417 495 418 c 0
 426 419 386 360 373 290 c 1
 532 290 l 2
 551 290 576 286 580 299 c 0
 581 303 581 308 581 312 c 0
EndSplineSet
Validated: 33
Substitution2: "'smcp' Lowercase to Small Capitals in Latin lookup 0 subtable" ae.sc
EndChar

StartChar: ccedilla
Encoding: 422 231 166
Width: 432
GlyphClass: 2
Flags: MW
HStem: -236 29<216.5 248 216.5 259.5> -103 27<206.5 267.5> -8 8<210 258 210 279.5> 331 86<367 367> 418 18<229 276>
VStem: 39 93<194.5 247.5> 135 55 288 54<-170 -142.5>
LayerCount: 2
Fore
SplineSet
260 14 m 0
 316 14 368 45 400 77 c 1
 409 67 l 1
 372 24 325 -8 234 -8 c 0
 137 -8 81 49 54 121 c 0
 45 148 39 178 39 211 c 0
 39 284 64 339 102 375 c 0
 138 413 194 436 264 436 c 0
 305 436 339 428 367 417 c 0
 387 408 406 390 406 365 c 0
 406 342 391 331 367 331 c 0
 342 331 331 342 318 364 c 0
 305 386 304 418 248 418 c 0
 170 418 132 319 132 223 c 0
 132 118 167 14 260 14 c 0
225 -207 m 0
 271 -207 288 -183 288 -157 c 0
 288 -128 277 -104 209 -103 c 0
 204 -103 198 -103 192 -104 c 0
 187 -104 182 -104 177 -105 c 1
 174 -100 l 1
 210 0 l 1
 258 0 l 1
 230 -76 l 1
 305 -76 342 -103 342 -154 c 0
 342 -215 291 -236 228 -236 c 0
 180 -236 135 -224 135 -189 c 0
 135 -173 148 -159 164 -159 c 0
 185 -159 189 -169 190 -184 c 0
 191 -197 208 -207 225 -207 c 0
EndSplineSet
Validated: 5
Substitution2: "'smcp' Lowercase to Small Capitals in Latin lookup 0 subtable" ccedilla.sc
EndChar

StartChar: egrave
Encoding: 423 232 167
Width: 462
GlyphClass: 2
Flags: MW
HStem: -8 22 270 20<139 288 288 297.5 139 400 136 288> 418 18
VStem: 39 92<169 226.5 169 263> 337 88<310 338>
LayerCount: 2
Fore
SplineSet
274 14 m 0
 334 14 378 51 412 86 c 1
 422 75 l 1
 369 24 343 -6 251 -8 c 0
 121 -11 39 80 39 209 c 0
 39 317 95 385 171 419 c 0
 199 431 229 436 261 436 c 0
 366 436 425 391 425 286 c 0
 425 271 418 270 400 270 c 2
 136 270 l 1
 133 260 131 233 131 220 c 0
 131 118 176 14 274 14 c 0
337 312 m 0
 337 364 318 417 251 418 c 0
 182 419 152 360 139 290 c 1
 288 290 l 2
 307 290 332 286 336 299 c 0
 337 303 337 308 337 312 c 0
90 601 m 0
 90 622 104 633 124 633 c 0
 143 633 163 623 185 603 c 2
 302 496 l 1
 260 496 l 1
 136 554 l 2
 122 560 110 568 103 576 c 0
 94 583 90 591 90 601 c 0
EndSplineSet
Validated: 33
Substitution2: "'sups' Superscript in Latin lookup 8 subtable" egrave.superior
Substitution2: "'smcp' Lowercase to Small Capitals in Latin lookup 0 subtable" egrave.sc
EndChar

StartChar: eacute
Encoding: 424 233 168
Width: 462
GlyphClass: 2
Flags: MW
HStem: -8 22 270 20<139 288 288 297.5 139 400 136 288> 418 18
VStem: 39 92<169 226.5 169 263> 337 88<310 338>
LayerCount: 2
Fore
SplineSet
274 14 m 0
 334 14 378 51 412 86 c 1
 422 75 l 1
 369 24 343 -6 251 -8 c 0
 121 -11 39 80 39 209 c 0
 39 317 95 385 171 419 c 0
 199 431 229 436 261 436 c 0
 366 436 425 391 425 286 c 0
 425 271 418 270 400 270 c 2
 136 270 l 1
 133 260 131 233 131 220 c 0
 131 118 176 14 274 14 c 0
337 312 m 0
 337 364 318 417 251 418 c 0
 182 419 152 360 139 290 c 1
 288 290 l 2
 307 290 332 286 336 299 c 0
 337 303 337 308 337 312 c 0
388 633 m 0
 409 633 422 621 422 601 c 0
 422 591 417 583 410 576 c 0
 401 568 390 560 376 554 c 2
 252 496 l 1
 210 496 l 1
 327 603 l 2
 349 623 369 633 388 633 c 0
EndSplineSet
Validated: 33
Substitution2: "'sups' Superscript in Latin lookup 8 subtable" eacute.superior
Substitution2: "'smcp' Lowercase to Small Capitals in Latin lookup 0 subtable" eacute.sc
EndChar

StartChar: ecircumflex
Encoding: 425 234 169
Width: 462
GlyphClass: 2
Flags: MW
HStem: -8 22 270 20<139 288 288 297.5 139 400 136 288> 418 18 557 55<261 261>
VStem: 39 92<169 226.5 169 263> 337 88<310 338>
LayerCount: 2
Fore
SplineSet
274 14 m 0
 334 14 378 51 412 86 c 1
 422 75 l 1
 369 24 343 -6 251 -8 c 0
 121 -11 39 80 39 209 c 0
 39 317 95 385 171 419 c 0
 199 431 229 436 261 436 c 0
 366 436 425 391 425 286 c 0
 425 271 418 270 400 270 c 2
 136 270 l 1
 133 260 131 233 131 220 c 0
 131 118 176 14 274 14 c 0
337 312 m 0
 337 364 318 417 251 418 c 0
 182 419 152 360 139 290 c 1
 288 290 l 2
 307 290 332 286 336 299 c 0
 337 303 337 308 337 312 c 0
302 612 m 1
 409 496 l 1
 368 496 l 1
 261 557 l 1
 154 496 l 1
 113 496 l 1
 220 612 l 1
 302 612 l 1
EndSplineSet
Validated: 33
Substitution2: "'smcp' Lowercase to Small Capitals in Latin lookup 0 subtable" ecircumflex.sc
EndChar

StartChar: edieresis
Encoding: 426 235 170
Width: 462
GlyphClass: 2
Flags: MW
HStem: -8 22 270 20<139 288 288 297.5 139 400 136 288> 418 18 496 104<171 200 321.5 351>
VStem: 39 92<169 226.5 169 263> 134 105 284 104<533 563> 337 88<310 338>
LayerCount: 2
Fore
SplineSet
274 14 m 0xfd
 334 14 378 51 412 86 c 1
 422 75 l 1
 369 24 343 -6 251 -8 c 0
 121 -11 39 80 39 209 c 0
 39 317 95 385 171 419 c 0
 199 431 229 436 261 436 c 0
 366 436 425 391 425 286 c 0
 425 271 418 270 400 270 c 2
 136 270 l 1
 133 260 131 233 131 220 c 0
 131 118 176 14 274 14 c 0xfd
337 312 m 0
 337 364 318 417 251 418 c 0
 182 419 152 360 139 290 c 1
 288 290 l 2
 307 290 332 286 336 299 c 0
 337 303 337 308 337 312 c 0
186 496 m 0
 156 496 134 517 134 548 c 0
 134 579 156 600 186 600 c 0
 214 600 238 579 238 548 c 0
 238 517 214 496 186 496 c 0
336 496 m 0
 306 496 284 518 284 548 c 0
 284 578 307 600 336 600 c 0
 367 600 388 578 388 548 c 0xfe
 388 518 366 496 336 496 c 0
EndSplineSet
Validated: 33
Substitution2: "'smcp' Lowercase to Small Capitals in Latin lookup 0 subtable" edieresis.sc
EndChar

StartChar: igrave
Encoding: 427 236 171
Width: 274
GlyphClass: 2
Flags: MW
HStem: 0 12<28 260 28 28> 391 14<26 39.5> 416 20G<184 184>
VStem: 105 79<106 112 112 226 226 278.5>
LayerCount: 2
Fore
SplineSet
184 112 m 2
 184 64 185 26 220 16 c 0
 230 13 244 13 260 12 c 1
 260 0 l 1
 28 0 l 1
 28 12 l 1
 71 15 96 20 102 59 c 0
 105 72 105 87 105 106 c 2
 105 226 l 2
 105 331 101 350 81 370 c 0
 69 382 53 391 26 391 c 1
 26 405 l 1
 184 436 l 1
 184 112 l 2
-13 601 m 0
 -13 622 1 633 21 633 c 0
 40 633 60 623 82 603 c 2
 199 496 l 1
 157 496 l 1
 33 554 l 2
 19 560 7 568 0 576 c 0
 -9 583 -13 591 -13 601 c 0
EndSplineSet
Validated: 1
Substitution2: "'smcp' Lowercase to Small Capitals in Latin lookup 0 subtable" igrave.sc
EndChar

StartChar: iacute
Encoding: 428 237 172
Width: 274
GlyphClass: 2
Flags: MW
HStem: 0 12<28 260 28 28> 391 14<26 39.5> 416 20G<184 184>
VStem: 105 79<106 112 112 226 226 278.5>
LayerCount: 2
Fore
SplineSet
184 112 m 2
 184 64 185 26 220 16 c 0
 230 13 244 13 260 12 c 1
 260 0 l 1
 28 0 l 1
 28 12 l 1
 71 15 96 20 102 59 c 0
 105 72 105 87 105 106 c 2
 105 226 l 2
 105 331 101 350 81 370 c 0
 69 382 53 391 26 391 c 1
 26 405 l 1
 184 436 l 1
 184 112 l 2
241 633 m 0
 262 633 275 621 275 601 c 0
 275 591 270 583 263 576 c 0
 254 568 243 560 229 554 c 2
 105 496 l 1
 63 496 l 1
 180 603 l 2
 202 623 222 633 241 633 c 0
EndSplineSet
Validated: 1
Substitution2: "'smcp' Lowercase to Small Capitals in Latin lookup 0 subtable" iacute.sc
EndChar

StartChar: icircumflex
Encoding: 429 238 173
Width: 274
GlyphClass: 2
Flags: MW
HStem: 0 12<28 260 28 28> 391 14<26 39.5> 416 20G<184 184> 557 55<137 137>
VStem: 105 79<106 112 112 226 226 278.5>
LayerCount: 2
Fore
SplineSet
184 112 m 2
 184 64 185 26 220 16 c 0
 230 13 244 13 260 12 c 1
 260 0 l 1
 28 0 l 1
 28 12 l 1
 71 15 96 20 102 59 c 0
 105 72 105 87 105 106 c 2
 105 226 l 2
 105 331 101 350 81 370 c 0
 69 382 53 391 26 391 c 1
 26 405 l 1
 184 436 l 1
 184 112 l 2
178 612 m 1
 285 496 l 1
 244 496 l 1
 137 557 l 1
 30 496 l 1
 -11 496 l 1
 96 612 l 1
 178 612 l 1
EndSplineSet
Validated: 1
Substitution2: "'smcp' Lowercase to Small Capitals in Latin lookup 0 subtable" icircumflex.sc
EndChar

StartChar: idieresis
Encoding: 430 239 174
Width: 274
GlyphClass: 2
Flags: MW
HStem: 0 12<28 260 28 28> 391 14<26 39.5> 416 20G<184 184> 496 104<47 76 197.5 227>
VStem: 10 105 105 79<106 112 112 226 226 278.5> 160 104<533 563>
LayerCount: 2
Fore
SplineSet
184 112 m 2xf4
 184 64 185 26 220 16 c 0
 230 13 244 13 260 12 c 1
 260 0 l 1
 28 0 l 1
 28 12 l 1
 71 15 96 20 102 59 c 0
 105 72 105 87 105 106 c 2
 105 226 l 2
 105 331 101 350 81 370 c 0
 69 382 53 391 26 391 c 1
 26 405 l 1
 184 436 l 1
 184 112 l 2xf4
62 496 m 0
 32 496 10 517 10 548 c 0
 10 579 32 600 62 600 c 0
 90 600 114 579 114 548 c 0xf8
 114 517 90 496 62 496 c 0
212 496 m 0
 182 496 160 518 160 548 c 0
 160 578 183 600 212 600 c 0
 243 600 264 578 264 548 c 0xf2
 264 518 242 496 212 496 c 0
EndSplineSet
Validated: 1
Substitution2: "'smcp' Lowercase to Small Capitals in Latin lookup 0 subtable" idieresis.sc
EndChar

StartChar: eth
Encoding: 431 240 175
Width: 516
GlyphClass: 2
Flags: MW
HStem: -8 18<207 264.5> 384 18<228.5 274.5 228.5 291>
VStem: 40 101<182 241.5 152.5 245> 362 103<191 256>
LayerCount: 2
Fore
SplineSet
251 384 m 0
 163 384 141 286 141 197 c 0
 141 108 164 10 250 10 c 0
 337 10 362 99 362 207 c 0
 362 305 331 384 251 384 c 0
250 546 m 1
 225 571 185 597 137 614 c 1
 145 630 l 1
 193 616 253 593 291 570 c 1
 395 630 l 1
 410 609 l 1
 315 555 l 1
 383 506 433 433 454 339 c 0
 461 309 465 279 465 249 c 0
 465 133 415 49 336 12 c 0
 309 -1 280 -8 249 -8 c 0
 152 -8 87 46 56 115 c 0
 45 141 40 167 40 197 c 0
 40 293 94 356 162 386 c 0
 187 397 214 402 243 402 c 0
 306 402 344 376 366 333 c 1
 369 325 l 1
 349 407 321 479 271 527 c 1
 162 466 l 1
 148 487 l 1
 250 546 l 1
EndSplineSet
Validated: 1
Substitution2: "'smcp' Lowercase to Small Capitals in Latin lookup 0 subtable" eth.sc
EndChar

StartChar: ntilde
Encoding: 432 241 176
Width: 555
GlyphClass: 2
Flags: MW
HStem: 0 12<30 242 30 30> 391 14<29 29> 413 23<295.5 355.5> 496 69<337.5 372.5> 540 67<197.5 228>
VStem: 98 77<105 111 111 243 243 250> 395 77<105 111 111 228 228 261>
LayerCount: 2
Fore
SplineSet
172 354 m 1xe6
 208 397 259 436 332 436 c 0
 382 436 424 418 447 391 c 0
 469 360 472 320 472 261 c 2
 472 111 l 2
 472 65 468 26 502 16 c 0
 510 13 523 13 537 12 c 1
 537 0 l 1
 328 0 l 1
 328 12 l 1
 368 15 390 18 393 56 c 0
 395 69 395 84 395 105 c 2
 395 228 l 2
 395 316 398 413 313 413 c 0
 259 413 210 373 189 336 c 0
 175 312 175 287 175 250 c 2
 175 111 l 2
 175 63 170 28 205 16 c 0
 214 13 227 13 242 12 c 1
 242 0 l 1
 30 0 l 1
 30 12 l 1
 69 15 93 18 96 56 c 0
 98 69 98 84 98 105 c 2
 98 243 l 2
 98 345 92 355 73 374 c 0
 61 386 42 390 29 391 c 1
 29 405 l 1
 158 436 l 1
 169 354 l 1
 172 354 l 1xe6
347 496 m 0xf6
 291 496 256 540 200 540 c 0
 171 540 169 529 160 504 c 1
 129 504 l 1
 137 556 170 607 225 607 c 0xee
 280 607 310 565 365 565 c 0
 392 565 399 580 407 603 c 1
 437 603 l 1
 432 551 398 496 347 496 c 0xf6
EndSplineSet
Validated: 33
Substitution2: "'smcp' Lowercase to Small Capitals in Latin lookup 0 subtable" ntilde.sc
EndChar

StartChar: ograve
Encoding: 433 242 177
Width: 528
GlyphClass: 2
Flags: MW
HStem: -8 18<208 300> 418 18<247 307>
VStem: 38 92<200.5 263 167 269> 398 92<217 217>
LayerCount: 2
Fore
SplineSet
262 436 m 0
 368 436 436 377 472 305 c 0
 484 277 490 248 490 217 c 0
 490 145 459 92 422 55 c 0
 386 19 338 -8 262 -8 c 0
 137 -8 90 53 56 126 c 0
 43 155 38 184 38 217 c 0
 38 321 101 389 176 420 c 0
 204 431 232 436 262 436 c 0
262 418 m 0
 174 418 130 309 130 217 c 0
 130 117 154 10 262 10 c 0
 343 10 397 100 398 217 c 0
 399 309 352 418 262 418 c 0
71 601 m 0
 71 622 85 633 105 633 c 0
 124 633 144 623 166 603 c 2
 283 496 l 1
 241 496 l 1
 117 554 l 2
 103 560 91 568 84 576 c 0
 75 583 71 591 71 601 c 0
EndSplineSet
Validated: 33
Substitution2: "'smcp' Lowercase to Small Capitals in Latin lookup 0 subtable" ograve.sc
EndChar

StartChar: oacute
Encoding: 434 243 178
Width: 528
GlyphClass: 2
Flags: MW
HStem: -8 18<208 300> 418 18<247 307>
VStem: 38 92<200.5 263 167 269> 398 92<217 217>
LayerCount: 2
Fore
SplineSet
262 436 m 0
 368 436 436 377 472 305 c 0
 484 277 490 248 490 217 c 0
 490 145 459 92 422 55 c 0
 386 19 338 -8 262 -8 c 0
 137 -8 90 53 56 126 c 0
 43 155 38 184 38 217 c 0
 38 321 101 389 176 420 c 0
 204 431 232 436 262 436 c 0
262 418 m 0
 174 418 130 309 130 217 c 0
 130 117 154 10 262 10 c 0
 343 10 397 100 398 217 c 0
 399 309 352 418 262 418 c 0
419 633 m 0
 440 633 453 621 453 601 c 0
 453 591 448 583 441 576 c 0
 432 568 421 560 407 554 c 2
 283 496 l 1
 241 496 l 1
 358 603 l 2
 380 623 400 633 419 633 c 0
EndSplineSet
Validated: 33
Substitution2: "'smcp' Lowercase to Small Capitals in Latin lookup 0 subtable" oacute.sc
EndChar

StartChar: ocircumflex
Encoding: 435 244 179
Width: 528
GlyphClass: 2
Flags: MW
HStem: -8 18<208 300> 418 18<247 307> 557 55<262 262>
VStem: 38 92<200.5 263 167 269> 398 92<217 217>
LayerCount: 2
Fore
SplineSet
262 436 m 0
 368 436 436 377 472 305 c 0
 484 277 490 248 490 217 c 0
 490 145 459 92 422 55 c 0
 386 19 338 -8 262 -8 c 0
 137 -8 90 53 56 126 c 0
 43 155 38 184 38 217 c 0
 38 321 101 389 176 420 c 0
 204 431 232 436 262 436 c 0
262 418 m 0
 174 418 130 309 130 217 c 0
 130 117 154 10 262 10 c 0
 343 10 397 100 398 217 c 0
 399 309 352 418 262 418 c 0
303 612 m 1
 410 496 l 1
 369 496 l 1
 262 557 l 1
 155 496 l 1
 114 496 l 1
 221 612 l 1
 303 612 l 1
EndSplineSet
Validated: 33
Substitution2: "'smcp' Lowercase to Small Capitals in Latin lookup 0 subtable" ocircumflex.sc
EndChar

StartChar: otilde
Encoding: 436 245 180
Width: 528
GlyphClass: 2
Flags: MW
HStem: -8 18<208 300> 418 18<247 307> 496 69<316.5 351.5> 540 67<176.5 207>
VStem: 38 92<200.5 263 167 269> 398 92<217 217>
LayerCount: 2
Fore
SplineSet
262 436 m 0xcc
 368 436 436 377 472 305 c 0
 484 277 490 248 490 217 c 0
 490 145 459 92 422 55 c 0
 386 19 338 -8 262 -8 c 0
 137 -8 90 53 56 126 c 0
 43 155 38 184 38 217 c 0
 38 321 101 389 176 420 c 0
 204 431 232 436 262 436 c 0xcc
262 418 m 0
 174 418 130 309 130 217 c 0
 130 117 154 10 262 10 c 0
 343 10 397 100 398 217 c 0
 399 309 352 418 262 418 c 0
326 496 m 0xec
 270 496 235 540 179 540 c 0
 150 540 148 529 139 504 c 1
 108 504 l 1
 116 556 149 607 204 607 c 0xdc
 259 607 289 565 344 565 c 0
 371 565 378 580 386 603 c 1
 416 603 l 1
 411 551 377 496 326 496 c 0xec
EndSplineSet
Validated: 33
Substitution2: "'smcp' Lowercase to Small Capitals in Latin lookup 0 subtable" otilde.sc
EndChar

StartChar: odieresis
Encoding: 437 246 181
Width: 528
GlyphClass: 2
Flags: MW
HStem: -8 18<208 300> 418 18<247 307> 496 104<171.5 200.5 323 352.5>
VStem: 38 92<200.5 263 167 269> 134 105 286 104<533 563> 398 92<217 217>
LayerCount: 2
Fore
SplineSet
262 436 m 0
 368 436 436 377 472 305 c 0
 484 277 490 248 490 217 c 0
 490 145 459 92 422 55 c 0
 386 19 338 -8 262 -8 c 0
 137 -8 90 53 56 126 c 0
 43 155 38 184 38 217 c 0
 38 321 101 389 176 420 c 0
 204 431 232 436 262 436 c 0
262 418 m 0
 174 418 130 309 130 217 c 0
 130 117 154 10 262 10 c 0
 343 10 397 100 398 217 c 0
 399 309 352 418 262 418 c 0
186 496 m 0
 157 496 134 517 134 548 c 0
 134 579 157 600 186 600 c 0
 215 600 240 579 240 548 c 0
 240 517 215 496 186 496 c 0
338 496 m 0
 307 496 286 518 286 548 c 0
 286 578 308 600 338 600 c 0
 368 600 390 578 390 548 c 0
 390 518 367 496 338 496 c 0
EndSplineSet
Validated: 33
Substitution2: "'smcp' Lowercase to Small Capitals in Latin lookup 0 subtable" odieresis.sc
EndChar

StartChar: divide
Encoding: 438 247 182
Width: 483
GlyphClass: 2
Flags: MW
HStem: 109 105<229.5 258.5> 283 41<54 431 54 431> 391 106<230 258.5>
VStem: 192 105<146.5 176 429 458>
LayerCount: 2
Fore
SplineSet
244 109 m 0
 215 109 192 132 192 161 c 0
 192 191 214 214 244 214 c 0
 274 214 297 191 297 161 c 0
 297 132 273 109 244 109 c 0
244 391 m 0
 216 391 192 415 192 443 c 0
 192 473 214 497 244 497 c 0
 274 497 297 473 297 443 c 0
 297 415 273 391 244 391 c 0
431 283 m 1
 54 283 l 1
 54 324 l 1
 431 324 l 1
 431 283 l 1
EndSplineSet
Validated: 1
EndChar

StartChar: oslash
Encoding: 439 248 183
Width: 528
GlyphClass: 2
Flags: MW
HStem: -8 18<208 300> 418 18<247 307> 458 20G<459 494 494 494>
VStem: 38 92<200.5 263 167 269> 42 36<-49 -49> 398 92<217 217> 459 35<478 478>
LayerCount: 2
Fore
SplineSet
262 436 m 0xf4
 368 436 436 377 472 305 c 0
 484 277 490 248 490 217 c 0
 490 145 459 92 422 55 c 0
 386 19 338 -8 262 -8 c 0
 137 -8 90 53 56 126 c 0
 43 155 38 184 38 217 c 0
 38 321 101 389 176 420 c 0
 204 431 232 436 262 436 c 0xf4
262 418 m 0
 174 418 130 309 130 217 c 0
 130 117 154 10 262 10 c 0
 343 10 397 100 398 217 c 0
 399 309 352 418 262 418 c 0
459 478 m 1xea
 494 478 l 1
 78 -49 l 1
 42 -49 l 1
 459 478 l 1xea
EndSplineSet
Validated: 37
Substitution2: "'smcp' Lowercase to Small Capitals in Latin lookup 0 subtable" oslash.sc
EndChar

StartChar: ugrave
Encoding: 440 249 184
Width: 540
GlyphClass: 2
Flags: MW
HStem: -8 22 1 12<517.5 524> 414 14<17 163>
VStem: 84 79<178.5 208 208 308 308 331> 374 79<194 308 308 330.5>
LayerCount: 2
Fore
SplineSet
454 105 m 0xb8
 458 66 454 15 493 15 c 0
 501 13 511 13 524 13 c 1
 524 1 l 1x78
 390 -9 l 1
 379 83 l 1
 376 83 l 1
 345 35 318 -6 224 -8 c 0
 176 -9 131 12 110 39 c 0
 88 70 84 112 84 170 c 2
 84 308 l 2
 84 354 78 387 54 403 c 0
 46 408 32 412 17 414 c 1
 17 428 l 1
 163 428 l 1
 163 208 l 2
 163 149 162 109 172 80 c 0
 182 52 201 16 250 14 c 0
 297 12 334 44 361 107 c 0
 371 131 374 160 374 194 c 2
 374 308 l 2
 374 353 372 386 345 403 c 0
 336 408 322 412 307 414 c 1
 307 428 l 1
 453 428 l 1
 453 180 l 2
 453 150 454 125 454 105 c 0xb8
64 601 m 0
 64 622 78 633 98 633 c 0
 117 633 137 623 159 603 c 2
 276 496 l 1
 234 496 l 1
 110 554 l 2
 96 560 84 568 77 576 c 0
 68 583 64 591 64 601 c 0
EndSplineSet
Validated: 33
Substitution2: "'smcp' Lowercase to Small Capitals in Latin lookup 0 subtable" ugrave.sc
EndChar

StartChar: uacute
Encoding: 441 250 185
Width: 540
GlyphClass: 2
Flags: MW
HStem: -8 22 1 12<517.5 524> 414 14<17 163>
VStem: 84 79<178.5 208 208 308 308 331> 374 79<194 308 308 330.5>
LayerCount: 2
Fore
SplineSet
454 105 m 0xb8
 458 66 454 15 493 15 c 0
 501 13 511 13 524 13 c 1
 524 1 l 1x78
 390 -9 l 1
 379 83 l 1
 376 83 l 1
 345 35 318 -6 224 -8 c 0
 176 -9 131 12 110 39 c 0
 88 70 84 112 84 170 c 2
 84 308 l 2
 84 354 78 387 54 403 c 0
 46 408 32 412 17 414 c 1
 17 428 l 1
 163 428 l 1
 163 208 l 2
 163 149 162 109 172 80 c 0
 182 52 201 16 250 14 c 0
 297 12 334 44 361 107 c 0
 371 131 374 160 374 194 c 2
 374 308 l 2
 374 353 372 386 345 403 c 0
 336 408 322 412 307 414 c 1
 307 428 l 1
 453 428 l 1
 453 180 l 2
 453 150 454 125 454 105 c 0xb8
392 633 m 0
 413 633 426 621 426 601 c 0
 426 591 421 583 414 576 c 0
 405 568 394 560 380 554 c 2
 256 496 l 1
 214 496 l 1
 331 603 l 2
 353 623 373 633 392 633 c 0
EndSplineSet
Validated: 33
Substitution2: "'smcp' Lowercase to Small Capitals in Latin lookup 0 subtable" uacute.sc
EndChar

StartChar: ucircumflex
Encoding: 442 251 186
Width: 540
GlyphClass: 2
Flags: MW
HStem: -8 22 1 12<517.5 524> 414 14<17 163> 557 55<255 255>
VStem: 84 79<178.5 208 208 308 308 331> 374 79<194 308 308 330.5>
LayerCount: 2
Fore
SplineSet
454 105 m 0xbc
 458 66 454 15 493 15 c 0
 501 13 511 13 524 13 c 1
 524 1 l 1x7c
 390 -9 l 1
 379 83 l 1
 376 83 l 1
 345 35 318 -6 224 -8 c 0
 176 -9 131 12 110 39 c 0
 88 70 84 112 84 170 c 2
 84 308 l 2
 84 354 78 387 54 403 c 0
 46 408 32 412 17 414 c 1
 17 428 l 1
 163 428 l 1
 163 208 l 2
 163 149 162 109 172 80 c 0
 182 52 201 16 250 14 c 0
 297 12 334 44 361 107 c 0
 371 131 374 160 374 194 c 2
 374 308 l 2
 374 353 372 386 345 403 c 0
 336 408 322 412 307 414 c 1
 307 428 l 1
 453 428 l 1
 453 180 l 2
 453 150 454 125 454 105 c 0xbc
296 612 m 1
 403 496 l 1
 362 496 l 1
 255 557 l 1
 148 496 l 1
 107 496 l 1
 214 612 l 1
 296 612 l 1
EndSplineSet
Validated: 33
Substitution2: "'smcp' Lowercase to Small Capitals in Latin lookup 0 subtable" ucircumflex.sc
EndChar

StartChar: udieresis
Encoding: 443 252 187
Width: 540
GlyphClass: 2
Flags: MW
HStem: -8 22 1 12<517.5 524> 414 14<17 163> 496 104<165 194 315.5 345>
VStem: 84 79<178.5 208 208 308 308 331> 128 105 278 104<533 563> 374 79<194 308 308 330.5>
LayerCount: 2
Fore
SplineSet
454 105 m 0xb9
 458 66 454 15 493 15 c 0
 501 13 511 13 524 13 c 1
 524 1 l 1x79
 390 -9 l 1
 379 83 l 1
 376 83 l 1
 345 35 318 -6 224 -8 c 0
 176 -9 131 12 110 39 c 0
 88 70 84 112 84 170 c 2
 84 308 l 2
 84 354 78 387 54 403 c 0
 46 408 32 412 17 414 c 1
 17 428 l 1
 163 428 l 1
 163 208 l 2
 163 149 162 109 172 80 c 0
 182 52 201 16 250 14 c 0
 297 12 334 44 361 107 c 0
 371 131 374 160 374 194 c 2
 374 308 l 2
 374 353 372 386 345 403 c 0
 336 408 322 412 307 414 c 1
 307 428 l 1
 453 428 l 1
 453 180 l 2
 453 150 454 125 454 105 c 0xb9
180 496 m 0
 150 496 128 517 128 548 c 0
 128 579 150 600 180 600 c 0
 208 600 232 579 232 548 c 0x34
 232 517 208 496 180 496 c 0
330 496 m 0
 300 496 278 518 278 548 c 0
 278 578 301 600 330 600 c 0
 361 600 382 578 382 548 c 0x32
 382 518 360 496 330 496 c 0
EndSplineSet
Validated: 33
Substitution2: "'smcp' Lowercase to Small Capitals in Latin lookup 0 subtable" udieresis.sc
EndChar

StartChar: yacute
Encoding: 444 253 188
Width: 515
GlyphClass: 2
Flags: MW
HStem: -210 83 414 14<4 217 198.5 217 329 348 495 507>
LayerCount: 2
Fore
SplineSet
401 378 m 0
 401 404 367 414 329 414 c 1
 329 428 l 1
 507 428 l 1
 507 414 l 1
 483 414 464 408 453 392 c 0
 436 367 420 318 399 270 c 2
 223 -127 l 2
 198 -182 152 -210 112 -210 c 0
 78 -210 59 -197 61 -172 c 0
 63 -145 88 -128 127 -127 c 0
 167 -126 195 -112 210 -91 c 0
 214 -84 221 -76 225 -65 c 2
 241 -27 l 1
 83 333 l 2
 76 348 69 369 64 377 c 0
 52 394 37 411 4 414 c 1
 4 428 l 1
 217 428 l 1
 217 414 l 1
 180 414 157 405 157 387 c 0
 157 364 177 319 186 299 c 2
 284 76 l 1
 288 75 l 1
 376 273 l 2
 409 348 401 344 401 378 c 0
412 633 m 0
 433 633 446 621 446 601 c 0
 446 591 442 583 434 576 c 0
 426 568 414 560 400 554 c 2
 276 496 l 1
 234 496 l 1
 352 603 l 2
 374 623 394 633 412 633 c 0
EndSplineSet
Validated: 33
Substitution2: "'smcp' Lowercase to Small Capitals in Latin lookup 0 subtable" yacute.sc
EndChar

StartChar: thorn
Encoding: 445 254 189
Width: 528
GlyphClass: 2
Flags: MW
HStem: -202 18<-3 246 -3 -3> -9 23<252 293.5 239 313.5> 418 18<252.5 310> 689 14<-1 -1> 715 20G<151 151>
VStem: 73 78<371 553 553 580> 398 92<183 248 179.5 255>
LayerCount: 2
Fore
SplineSet
281 -9 m 0
 223 -9 182 20 154 52 c 1
 154 -82 l 2
 154 -135 157 -170 199 -179 c 0
 211 -182 225 -183 246 -184 c 1
 246 -202 l 1
 -3 -202 l 1
 -3 -184 l 1
 43 -181 63 -175 71 -136 c 0
 73 -123 73 -109 73 -89 c 2
 73 553 l 2
 73 607 70 642 63 657 c 0
 54 678 27 685 -1 689 c 1
 -1 703 l 1
 151 735 l 1
 151 371 l 1
 154 371 l 1
 184 411 221 436 284 436 c 0
 346 436 399 408 430 372 c 0
 466 335 490 282 490 214 c 0
 490 145 463 93 430 55 c 0
 396 19 346 -9 281 -9 c 0
153 142 m 2
 153 64 206 14 272 14 c 0
 315 14 343 53 363 79 c 0
 385 112 398 155 398 211 c 0
 398 299 351 418 269 418 c 0
 221 418 186 387 170 353 c 0
 157 330 153 297 153 256 c 2
 153 142 l 2
EndSplineSet
Validated: 1
Substitution2: "'smcp' Lowercase to Small Capitals in Latin lookup 0 subtable" thorn.sc
EndChar

StartChar: ydieresis
Encoding: 446 255 190
Width: 515
GlyphClass: 2
Flags: MW
HStem: -210 83 414 14<4 217 198.5 217 329 348 495 507> 496 104<165.5 194.5 316 346>
VStem: 128 105<532.5 563.5> 279 104<533 563>
LayerCount: 2
Fore
SplineSet
401 378 m 0
 401 404 367 414 329 414 c 1
 329 428 l 1
 507 428 l 1
 507 414 l 1
 483 414 464 408 453 392 c 0
 436 367 420 318 399 270 c 2
 223 -127 l 2
 198 -182 152 -210 112 -210 c 0
 78 -210 59 -197 61 -172 c 0
 63 -145 88 -128 127 -127 c 0
 167 -126 195 -112 210 -91 c 0
 214 -84 221 -76 225 -65 c 2
 241 -27 l 1
 83 333 l 2
 76 348 69 369 64 377 c 0
 52 394 37 411 4 414 c 1
 4 428 l 1
 217 428 l 1
 217 414 l 1
 180 414 157 405 157 387 c 0
 157 364 177 319 186 299 c 2
 284 76 l 1
 288 75 l 1
 376 273 l 2
 409 348 401 344 401 378 c 0
180 496 m 0
 151 496 128 517 128 548 c 0
 128 579 151 600 180 600 c 0
 209 600 233 579 233 548 c 0
 233 517 209 496 180 496 c 0
331 496 m 0
 301 496 279 518 279 548 c 0
 279 578 301 600 331 600 c 0
 361 600 383 578 383 548 c 0
 383 518 361 496 331 496 c 0
EndSplineSet
Validated: 33
Substitution2: "'smcp' Lowercase to Small Capitals in Latin lookup 0 subtable" ydieresis.sc
EndChar

StartChar: Amacron
Encoding: 447 256 191
Width: 696
GlyphClass: 2
Flags: MW
HStem: 0 13<414 437.5 414 437.5 679 709> 263 23<198 429 198 436 188 429> 675 20G<337 366 366 366> 764 45<230 474 230 474>
VStem: 230 244<764 809 764 809>
LayerCount: 2
Fore
SplineSet
230 764 m 1
 230 809 l 1
 474 809 l 1
 474 764 l 1
 230 764 l 1
414 13 m 1
 461 13 503 37 503 74 c 0
 503 96 498 112 492 128 c 0
 489 135 487 144 482 154 c 2
 436 263 l 1
 188 263 l 1
 171 222 153 174 140 137 c 0
 134 116 129 100 129 79 c 0
 129 39 170 12 214 12 c 1
 214 0 l 1
 -5 0 l 1
 -5 12 l 1
 32 17 65 49 85 76 c 0
 91 84 97 94 102 107 c 2
 337 695 l 1
 366 695 l 1
 571 186 l 2
 585 153 597 126 607 105 c 0
 629 62 649 13 709 13 c 1
 709 0 l 1
 414 0 l 1
 414 13 l 1
198 286 m 1
 429 286 l 1
 311 573 l 1
 198 286 l 1
EndSplineSet
Validated: 1
Substitution2: "'c2sc' Capitals to Small Capitals in Latin lookup 1 subtable" amacron.sc
EndChar

StartChar: amacron
Encoding: 448 257 192
Width: 447
GlyphClass: 2
Flags: MW
HStem: -8 26 418 18<187.5 241.5> 496 45<90 334 90 334>
VStem: 35 81<83.5 103> 44 86 282 79<145 255 255 255 274 307 307 311>
LayerCount: 2
Fore
SplineSet
116 102 m 0xf4
 116 65 138 18 175 18 c 0
 206 18 238 36 252 57 c 0
 269 80 282 106 282 145 c 2
 282 255 l 1
 228 228 187 210 153 178 c 0
 133 159 116 136 116 102 c 0xf4
144 -7 m 0
 81 -6 35 27 35 88 c 0xf4
 35 118 47 142 64 159 c 0
 92 187 125 204 166 223 c 2
 282 274 l 1
 282 307 l 2
 282 372 285 418 198 418 c 0
 177 418 156 403 148 395 c 0
 138 385 136 371 130 353 c 0
 122 328 109 314 81 314 c 0
 54 314 44 329 44 356 c 0xec
 44 391 124 436 212 436 c 0
 314 436 361 409 361 311 c 2
 361 109 l 2
 361 47 370 18 394 18 c 0
 413 18 435 35 442 45 c 1
 448 36 l 1
 431 10 402 -8 359 -8 c 0
 308 -8 288 26 288 79 c 1
 285 79 l 1
 262 31 221 -8 144 -7 c 0
90 496 m 1
 90 541 l 1
 334 541 l 1
 334 496 l 1
 90 496 l 1
EndSplineSet
Validated: 33
Substitution2: "'smcp' Lowercase to Small Capitals in Latin lookup 0 subtable" amacron.sc
EndChar

StartChar: Abreve
Encoding: 449 258 193
Width: 696
GlyphClass: 2
Flags: MW
HStem: 0 13<414 437.5 414 437.5 679 709> 263 23<198 429 198 436 188 429> 675 20G<337 366 366 366> 764 62<334.5 371 330.5 385.5>
VStem: 227 249<867 867>
LayerCount: 2
Fore
SplineSet
351 826 m 0
 391 826 432 840 443 867 c 1
 476 867 l 1
 470 805 419 764 352 764 c 0
 317 764 285 775 265 793 c 0
 244 809 229 835 227 867 c 1
 260 867 l 1
 271 839 310 826 351 826 c 0
414 13 m 1
 461 13 503 37 503 74 c 0
 503 96 498 112 492 128 c 0
 489 135 487 144 482 154 c 2
 436 263 l 1
 188 263 l 1
 171 222 153 174 140 137 c 0
 134 116 129 100 129 79 c 0
 129 39 170 12 214 12 c 1
 214 0 l 1
 -5 0 l 1
 -5 12 l 1
 32 17 65 49 85 76 c 0
 91 84 97 94 102 107 c 2
 337 695 l 1
 366 695 l 1
 571 186 l 2
 585 153 597 126 607 105 c 0
 629 62 649 13 709 13 c 1
 709 0 l 1
 414 0 l 1
 414 13 l 1
198 286 m 1
 429 286 l 1
 311 573 l 1
 198 286 l 1
EndSplineSet
Validated: 1
Substitution2: "'c2sc' Capitals to Small Capitals in Latin lookup 1 subtable" abreve.sc
EndChar

StartChar: abreve
Encoding: 450 259 194
Width: 447
GlyphClass: 2
Flags: MW
HStem: -8 26 418 18<187.5 241.5> 496 62<190.5 233 190.5 248>
VStem: 35 81<83.5 103> 44 86 88 33 282 79<145 255 255 255 274 307 307 311> 304 33
LayerCount: 2
Fore
SplineSet
116 102 m 0xf2
 116 65 138 18 175 18 c 0
 206 18 238 36 252 57 c 0
 269 80 282 106 282 145 c 2
 282 255 l 1
 228 228 187 210 153 178 c 0
 133 159 116 136 116 102 c 0xf2
144 -7 m 0
 81 -6 35 27 35 88 c 0xf2
 35 118 47 142 64 159 c 0
 92 187 125 204 166 223 c 2
 282 274 l 1
 282 307 l 2
 282 372 285 418 198 418 c 0
 177 418 156 403 148 395 c 0
 138 385 136 371 130 353 c 0
 122 328 109 314 81 314 c 0
 54 314 44 329 44 356 c 0xea
 44 391 124 436 212 436 c 0
 314 436 361 409 361 311 c 2
 361 109 l 2
 361 47 370 18 394 18 c 0
 413 18 435 35 442 45 c 1
 448 36 l 1
 431 10 402 -8 359 -8 c 0
 308 -8 288 26 288 79 c 1
 285 79 l 1
 262 31 221 -8 144 -7 c 0
212 558 m 0
 254 558 294 580 304 613 c 1
 336 613 l 1
 333 545 284 496 212 496 c 0
 140 496 92 544 88 613 c 1
 120 613 l 1xe5
 130 579 169 558 212 558 c 0
EndSplineSet
Validated: 33
Substitution2: "'smcp' Lowercase to Small Capitals in Latin lookup 0 subtable" abreve.sc
EndChar

StartChar: Aogonek
Encoding: 451 260 195
Width: 696
GlyphClass: 2
Flags: MW
HStem: -214 44<565.5 580.5> 0 13<414 437.5 414 437.5 679 709> 263 23<198 429 198 436 188 429> 675 20G<337 366 366 366>
VStem: 461 71<-129.5 -122.5>
LayerCount: 2
Fore
SplineSet
532 -117 m 0
 532 -142 553 -170 578 -170 c 0
 590 -170 612 -164 628 -158 c 0
 643 -152 664 -141 679 -125 c 1
 694 -139 l 1
 660 -184 612 -214 549 -214 c 0
 495 -214 461 -188 461 -137 c 0
 461 -108 473 -81 496 -56 c 0
 519 -31 553 -10 595 7 c 1
 643 7 l 1
 643 3 l 1
 614 -11 583 -30 562 -54 c 0
 546 -71 532 -90 532 -117 c 0
414 13 m 1
 461 13 503 37 503 74 c 0
 503 96 498 112 492 128 c 0
 489 135 487 144 482 154 c 2
 436 263 l 1
 188 263 l 1
 171 222 153 174 140 137 c 0
 134 116 129 100 129 79 c 0
 129 39 170 12 214 12 c 1
 214 0 l 1
 -5 0 l 1
 -5 12 l 1
 32 17 65 49 85 76 c 0
 91 84 97 94 102 107 c 2
 337 695 l 1
 366 695 l 1
 571 186 l 2
 585 153 597 126 607 105 c 0
 629 62 649 13 709 13 c 1
 709 0 l 1
 414 0 l 1
 414 13 l 1
198 286 m 1
 429 286 l 1
 311 573 l 1
 198 286 l 1
EndSplineSet
Validated: 5
Substitution2: "'c2sc' Capitals to Small Capitals in Latin lookup 1 subtable" aogonek.sc
EndChar

StartChar: aogonek
Encoding: 452 261 196
Width: 447
GlyphClass: 2
Flags: MW
HStem: -222 44<317.5 332.5> -8 7<347 380.5> -7 25 418 18<187.5 241.5>
VStem: 35 81<83.5 103> 44 86 213 71<-137.5 -130.5> 282 79<145 255 255 255 274 307 307 311>
LayerCount: 2
Fore
SplineSet
116 102 m 0xb9
 116 65 138 18 175 18 c 0
 206 18 238 36 252 57 c 0
 269 80 282 106 282 145 c 2
 282 255 l 1
 228 228 187 210 153 178 c 0
 133 159 116 136 116 102 c 0xb9
144 -7 m 0
 81 -6 35 27 35 88 c 0xb9
 35 118 47 142 64 159 c 0
 92 187 125 204 166 223 c 2
 282 274 l 1
 282 307 l 2
 282 372 285 418 198 418 c 0
 177 418 156 403 148 395 c 0
 138 385 136 371 130 353 c 0
 122 328 109 314 81 314 c 0
 54 314 44 329 44 356 c 0
 44 391 124 436 212 436 c 0
 314 436 361 409 361 311 c 2
 361 109 l 2
 361 47 370 18 394 18 c 0xb5
 413 18 435 35 442 45 c 1
 448 36 l 1
 431 10 402 -8 359 -8 c 0xd5
 308 -8 288 26 288 79 c 1
 285 79 l 1
 262 31 221 -8 144 -7 c 0
284 -125 m 0xd2
 284 -150 305 -178 330 -178 c 0
 342 -178 364 -172 380 -166 c 0
 395 -160 416 -149 431 -133 c 1
 446 -147 l 1
 412 -192 364 -222 301 -222 c 0
 247 -222 213 -196 213 -145 c 0
 213 -116 225 -89 248 -64 c 0
 271 -39 305 -18 347 -1 c 1
 395 -1 l 1
 395 -5 l 1
 366 -19 335 -38 314 -62 c 0
 298 -79 284 -98 284 -125 c 0xd2
EndSplineSet
Validated: 37
Substitution2: "'smcp' Lowercase to Small Capitals in Latin lookup 0 subtable" aogonek.sc
EndChar

StartChar: Cacute
Encoding: 453 262 197
Width: 723
GlyphClass: 2
Flags: MW
HStem: -9 21<329 447> 0 21G<652 672 652 652> 675 20G<627 647 647 647> 676 28<345.5 444.5 344.5 466.5> 764 0<343 343 397 397>
VStem: 54 121<281.5 366 253 394> 343 230<764 842> 637 18<487 487> 652 20<0 225>
LayerCount: 2
Fore
SplineSet
539 863 m 0x0a
 559 863 573 852 573 832 c 0
 573 822 567 814 554 808 c 0
 542 801 527 794 506 789 c 2
 397 764 l 1
 343 764 l 1
 460 834 l 2
 477 844 492 851 504 856 c 0
 515 861 527 863 539 863 c 0x0a
400 704 m 0x9480
 489 704 543 678 606 639 c 1
 627 695 l 1
 647 695 l 1x2480
 655 487 l 1
 637 487 l 1
 611 584 525 676 408 676 c 0
 283 676 217 576 191 474 c 0
 180 435 175 391 175 341 c 0
 175 165 244 12 411 12 c 0x95
 544 12 621 101 654 225 c 1
 672 225 l 1
 672 0 l 1
 652 0 l 1x4480
 619 71 l 1
 556 18 504 -9 390 -9 c 0
 268 -9 200 27 146 85 c 1
 89 140 54 227 54 336 c 0
 54 452 93 541 150 602 c 0
 207 661 289 704 400 704 c 0x9480
EndSplineSet
Validated: 1
Substitution2: "'c2sc' Capitals to Small Capitals in Latin lookup 1 subtable" cacute.sc
EndChar

StartChar: cacute
Encoding: 454 263 198
Width: 432
GlyphClass: 2
Flags: MW
HStem: -8 22<213.5 279.5> 331 86<367 367> 418 18<229 276>
VStem: 39 93<194.5 247.5>
LayerCount: 2
Fore
SplineSet
260 14 m 0
 316 14 368 45 400 77 c 1
 409 67 l 1
 372 24 325 -8 234 -8 c 0
 137 -8 81 49 54 121 c 0
 45 148 39 178 39 211 c 0
 39 284 64 339 102 375 c 0
 138 413 194 436 264 436 c 0
 305 436 339 428 367 417 c 0
 387 408 406 390 406 365 c 0
 406 342 391 331 367 331 c 0
 342 331 331 342 318 364 c 0
 305 386 304 418 248 418 c 0
 170 418 132 319 132 223 c 0
 132 118 167 14 260 14 c 0
391 633 m 0
 412 633 425 621 425 601 c 0
 425 591 420 583 413 576 c 0
 404 568 393 560 379 554 c 2
 255 496 l 1
 213 496 l 1
 330 603 l 2
 352 623 372 633 391 633 c 0
EndSplineSet
Validated: 1
Substitution2: "'smcp' Lowercase to Small Capitals in Latin lookup 0 subtable" cacute.sc
EndChar

StartChar: Ccircumflex
Encoding: 455 264 199
Width: 723
GlyphClass: 2
Flags: MW
HStem: -9 21<329 447> 0 21G<652 672 652 652> 675 20G<627 647 647 647> 676 28<345.5 444.5 344.5 466.5> 813 49<400 400>
VStem: 54 121<281.5 366 253 394> 252 296<764 764> 637 18<487 487> 652 20<0 225>
LayerCount: 2
Fore
SplineSet
450 862 m 1x0a
 548 764 l 1
 507 764 l 1
 400 813 l 1
 293 764 l 1
 252 764 l 1
 350 862 l 1
 450 862 l 1x0a
400 704 m 0x9480
 489 704 543 678 606 639 c 1
 627 695 l 1
 647 695 l 1x2480
 655 487 l 1
 637 487 l 1
 611 584 525 676 408 676 c 0
 283 676 217 576 191 474 c 0
 180 435 175 391 175 341 c 0
 175 165 244 12 411 12 c 0x95
 544 12 621 101 654 225 c 1
 672 225 l 1
 672 0 l 1
 652 0 l 1x4480
 619 71 l 1
 556 18 504 -9 390 -9 c 0
 268 -9 200 27 146 85 c 1
 89 140 54 227 54 336 c 0
 54 452 93 541 150 602 c 0
 207 661 289 704 400 704 c 0x9480
EndSplineSet
Validated: 1
Substitution2: "'c2sc' Capitals to Small Capitals in Latin lookup 1 subtable" ccircumflex.sc
EndChar

StartChar: ccircumflex
Encoding: 456 265 200
Width: 432
GlyphClass: 2
Flags: MW
HStem: -8 22<213.5 279.5> 331 86<367 367> 418 18<229 276> 557 55<264 264>
VStem: 39 93<194.5 247.5>
LayerCount: 2
Fore
SplineSet
260 14 m 0
 316 14 368 45 400 77 c 1
 409 67 l 1
 372 24 325 -8 234 -8 c 0
 137 -8 81 49 54 121 c 0
 45 148 39 178 39 211 c 0
 39 284 64 339 102 375 c 0
 138 413 194 436 264 436 c 0
 305 436 339 428 367 417 c 0
 387 408 406 390 406 365 c 0
 406 342 391 331 367 331 c 0
 342 331 331 342 318 364 c 0
 305 386 304 418 248 418 c 0
 170 418 132 319 132 223 c 0
 132 118 167 14 260 14 c 0
305 612 m 1
 412 496 l 1
 371 496 l 1
 264 557 l 1
 157 496 l 1
 116 496 l 1
 223 612 l 1
 305 612 l 1
EndSplineSet
Validated: 1
Substitution2: "'smcp' Lowercase to Small Capitals in Latin lookup 0 subtable" ccircumflex.sc
EndChar

StartChar: Cdotaccent
Encoding: 457 266 201
Width: 723
GlyphClass: 2
Flags: MW
HStem: -9 21<329 447> 0 21G<652 672 652 652> 675 20G<627 647 647 647> 676 28<345.5 444.5 344.5 466.5> 764 97<386 411.5>
VStem: 54 121<281.5 366 253 394> 352 97 637 18<487 487> 652 20<0 225>
LayerCount: 2
Fore
SplineSet
398 764 m 0x0a
 374 764 352 786 352 811 c 0
 352 836 373 861 398 861 c 0
 425 861 448 838 448 811 c 0
 448 785 425 764 398 764 c 0x0a
400 704 m 0x9480
 489 704 543 678 606 639 c 1
 627 695 l 1
 647 695 l 1x2480
 655 487 l 1
 637 487 l 1
 611 584 525 676 408 676 c 0
 283 676 217 576 191 474 c 0
 180 435 175 391 175 341 c 0
 175 165 244 12 411 12 c 0x95
 544 12 621 101 654 225 c 1
 672 225 l 1
 672 0 l 1
 652 0 l 1x4480
 619 71 l 1
 556 18 504 -9 390 -9 c 0
 268 -9 200 27 146 85 c 1
 89 140 54 227 54 336 c 0
 54 452 93 541 150 602 c 0
 207 661 289 704 400 704 c 0x9480
EndSplineSet
Validated: 1
Substitution2: "'c2sc' Capitals to Small Capitals in Latin lookup 1 subtable" cdotaccent.sc
EndChar

StartChar: cdotaccent
Encoding: 458 267 202
Width: 432
GlyphClass: 2
Flags: MW
HStem: -8 22<213.5 279.5> 331 86<367 367> 418 18<229 276> 496 112<249 279 249 279.5>
VStem: 39 93<194.5 247.5> 208 112<536.5 567>
LayerCount: 2
Fore
SplineSet
260 14 m 0
 316 14 368 45 400 77 c 1
 409 67 l 1
 372 24 325 -8 234 -8 c 0
 137 -8 81 49 54 121 c 0
 45 148 39 178 39 211 c 0
 39 284 64 339 102 375 c 0
 138 413 194 436 264 436 c 0
 305 436 339 428 367 417 c 0
 387 408 406 390 406 365 c 0
 406 342 391 331 367 331 c 0
 342 331 331 342 318 364 c 0
 305 386 304 418 248 418 c 0
 170 418 132 319 132 223 c 0
 132 118 167 14 260 14 c 0
264 496 m 0
 233 496 208 521 208 552 c 0
 208 582 234 608 264 608 c 0
 294 608 320 582 320 552 c 0
 320 521 295 496 264 496 c 0
EndSplineSet
Validated: 1
Substitution2: "'smcp' Lowercase to Small Capitals in Latin lookup 0 subtable" cdotaccent.sc
EndChar

StartChar: Ccaron
Encoding: 459 268 203
Width: 723
GlyphClass: 2
Flags: MW
HStem: -9 21<329 447> 0 21G<652 672 652 652> 675 20G<627 647 647 647> 676 28<345.5 444.5 344.5 466.5> 764 50<400 400 400 450>
VStem: 54 121<281.5 366 253 394> 252 296<862 862> 637 18<487 487> 652 20<0 225>
LayerCount: 2
Fore
SplineSet
350 764 m 1x0a
 252 862 l 1
 293 862 l 1
 400 814 l 1
 507 862 l 1
 548 862 l 1
 450 764 l 1
 350 764 l 1x0a
400 704 m 0x9480
 489 704 543 678 606 639 c 1
 627 695 l 1
 647 695 l 1x2480
 655 487 l 1
 637 487 l 1
 611 584 525 676 408 676 c 0
 283 676 217 576 191 474 c 0
 180 435 175 391 175 341 c 0
 175 165 244 12 411 12 c 0x95
 544 12 621 101 654 225 c 1
 672 225 l 1
 672 0 l 1
 652 0 l 1x4480
 619 71 l 1
 556 18 504 -9 390 -9 c 0
 268 -9 200 27 146 85 c 1
 89 140 54 227 54 336 c 0
 54 452 93 541 150 602 c 0
 207 661 289 704 400 704 c 0x9480
EndSplineSet
Validated: 1
Substitution2: "'c2sc' Capitals to Small Capitals in Latin lookup 1 subtable" ccaron.sc
EndChar

StartChar: ccaron
Encoding: 460 269 204
Width: 432
GlyphClass: 2
Flags: MW
HStem: -8 22<213.5 279.5> 331 86<367 367> 418 18<229 276> 496 55<223 264 264 264 264 305>
VStem: 39 93<194.5 247.5>
LayerCount: 2
Fore
SplineSet
260 14 m 0
 316 14 368 45 400 77 c 1
 409 67 l 1
 372 24 325 -8 234 -8 c 0
 137 -8 81 49 54 121 c 0
 45 148 39 178 39 211 c 0
 39 284 64 339 102 375 c 0
 138 413 194 436 264 436 c 0
 305 436 339 428 367 417 c 0
 387 408 406 390 406 365 c 0
 406 342 391 331 367 331 c 0
 342 331 331 342 318 364 c 0
 305 386 304 418 248 418 c 0
 170 418 132 319 132 223 c 0
 132 118 167 14 260 14 c 0
223 496 m 1
 116 612 l 1
 157 612 l 1
 264 551 l 1
 371 612 l 1
 412 612 l 1
 305 496 l 1
 223 496 l 1
EndSplineSet
Validated: 1
Substitution2: "'smcp' Lowercase to Small Capitals in Latin lookup 0 subtable" ccaron.sc
EndChar

StartChar: Dcaron
Encoding: 461 270 205
Width: 797
GlyphClass: 2
Flags: MW
HStem: 0 14<34 34 34 387> 0 21<327.5 387> 674 21<248 253 253 367> 681 14<52 369> 764 50<390 390 390 440>
VStem: 143 94<123 124 124 572 572 589.5> 242 296<862 862> 627 118<282.5 392 282.5 427>
LayerCount: 2
Fore
SplineSet
340 764 m 1x0a
 242 862 l 1
 282 862 l 1
 390 814 l 1
 496 862 l 1
 538 862 l 1
 440 764 l 1
 340 764 l 1x0a
34 0 m 1x85
 34 14 l 1
 72 16 104 23 123 40 c 0
 140 57 143 85 143 123 c 2
 143 572 l 2
 143 607 141 636 126 653 c 0
 115 671 83 679 52 681 c 1
 52 695 l 1x95
 369 695 l 2
 485 695 576 652 639 593 c 0
 699 535 745 448 745 336 c 0
 745 229 702 148 644 94 c 0
 586 38 497 0 387 0 c 2x65
 34 0 l 1x85
372 21 m 0x65
 546 21 627 155 627 334 c 0
 627 520 551 674 367 674 c 2
 253 674 l 2
 243 674 237 668 237 658 c 2
 237 124 l 2
 237 55 283 21 372 21 c 0x65
EndSplineSet
Validated: 1
Substitution2: "'c2sc' Capitals to Small Capitals in Latin lookup 1 subtable" dcaron.sc
EndChar

StartChar: dcaron
Encoding: 462 271 206
Width: 608
GlyphClass: 2
Flags: MW
HStem: -8 20<202.5 264> 1 14<518.5 525> 418 18<216.5 272> 537 21G<564 590 564 564> 691 14<288 302.5> 715 20G<454 454 564.5 589.5>
VStem: 38 92<170 247.5> 377 77<382 530 530 606 606 624.5> 391 64 534 85<688.5 702.5 687.5 703.5> 564 26<537 537>
LayerCount: 2
Fore
SplineSet
249 436 m 0xbe80
 309 436 344 415 377 382 c 1
 377 530 l 2
 377 560 379 585 377 606 c 0
 377 643 370 658 349 674 c 0
 336 684 317 691 288 691 c 1
 288 705 l 1
 454 735 l 1
 454 204 l 2xbf
 454 166 454 130 455 107 c 0
 457 61 455 22 494 16 c 0
 502 15 512 15 525 15 c 1
 525 1 l 1x7e80
 391 -8 l 1
 391 68 l 1
 381 69 l 1
 361 41 358 33 327 10 c 0
 306 -5 279 -8 249 -8 c 0
 119 -8 38 86 38 215 c 0
 38 280 63 338 98 373 c 0
 130 410 184 436 249 436 c 0xbe80
249 418 m 0
 162 418 130 315 130 219 c 0
 130 121 156 12 249 12 c 0
 285 12 314 22 334 39 c 0
 359 60 375 98 375 162 c 2
 375 268 l 2
 375 319 374 344 353 370 c 0
 331 397 295 418 249 418 c 0
577 735 m 0
 602 735 619 715 619 690 c 0x3e40
 619 685 618 676 615 665 c 0
 609 623 599 577 590 537 c 1
 564 537 l 1x3e20
 554 578 546 624 538 665 c 0
 535 678 534 686 534 691 c 0x3e40
 534 716 552 735 577 735 c 0
EndSplineSet
Validated: 33
Substitution2: "'smcp' Lowercase to Small Capitals in Latin lookup 0 subtable" dcaron.sc
EndChar

StartChar: Dcroat
Encoding: 463 272 207
Width: 797
GlyphClass: 2
Flags: MW
HStem: 0 14<34 34 34 387> 0 21<327.5 387> 358 24<69 384 69 384> 674 21<248 253 253 367> 681 14<52 369>
VStem: 143 94<123 124 124 572 572 589.5> 627 118<282.5 392 282.5 427>
LayerCount: 2
Fore
SplineSet
69 382 m 1x26
 384 382 l 1
 384 358 l 1
 69 358 l 1
 69 382 l 1x26
34 0 m 1x86
 34 14 l 1
 72 16 104 23 123 40 c 0
 140 57 143 85 143 123 c 2
 143 572 l 2
 143 607 141 636 126 653 c 0
 115 671 83 679 52 681 c 1
 52 695 l 1x8e
 369 695 l 2
 485 695 576 652 639 593 c 0
 699 535 745 448 745 336 c 0
 745 229 702 148 644 94 c 0
 586 38 497 0 387 0 c 2x56
 34 0 l 1x86
372 21 m 0x56
 546 21 627 155 627 334 c 0
 627 520 551 674 367 674 c 2
 253 674 l 2
 243 674 237 668 237 658 c 2
 237 124 l 2
 237 55 283 21 372 21 c 0x56
EndSplineSet
Validated: 5
Substitution2: "'c2sc' Capitals to Small Capitals in Latin lookup 1 subtable" dcroat.sc
EndChar

StartChar: dcroat
Encoding: 464 273 208
Width: 545
GlyphClass: 2
Flags: MW
HStem: -8 20<202.5 264> 1 14<518.5 525> 418 18<216.5 272> 514 24<297 523> 691 14<288 302.5> 715 20G<454 454>
VStem: 38 92<170 247.5> 377 77<382 530 530 606 606 624.5> 391 64
LayerCount: 2
Fore
SplineSet
297 538 m 1x3e
 523 538 l 1
 523 512 l 1
 297 514 l 1
 297 538 l 1x3e
249 436 m 0xae80
 309 436 344 415 377 382 c 1
 377 530 l 2
 377 560 379 585 377 606 c 0
 377 643 370 658 349 674 c 0
 336 684 317 691 288 691 c 1
 288 705 l 1
 454 735 l 1
 454 204 l 2xaf
 454 166 454 130 455 107 c 0
 457 61 455 22 494 16 c 0
 502 15 512 15 525 15 c 1
 525 1 l 1x6e80
 391 -8 l 1
 391 68 l 1
 381 69 l 1
 361 41 358 33 327 10 c 0
 306 -5 279 -8 249 -8 c 0
 119 -8 38 86 38 215 c 0
 38 280 63 338 98 373 c 0
 130 410 184 436 249 436 c 0xae80
249 418 m 0
 162 418 130 315 130 219 c 0
 130 121 156 12 249 12 c 0
 285 12 314 22 334 39 c 0
 359 60 375 98 375 162 c 2
 375 268 l 2
 375 319 374 344 353 370 c 0
 331 397 295 418 249 418 c 0
EndSplineSet
Validated: 37
Substitution2: "'smcp' Lowercase to Small Capitals in Latin lookup 0 subtable" dcroat.sc
EndChar

StartChar: Emacron
Encoding: 465 274 209
Width: 655
GlyphClass: 2
Flags: MW
HStem: 0 14<41 601 41 41> 0 21<359.5 429 359.5 601> 353 21<235 251.5> 536 21G<560 579 560 560> 674 21<245 250 250 365> 681 14<50 571> 764 45<218 462 218 462>
VStem: 140 95<126 353 374 569 569 586> 218 244<764 809 764 809> 404 18<239 271.5 439.5 486> 560 19<536 536> 595 20<178 178>
LayerCount: 2
Fore
SplineSet
218 764 m 1x0280
 218 809 l 1
 462 809 l 1
 462 764 l 1
 218 764 l 1x0280
235 374 m 1x3970
 331 374 404 393 404 486 c 1
 422 486 l 1
 422 239 l 1
 404 239 l 1
 404 304 374 334 318 346 c 0
 296 350 268 353 235 353 c 1
 235 124 l 2
 235 85 243 57 267 43 c 0
 294 23 334 21 385 21 c 0x7970
 473 21 544 55 573 112 c 0
 582 129 589 152 595 178 c 1
 615 178 l 1
 601 0 l 1
 41 0 l 1
 41 14 l 1
 76 16 105 27 122 44 c 0
 138 60 140 91 140 126 c 2
 140 569 l 2
 140 603 139 634 125 650 c 0
 110 667 83 679 50 681 c 1
 50 695 l 1
 571 695 l 1xb570
 579 536 l 1
 560 536 l 1
 543 637 484 674 365 674 c 2
 250 674 l 2
 240 674 235 669 235 659 c 2
 235 374 l 1x3970
EndSplineSet
Validated: 1
Substitution2: "'c2sc' Capitals to Small Capitals in Latin lookup 1 subtable" emacron.sc
EndChar

StartChar: emacron
Encoding: 466 275 210
Width: 462
GlyphClass: 2
Flags: MW
HStem: -8 22 270 20<139 288 288 297.5 139 400 136 288> 418 18 496 45<139 383 139 383>
VStem: 39 92<169 226.5 169 263> 337 88<310 338>
LayerCount: 2
Fore
SplineSet
274 14 m 0
 334 14 378 51 412 86 c 1
 422 75 l 1
 369 24 343 -6 251 -8 c 0
 121 -11 39 80 39 209 c 0
 39 317 95 385 171 419 c 0
 199 431 229 436 261 436 c 0
 366 436 425 391 425 286 c 0
 425 271 418 270 400 270 c 2
 136 270 l 1
 133 260 131 233 131 220 c 0
 131 118 176 14 274 14 c 0
337 312 m 0
 337 364 318 417 251 418 c 0
 182 419 152 360 139 290 c 1
 288 290 l 2
 307 290 332 286 336 299 c 0
 337 303 337 308 337 312 c 0
139 496 m 1
 139 541 l 1
 383 541 l 1
 383 496 l 1
 139 496 l 1
EndSplineSet
Validated: 33
Substitution2: "'smcp' Lowercase to Small Capitals in Latin lookup 0 subtable" emacron.sc
EndChar

StartChar: Ebreve
Encoding: 467 276 211
Width: 655
GlyphClass: 2
Flags: MW
HStem: 0 14<41 601 41 41> 0 21<359.5 429 359.5 601> 353 21<235 251.5> 536 21G<560 579 560 560> 674 21<245 250 250 365> 681 14<50 571> 764 62<323.5 360 319.5 374.5>
VStem: 140 95<126 353 374 569 569 586> 216 249<867 867> 404 18<239 271.5 439.5 486> 560 19<536 536> 595 20<178 178>
LayerCount: 2
Fore
SplineSet
340 826 m 0x0280
 380 826 421 840 432 867 c 1
 465 867 l 1
 459 805 408 764 341 764 c 0
 306 764 274 775 254 793 c 0
 233 809 218 835 216 867 c 1
 249 867 l 1
 260 839 299 826 340 826 c 0x0280
235 374 m 1x3970
 331 374 404 393 404 486 c 1
 422 486 l 1
 422 239 l 1
 404 239 l 1
 404 304 374 334 318 346 c 0
 296 350 268 353 235 353 c 1
 235 124 l 2
 235 85 243 57 267 43 c 0
 294 23 334 21 385 21 c 0x7970
 473 21 544 55 573 112 c 0
 582 129 589 152 595 178 c 1
 615 178 l 1
 601 0 l 1
 41 0 l 1
 41 14 l 1
 76 16 105 27 122 44 c 0
 138 60 140 91 140 126 c 2
 140 569 l 2
 140 603 139 634 125 650 c 0
 110 667 83 679 50 681 c 1
 50 695 l 1
 571 695 l 1xb570
 579 536 l 1
 560 536 l 1
 543 637 484 674 365 674 c 2
 250 674 l 2
 240 674 235 669 235 659 c 2
 235 374 l 1x3970
EndSplineSet
Validated: 1
Substitution2: "'c2sc' Capitals to Small Capitals in Latin lookup 1 subtable" ebreve.sc
EndChar

StartChar: ebreve
Encoding: 468 277 212
Width: 462
GlyphClass: 2
Flags: MW
HStem: -8 22 270 20<139 288 288 297.5 139 400 136 288> 418 18 496 62<239 281.5 239 297.5>
VStem: 39 92<169 226.5 169 263> 136 33 337 88<310 338> 352 33
LayerCount: 2
Fore
SplineSet
274 14 m 0xfe
 334 14 378 51 412 86 c 1
 422 75 l 1
 369 24 343 -6 251 -8 c 0
 121 -11 39 80 39 209 c 0
 39 317 95 385 171 419 c 0
 199 431 229 436 261 436 c 0
 366 436 425 391 425 286 c 0
 425 271 418 270 400 270 c 2
 136 270 l 1
 133 260 131 233 131 220 c 0
 131 118 176 14 274 14 c 0xfe
337 312 m 0
 337 364 318 417 251 418 c 0
 182 419 152 360 139 290 c 1
 288 290 l 2
 307 290 332 286 336 299 c 0
 337 303 337 308 337 312 c 0
260 558 m 0
 303 558 343 580 352 613 c 1
 386 613 l 1xfd
 382 545 333 496 262 496 c 0
 189 496 141 544 136 613 c 1
 170 613 l 1
 179 579 218 558 260 558 c 0
EndSplineSet
Validated: 33
Substitution2: "'smcp' Lowercase to Small Capitals in Latin lookup 0 subtable" ebreve.sc
EndChar

StartChar: Edotaccent
Encoding: 469 278 213
Width: 655
GlyphClass: 2
Flags: MW
HStem: 0 14<41 601 41 41> 0 21<359.5 429 359.5 601> 353 21<235 251.5> 536 21G<560 579 560 560> 674 21<245 250 250 365> 681 14<50 571> 764 97<318.5 344>
VStem: 140 95<126 353 374 569 569 586> 284 97<798.5 823.5> 404 18<239 271.5 439.5 486> 560 19<536 536> 595 20<178 178>
LayerCount: 2
Fore
SplineSet
331 764 m 0x0280
 306 764 284 786 284 811 c 0
 284 836 306 861 331 861 c 0
 358 861 381 838 381 811 c 0
 381 785 357 764 331 764 c 0x0280
235 374 m 1x3970
 331 374 404 393 404 486 c 1
 422 486 l 1
 422 239 l 1
 404 239 l 1
 404 304 374 334 318 346 c 0
 296 350 268 353 235 353 c 1
 235 124 l 2
 235 85 243 57 267 43 c 0
 294 23 334 21 385 21 c 0x7970
 473 21 544 55 573 112 c 0
 582 129 589 152 595 178 c 1
 615 178 l 1
 601 0 l 1
 41 0 l 1
 41 14 l 1
 76 16 105 27 122 44 c 0
 138 60 140 91 140 126 c 2
 140 569 l 2
 140 603 139 634 125 650 c 0
 110 667 83 679 50 681 c 1
 50 695 l 1
 571 695 l 1xb570
 579 536 l 1
 560 536 l 1
 543 637 484 674 365 674 c 2
 250 674 l 2
 240 674 235 669 235 659 c 2
 235 374 l 1x3970
EndSplineSet
Validated: 1
Substitution2: "'c2sc' Capitals to Small Capitals in Latin lookup 1 subtable" edotaccent.sc
EndChar

